<svg id="icon_integracion_ciclo" xmlns="http://www.w3.org/2000/svg" width="75.293" height="75.259" viewBox="0 0 75.293 75.259">
  <path id="Path_6013" data-name="Path 6013" d="M303.712,419.983c.235-1.343.405-2.7.718-4.026a24.4,24.4,0,0,1,47.6.888,23.089,23.089,0,0,1-3.075,17.578c-5.916,9.326-11.992,18.55-18.023,27.8a3.255,3.255,0,0,1-5.59.026c-2.541-3.838-5.027-7.713-7.529-11.577a1.112,1.112,0,0,1,.206-1.677c.574-.386,1.192-.2,1.664.521q3.629,5.57,7.248,11.147c.813,1.25,1.58,1.256,2.384.022,5.8-8.932,11.635-17.848,17.4-26.8A22.2,22.2,0,1,0,306.1,418.931a21.719,21.719,0,0,0,3.31,14.744c2.462,3.86,4.981,7.684,7.467,11.531.171.261.417.585.379.842a1.57,1.57,0,0,1-.541,1.072,1.718,1.718,0,0,1-1.2-.111c-.21-.073-.346-.394-.49-.618-2.391-3.674-4.768-7.356-7.17-11.023a24.38,24.38,0,0,1-4.024-11.294,2.149,2.149,0,0,0-.12-.414Z" transform="translate(-303.712 -397.362)" fill="#0090f2"/>
  <path id="Path_6014" data-name="Path 6014" d="M311.336,434.959c-.2-.087-.394-.175-.6-.257a3.3,3.3,0,0,1,.547-6.275,3.2,3.2,0,0,1,3.519,1.531,1,1,0,0,0,1.086.6c.857-.04,1.717.018,2.573-.029a.939.939,0,0,0,.656-.386,3.321,3.321,0,0,1,5.914.009.991.991,0,0,0,.733.379q14.587.03,29.177,0a1,1,0,0,0,.722-.4,3.359,3.359,0,0,1,3.66-1.7,3.3,3.3,0,0,1,.2,6.4,1.975,1.975,0,0,0-.253.135h-1.323a3.614,3.614,0,0,1-2.158-1.631.935.935,0,0,0-1.019-.583q-9.067.02-18.136.009c-3.6,0-7.194-.007-10.793.009-.255,0-.658.08-.74.246a3.838,3.838,0,0,1-2.448,1.95h-1.177a3.749,3.749,0,0,1-2.433-1.943.689.689,0,0,0-.521-.25c-1-.024-2-.02-3,0-.168,0-.432.08-.485.2a3.856,3.856,0,0,1-2.384,2Zm.669-2.209a1.1,1.1,0,1,0-1.1-1.128A1.115,1.115,0,0,0,312.005,432.75Zm46.591,0a1.1,1.1,0,1,0-1.075-1.157A1.112,1.112,0,0,0,358.6,432.748Zm-35.441-1.064a1.083,1.083,0,1,0-1.081,1.064A1.088,1.088,0,0,0,323.155,431.684Z" transform="translate(-297.661 -359.7)" fill="#0090f2"/>
  <path id="Path_6015" data-name="Path 6015" d="M353.435,425.061a14.219,14.219,0,0,1-2.409,7.478q-4.487,6.9-8.965,13.8c-1.582,2.428-4.343,2.424-5.929-.011-3.047-4.677-6.109-9.344-9.116-14.048a14.333,14.333,0,1,1,26.418-7.217Zm-26.469.066a11.152,11.152,0,0,0,1.77,5.723q4.636,7.226,9.342,14.413a1.11,1.11,0,0,0,2.052-.013c3.113-4.777,6.242-9.543,9.3-14.354a11.605,11.605,0,0,0,1.68-7.948,12.155,12.155,0,0,0-12.572-10.5A12.317,12.317,0,0,0,326.966,425.128Z" transform="translate(-278.142 -381.696)" fill="#0090f2"/>
  <path id="Path_6016" data-name="Path 6016" d="M338.871,416.935a15.588,15.588,0,1,1-15.535-15.6A15.62,15.62,0,0,1,338.871,416.935Zm-2.207-.007A13.382,13.382,0,1,0,323.287,430.3,13.4,13.4,0,0,0,336.664,416.928Z" transform="translate(-298.87 -392.532)" fill="#0090f2"/>
  <path id="Path_6017" data-name="Path 6017" d="M334.243,425.241a5.511,5.511,0,1,1,5.517-5.5A5.5,5.5,0,0,1,334.243,425.241Zm-.031-2.2a3.291,3.291,0,0,0,3.341-3.277,3.307,3.307,0,0,0-6.614-.069A3.3,3.3,0,0,0,334.212,423.036Z" transform="translate(-273.29 -376.866)" fill="#0090f2"/>
  <path id="Path_6018" data-name="Path 6018" d="M311.677,412.047a6.763,6.763,0,1,1,6.754,6.791A6.784,6.784,0,0,1,311.677,412.047Zm11.32.022a4.557,4.557,0,1,0-4.587,4.562A4.571,4.571,0,0,0,323,412.07Z" transform="translate(-294.029 -387.691)" fill="#0090f2"/>
</svg>
