<svg xmlns="http://www.w3.org/2000/svg" width="20.55" height="20.545" viewBox="0 0 20.55 20.545">
  <path id="icon_instragram" d="M10.272,7.243a5.267,5.267,0,1,0,5.267,5.267A5.259,5.259,0,0,0,10.272,7.243Zm0,8.692A3.425,3.425,0,1,1,13.7,12.51,3.431,3.431,0,0,1,10.272,15.935Zm6.712-8.908A1.229,1.229,0,1,1,15.755,5.8,1.226,1.226,0,0,1,16.983,7.027Zm3.489,1.247a6.08,6.08,0,0,0-1.66-4.3,6.12,6.12,0,0,0-4.3-1.66c-1.7-.1-6.78-.1-8.477,0a6.111,6.111,0,0,0-4.3,1.655,6.1,6.1,0,0,0-1.66,4.3c-.1,1.7-.1,6.78,0,8.477a6.08,6.08,0,0,0,1.66,4.3,6.128,6.128,0,0,0,4.3,1.66c1.7.1,6.78.1,8.477,0a6.08,6.08,0,0,0,4.3-1.66,6.12,6.12,0,0,0,1.66-4.3c.1-1.7.1-6.776,0-8.472ZM18.281,18.566a3.467,3.467,0,0,1-1.953,1.953c-1.352.536-4.561.413-6.056.413s-4.708.119-6.056-.413a3.467,3.467,0,0,1-1.953-1.953C1.726,17.214,1.85,14,1.85,12.51S1.731,7.8,2.263,6.454A3.467,3.467,0,0,1,4.216,4.5c1.352-.536,4.561-.413,6.056-.413s4.708-.119,6.056.413a3.467,3.467,0,0,1,1.953,1.953c.536,1.352.413,4.561.413,6.056S18.817,17.218,18.281,18.566Z" transform="translate(0.005 -2.238)" fill="#fff"/>
</svg>
