<svg xmlns="http://www.w3.org/2000/svg" width="78.984" height="78.507" viewBox="0 0 78.984 78.507">
  <g id="icon_eficiencia" transform="translate(0)">
    <path id="Path_6009" data-name="Path 6009" d="M262.275,427.285l-26.746,6.734a5.034,5.034,0,0,0-1.272-2.149l-8.52-8.522a5.566,5.566,0,0,0-3.957-1.638H204.785a5.869,5.869,0,0,0-5.825-5.218h-4.407a5.866,5.866,0,0,0-5.861,5.861v11.792a1.16,1.16,0,1,0,2.32,0V422.353a3.543,3.543,0,0,1,3.541-3.539h4.407a3.546,3.546,0,0,1,3.481,2.9c.086.463.058-.924.058,21.227a3.543,3.543,0,0,1-3.539,3.539h-4.407a3.543,3.543,0,0,1-3.541-3.539v-4.152a1.16,1.16,0,0,0-2.32,0v4.152a5.867,5.867,0,0,0,5.861,5.861h4.407a5.869,5.869,0,0,0,5.861-5.861v-2.054c8.544,1.476,6.7.937,19.441,7.168,2.07,1.015,4.066,2.936,8.287,2.936a11.887,11.887,0,0,0,6.35-1.832l22.069-11.189a1.16,1.16,0,1,0-1.048-2.07c-.08.04-22.142,11.223-22.217,11.272a9.586,9.586,0,0,1-5.154,1.5c-3.519,0-5.047-1.613-7.268-2.7-12.949-6.335-11.11-5.825-20.46-7.44v-14.5h16.962a3.257,3.257,0,0,1,2.315.959l8.517,8.52A2.6,2.6,0,1,1,229,437.242l-7.673-7.678a1.16,1.16,0,1,0-1.642,1.64l7.675,7.68a4.9,4.9,0,0,0,8.276-2.5c28.672-7.217,27.09-6.842,27.378-6.842a2.257,2.257,0,0,1,1.041,4.256,1.16,1.16,0,1,0,1.05,2.07,4.527,4.527,0,0,0,2.488-4.059A4.588,4.588,0,0,0,262.275,427.285Z" transform="translate(-188.692 -372.48)" fill="#0090f2"/>
    <path id="Path_6010" data-name="Path 6010" d="M190.553,429.244a3.94,3.94,0,1,0,5.5-3.62,1.161,1.161,0,0,0-.915,2.134,1.619,1.619,0,1,1-2.185,1C193.449,427.179,190.553,426.131,190.553,429.244Z" transform="translate(-186.43 -361.493)" fill="#0090f2"/>
    <path id="Path_6011" data-name="Path 6011" d="M250.37,425.153l-5.595-2.036a17.638,17.638,0,0,0,0-2l5.593-2.036a2.363,2.363,0,0,0,1.414-3.029l-1.9-5.22a2.365,2.365,0,0,0-3.027-1.411l-5.595,2.036a17.946,17.946,0,0,0-1.283-1.529l2.976-5.156a2.364,2.364,0,0,0-.864-3.226l-4.81-2.778a2.365,2.365,0,0,0-3.228.866l-2.974,5.152a17.825,17.825,0,0,0-1.968-.343l-1.035-5.863a2.365,2.365,0,0,0-2.736-1.917l-5.471.964a2.365,2.365,0,0,0-1.917,2.737l1.035,5.861a18.183,18.183,0,0,0-1.73,1l-4.56-3.827a2.359,2.359,0,0,0-3.328.29l-3.57,4.256a2.361,2.361,0,0,0,.29,3.328l4.558,3.824a18.1,18.1,0,0,0-.682,1.879H204.01a2.364,2.364,0,0,0-2.362,2.362V424.9a2.364,2.364,0,0,0,2.362,2.362h5.951a18.285,18.285,0,0,0,.682,1.879l-4.558,3.824a2.365,2.365,0,0,0-.29,3.328l3.57,4.256a2.365,2.365,0,0,0,3.328.29l4.56-3.827a18.182,18.182,0,0,0,1.73,1l-1.035,5.858a2.364,2.364,0,0,0,1.917,2.739l5.471.964a2.365,2.365,0,0,0,2.736-1.917l1.035-5.863a17.825,17.825,0,0,0,1.968-.343l2.974,5.152a2.365,2.365,0,0,0,3.228.866l4.81-2.779a2.362,2.362,0,0,0,.864-3.226l-2.976-5.156a17.924,17.924,0,0,0,1.283-1.529l5.595,2.036a2.36,2.36,0,0,0,3.027-1.414l1.9-5.218A2.362,2.362,0,0,0,250.37,425.153Zm-.769,2.233-1.9,5.22a.032.032,0,0,1-.022.025.052.052,0,0,1-.031,0l-6.423-2.34a1.161,1.161,0,0,0-1.36.443,15.541,15.541,0,0,1-2.138,2.546,1.16,1.16,0,0,0-.2,1.416l3.419,5.923a.04.04,0,0,1-.013.058l-4.813,2.778a.043.043,0,0,1-.058-.016l-3.417-5.918a1.16,1.16,0,0,0-1.327-.536,15.359,15.359,0,0,1-3.273.574,1.162,1.162,0,0,0-1.066.957l-1.188,6.734a.046.046,0,0,1-.049.035c-.064-.013-5.517-.951-5.506-1.015l1.188-6.731a1.158,1.158,0,0,0-.674-1.261,15.714,15.714,0,0,1-2.876-1.664,1.158,1.158,0,0,0-1.431.047l-5.238,4.4a.042.042,0,0,1-.058-.007l-3.572-4.254a.042.042,0,0,1,0-.06l5.236-4.394a1.16,1.16,0,0,0,.3-1.4,15.351,15.351,0,0,1-1.137-3.122,1.159,1.159,0,0,0-1.128-.884H204.01a.044.044,0,0,1-.042-.042v-5.555a.042.042,0,0,1,.042-.042h6.836a1.161,1.161,0,0,0,1.128-.884,15.35,15.35,0,0,1,1.137-3.122,1.16,1.16,0,0,0-.3-1.4l-5.236-4.394a.042.042,0,0,1-.016-.029.041.041,0,0,1,.011-.031l3.57-4.256a.049.049,0,0,1,.029-.013.034.034,0,0,1,.031.009l5.238,4.4a1.159,1.159,0,0,0,1.431.047,15.583,15.583,0,0,1,2.876-1.664,1.158,1.158,0,0,0,.674-1.261l-1.188-6.731a.043.043,0,0,1,.035-.049l5.471-.966a.039.039,0,0,1,.031.009.03.03,0,0,1,.018.027l1.188,6.734a1.162,1.162,0,0,0,1.066.957,15.483,15.483,0,0,1,3.273.572,1.16,1.16,0,0,0,1.327-.532l3.417-5.921a.046.046,0,0,1,.027-.02.039.039,0,0,1,.031,0l4.813,2.779a.043.043,0,0,1,.015.058l-3.421,5.923a1.16,1.16,0,0,0,.2,1.416,15.546,15.546,0,0,1,2.138,2.546,1.16,1.16,0,0,0,1.36.441l6.423-2.338a.042.042,0,0,1,.053.027l1.9,5.22a.031.031,0,0,1,0,.031.04.04,0,0,1-.022.022l-6.426,2.338a1.165,1.165,0,0,0-.758,1.214,15.448,15.448,0,0,1,0,3.326,1.161,1.161,0,0,0,.758,1.212l6.426,2.34a.034.034,0,0,1,.022.022A.031.031,0,0,1,249.6,427.386Z" transform="translate(-172.941 -396.629)" fill="#0090f2"/>
    <path id="Path_6012" data-name="Path 6012" d="M228.437,404.912l-13.044,13.044-5.5-5.5a1.159,1.159,0,0,0-1.64,1.64l5.626,5.628a2.136,2.136,0,0,0,3.022,0l13.175-13.175a1.16,1.16,0,1,0-1.642-1.64Z" transform="translate(-165.321 -386.973)" fill="#0090f2"/>
  </g>
</svg>
