<svg xmlns="http://www.w3.org/2000/svg" width="74.979" height="70" viewBox="0 0 74.979 70">
  <g id="icon_logistics_40" transform="translate(0 -17)">
    <g id="Group_7574" data-name="Group 7574" transform="translate(0 17)">
      <g id="Group_7573" data-name="Group 7573" transform="translate(0 0)">
        <path id="Path_16783" data-name="Path 16783" d="M59.159,73.234a6.94,6.94,0,0,0-6.57,4.686H11.655a7.176,7.176,0,1,1,0-14.351H25.817a11.569,11.569,0,1,0,0-23.138H13.5a6.938,6.938,0,0,0-4.357-4.325V30.766H21.1a2.2,2.2,0,0,0,2.213-2.2V19.2A2.2,2.2,0,0,0,21.1,17H6.934a2.2,2.2,0,0,0-2.213,2.2v16.91A6.892,6.892,0,1,0,13.5,44.824H25.817a7.176,7.176,0,1,1,0,14.351H11.655a11.569,11.569,0,1,0,0,23.138H52.589a6.924,6.924,0,1,0,6.57-9.079ZM9.147,21.393h9.737v4.979H9.147ZM6.934,45.117a2.49,2.49,0,1,1,2.508-2.49A2.5,2.5,0,0,1,6.934,45.117Zm52.225,37.49a2.49,2.49,0,1,1,2.508-2.49A2.5,2.5,0,0,1,59.159,82.607Z" transform="translate(0 -17)" fill="#0090f2"/>
      </g>
    </g>
    <g id="Group_7576" data-name="Group 7576" transform="translate(53.04 31.237)">
      <g id="Group_7575" data-name="Group 7575" transform="translate(0 0)">
        <path id="Path_16784" data-name="Path 16784" d="M360.526,113a6.526,6.526,0,1,0,6.526,6.526A6.533,6.533,0,0,0,360.526,113Zm0,8.887a2.36,2.36,0,1,1,2.361-2.36A2.363,2.363,0,0,1,360.526,121.887Z" transform="translate(-354 -113)" fill="#0090f2"/>
      </g>
    </g>
    <g id="Group_7578" data-name="Group 7578" transform="translate(44.154 21.443)">
      <g id="Group_7577" data-name="Group 7577">
        <path id="Path_16785" data-name="Path 16785" d="M305.413,49a15.413,15.413,0,0,0-9.91,27.217l8.055,15.8a2.083,2.083,0,0,0,3.711,0l8.055-15.8A15.413,15.413,0,0,0,305.413,49Zm6.963,24.245a2.083,2.083,0,0,0-.565.689l-6.4,12.552-6.4-12.552a2.083,2.083,0,0,0-.565-.689,11.247,11.247,0,1,1,13.927,0Z" transform="translate(-290 -49)" fill="#0090f2"/>
      </g>
    </g>
  </g>
</svg>
