<svg id="icon_linkedin" xmlns="http://www.w3.org/2000/svg" width="18.777" height="20.544" viewBox="0 0 18.777 20.544">
  <g id="Group_78" data-name="Group 78">
    <rect id="Rectangle_74" data-name="Rectangle 74" width="3.877" height="13.696" transform="translate(0.373 6.848)" fill="#fff"/>
    <path id="Path_129" data-name="Path 129" d="M924.011,9196.088a2.538,2.538,0,1,0-2.292-2.527A2.418,2.418,0,0,0,924.011,9196.088Z" transform="translate(-921.719 -9191.035)" fill="#fff"/>
  </g>
  <path id="Path_130" data-name="Path 130" d="M930.811,9203.095c0-1.926.81-3.073,2.361-3.073,1.426,0,2.111,1.1,2.111,3.073v7.188h3.859v-8.672c0-3.669-1.9-5.441-4.557-5.441a4.354,4.354,0,0,0-3.774,2.262v-1.844h-3.718v13.7h3.718Z" transform="translate(-920.365 -9189.74)" fill="#fff"/>
</svg>
