<svg id="icon_UP" xmlns="http://www.w3.org/2000/svg" width="434.593" height="328.412" viewBox="0 0 434.593 328.412">
  <path id="Path_4479" data-name="Path 4479" d="M-330.409-1016.67v45.364a33.66,33.66,0,0,0,2.681,13.4,34.5,34.5,0,0,0,7.353,10.925,34.464,34.464,0,0,0,10.927,7.353,33.632,33.632,0,0,0,13.4,2.681,33.646,33.646,0,0,0,13.4-2.681,34.507,34.507,0,0,0,10.927-7.353,34.5,34.5,0,0,0,7.353-10.925,33.662,33.662,0,0,0,2.68-13.4v-45.364h53.72v45.364a86.273,86.273,0,0,1-6.869,34.352,88.532,88.532,0,0,1-18.849,28.01A88.484,88.484,0,0,1-261.7-890.1a86.28,86.28,0,0,1-34.35,6.87A86.242,86.242,0,0,1-330.4-890.1a88.348,88.348,0,0,1-28.009-18.848,88.407,88.407,0,0,1-18.851-28.01,86.274,86.274,0,0,1-6.871-34.352v-45.364Z" transform="translate(384.128 1084.106)" fill="#fff"/>
  <path id="Path_4480" data-name="Path 4480" d="M2544.139,1079.951a120.876,120.876,0,0,0-120.877,120.877c0,1.193.054,2.371.09,3.555v203.98h61.512v-102.2a120.873,120.873,0,1,0,59.275-226.213Zm0,179.12a58.243,58.243,0,1,1,58.243-58.243A58.309,58.309,0,0,1,2544.139,1259.071Z" transform="translate(-2230.422 -1079.951)" fill="#fff"/>
</svg>
