<svg id="icon_security" xmlns="http://www.w3.org/2000/svg" width="61.835" height="70.668" viewBox="0 0 61.835 70.668">
  <g id="Group_1376" data-name="Group 1376">
    <g id="Group_1375" data-name="Group 1375">
      <path id="Path_6006" data-name="Path 6006" d="M139.158,407.293l-29.445-8.832a1.442,1.442,0,0,0-.844,0l-29.445,8.832a1.471,1.471,0,0,0-1.048,1.412v32.39c0,13.02,19.851,24.6,30.48,27.907a1.514,1.514,0,0,0,.873,0c10.629-3.308,30.482-14.888,30.482-27.907V408.7A1.475,1.475,0,0,0,139.158,407.293Zm-1.892,33.8c0,10.339-16.381,21.209-27.974,24.958C97.7,462.3,81.319,451.433,81.319,441.094V409.8l27.974-8.391,27.974,8.391Z" transform="translate(-78.376 -398.398)" fill="#0090f2"/>
    </g>
  </g>
  <g id="Group_1378" data-name="Group 1378" transform="translate(14.721 17.667)">
    <g id="Group_1377" data-name="Group 1377">
      <path id="Path_6007" data-name="Path 6007" d="M101.215,406.371a16.195,16.195,0,1,0,16.195,16.195A16.212,16.212,0,0,0,101.215,406.371Zm0,29.445a13.25,13.25,0,1,1,13.25-13.25A13.266,13.266,0,0,1,101.215,435.816Z" transform="translate(-85.02 -406.371)" fill="#0090f2"/>
    </g>
  </g>
  <g id="Group_1380" data-name="Group 1380" transform="translate(20.611 26.503)">
    <g id="Group_1379" data-name="Group 1379">
      <path id="Path_6008" data-name="Path 6008" d="M107.859,410.789a1.475,1.475,0,0,0-2.083,0L95.041,421.525l-4.85-4.846a1.472,1.472,0,0,0-2.081,2.083L94,424.649a1.484,1.484,0,0,0,1.044.43,1.466,1.466,0,0,0,1.039-.43l11.779-11.777A1.475,1.475,0,0,0,107.859,410.789Z" transform="translate(-87.678 -410.359)" fill="#0090f2"/>
    </g>
  </g>
</svg>
