<svg xmlns="http://www.w3.org/2000/svg" width="59.641" height="75.917" viewBox="0 0 59.641 75.917"><g transform="translate(-2493.179 -968.066)"><g transform="translate(2493.179 968.066)"><rect width="58.047" height="39.804" transform="translate(1.594 5.313)" fill="#0090f2"/><path d="M7.765,0A1.265,1.265,0,0,0,6.5,1.265V74.652a1.265,1.265,0,1,0,2.531,0V1.265A1.265,1.265,0,0,0,7.765,0Z" transform="translate(-6.5 0)" fill="#424a60"/></g><g transform="translate(2507.602 980.605)"><path d="M-380.043-1016.671v3.451a2.561,2.561,0,0,0,.2,1.019,2.629,2.629,0,0,0,.559.831,2.627,2.627,0,0,0,.831.559,2.562,2.562,0,0,0,1.019.2,2.563,2.563,0,0,0,1.019-.2,2.628,2.628,0,0,0,.831-.559,2.628,2.628,0,0,0,.559-.831,2.563,2.563,0,0,0,.2-1.019v-3.451h4.086v3.451a6.561,6.561,0,0,1-.522,2.613,6.73,6.73,0,0,1-1.434,2.13,6.737,6.737,0,0,1-2.13,1.434,6.564,6.564,0,0,1-2.613.522,6.561,6.561,0,0,1-2.612-.522,6.726,6.726,0,0,1-2.13-1.434,6.72,6.72,0,0,1-1.434-2.13,6.561,6.561,0,0,1-.523-2.613v-3.451Z" transform="translate(384.128 1021.8)" fill="#fff"/><path d="M2432.456,1079.951a9.194,9.194,0,0,0-9.194,9.194c0,.091,0,.18.007.27v15.514h4.678v-7.773a9.193,9.193,0,1,0,4.508-17.205Zm0,13.623a4.43,4.43,0,1,1,4.43-4.43A4.435,4.435,0,0,1,2432.456,1093.575Z" transform="translate(-2408.595 -1079.951)" fill="#fff"/></g></g></svg>