<svg id="barSlider" xmlns="http://www.w3.org/2000/svg" width="24.837" height="732.133" viewBox="0 0 24.837 732.133">
  <path id="Trazado_3970" data-name="Trazado 3970" d="M0,0V610.426" transform="translate(12.418 121.707)" fill="none" stroke="#fff" stroke-width="2.75"/>
  <path id="Trazado_3966" data-name="Trazado 3966" d="M603.138,198.731v6.4a4.787,4.787,0,0,0,.375,1.887,4.874,4.874,0,0,0,1.039,1.541,4.857,4.857,0,0,0,6.86,0,4.926,4.926,0,0,0,1.036-1.541,4.726,4.726,0,0,0,.379-1.887v-6.4H620.4v6.4a12.166,12.166,0,0,1-.971,4.843,12.4,12.4,0,0,1-6.607,6.607,12.608,12.608,0,0,1-9.685,0,12.435,12.435,0,0,1-6.607-6.607,12.168,12.168,0,0,1-.967-4.843v-6.4Z" transform="translate(-595.564 -198.731)" fill="#fff"/>
  <path id="Trazado_3967" data-name="Trazado 3967" d="M603.138,206.832v6.4a4.795,4.795,0,0,0,1.414,3.428,4.838,4.838,0,0,0,1.541,1.039,4.942,4.942,0,0,0,3.778,0,4.847,4.847,0,0,0,2.576-2.58,4.726,4.726,0,0,0,.379-1.887v-6.4H620.4v6.4a12.167,12.167,0,0,1-.971,4.843,12.4,12.4,0,0,1-6.607,6.607,12.607,12.607,0,0,1-9.685,0,12.435,12.435,0,0,1-6.607-6.607,12.168,12.168,0,0,1-.967-4.843v-6.4Z" transform="translate(-595.564 -177.6)" fill="#fff" opacity="0.6"/>
  <path id="Trazado_3968" data-name="Trazado 3968" d="M603.138,214.933v6.4a4.8,4.8,0,0,0,.375,1.891,4.878,4.878,0,0,0,2.58,2.576,4.942,4.942,0,0,0,3.778,0,4.857,4.857,0,0,0,2.576-2.576,4.743,4.743,0,0,0,.379-1.891v-6.4H620.4v6.4a12.154,12.154,0,0,1-.971,4.843,12.371,12.371,0,0,1-6.607,6.607,12.607,12.607,0,0,1-9.685,0,12.4,12.4,0,0,1-6.607-6.607,12.156,12.156,0,0,1-.967-4.843v-6.4Z" transform="translate(-595.564 -156.469)" fill="#fff" opacity="0.6"/>
  <path id="Trazado_3969" data-name="Trazado 3969" d="M603.138,223.035v6.394a4.8,4.8,0,0,0,.375,1.891,4.846,4.846,0,0,0,2.58,2.576,4.9,4.9,0,0,0,3.778,0,4.825,4.825,0,0,0,2.576-2.576,4.743,4.743,0,0,0,.379-1.891v-6.394H620.4v6.394a12.154,12.154,0,0,1-.971,4.843,12.371,12.371,0,0,1-6.607,6.607,12.564,12.564,0,0,1-9.685,0,12.4,12.4,0,0,1-6.607-6.607,12.156,12.156,0,0,1-.967-4.843v-6.394Z" transform="translate(-595.564 -135.335)" fill="#fff" opacity="0.6"/>
</svg>
