<?xml version="1.0" encoding="utf-8"?>
<!-- Generator: Adobe Illustrator 24.0.0, SVG Export Plug-In . SVG Version: 6.00 Build 0)  -->
<svg version="1.1" id="Capa_1" xmlns="http://www.w3.org/2000/svg" xmlns:xlink="http://www.w3.org/1999/xlink" x="0px" y="0px"
	 viewBox="0 0 500 500" style="enable-background:new 0 0 500 500;" xml:space="preserve">
<style type="text/css">
	.st0{fill:#0090F2;}
	.st1{fill:#FFFFFF;}
</style>
<circle class="st0" cx="250" cy="250" r="249.5"/>
<g>
	<path class="st1" d="M153.07,127h193.86c20.27,0,36.76,16.49,36.76,36.76V282.4c0,20.23-16.42,36.69-36.63,36.76V373l-77.37-53.84
		H153.07c-20.27,0-36.76-16.49-36.76-36.76V163.76C116.31,143.49,132.8,127,153.07,127z M131.97,282.4
		c0,11.63,9.46,21.09,21.09,21.09h121.54l56.79,39.52V303.5h15.54c11.63,0,21.09-9.46,21.09-21.09V163.76
		c0-11.63-9.46-21.09-21.09-21.09H153.07c-11.63,0-21.09,9.46-21.09,21.09V282.4z"/>
	<path class="st1" d="M312.13,182.36H187.87v15.67h124.26V182.36z"/>
	<path class="st1" d="M312.13,215.78H187.87v15.67h124.26V215.78z"/>
	<path class="st1" d="M312.13,249.21H187.87v15.67h124.26V249.21z"/>
</g>
</svg>
