<svg xmlns="http://www.w3.org/2000/svg" width="105.729" height="133.002" viewBox="0 0 105.729 133.002">
  <g id="CommandCenter_icon" transform="translate(-1227.924 -4165.824)">
    <path id="Trazado_4643" data-name="Trazado 4643" d="M411.568,577.823a14.368,14.368,0,0,1,20.292,0,1.194,1.194,0,0,0,1.691,0,1.2,1.2,0,0,0,0-1.691,16.759,16.759,0,0,0-23.673,0,1.195,1.195,0,0,0,1.691,1.688Z" transform="translate(859.074 3594.586)" fill="#c8c8c8"/>
    <path id="Trazado_4644" data-name="Trazado 4644" d="M428.08,578.253a1.2,1.2,0,0,0,0-1.691,11.973,11.973,0,0,0-16.908,0,1.195,1.195,0,1,0,1.688,1.691,9.578,9.578,0,0,1,13.529,0A1.194,1.194,0,0,0,428.08,578.253Z" transform="translate(861.163 3597.537)" fill="#c8c8c8"/>
    <path id="Trazado_4645" data-name="Trazado 4645" d="M412.467,577a1.2,1.2,0,1,0,1.691,1.691,4.781,4.781,0,0,1,6.763,0A1.2,1.2,0,0,0,422.611,577a7.173,7.173,0,0,0-10.145,0Z" transform="translate(863.251 3600.486)" fill="#c8c8c8"/>
    <path id="Sustracción_1" data-name="Sustracción 1" d="M6.692,62.283h0A6.7,6.7,0,0,1,0,55.593V7.563A6.681,6.681,0,0,1,5.836.922,122.487,122.487,0,0,1,35.324.86,6.669,6.669,0,0,1,41.176,7.5V55.542a6.7,6.7,0,0,1-6.7,6.689,6.883,6.883,0,0,1-.719-.038c-1.264-.135-2.551-.251-3.826-.346a11.326,11.326,0,0,0-18.711.04c-1.25.1-2.522.218-3.782.357A6.855,6.855,0,0,1,6.692,62.283Z" transform="translate(1260.2 4192.408)" fill="#fff" stroke="rgba(0,0,0,0)" stroke-miterlimit="10" stroke-width="1"/>
    <path id="Trazado_4647" data-name="Trazado 4647" d="M451.8,642.053V595a6.722,6.722,0,0,0-4.061-6.157,120.651,120.651,0,0,0-15.6-5.556,6.694,6.694,0,0,0-8.488,6.452V637.4a6.706,6.706,0,0,0,5.1,6.5,120.87,120.87,0,0,1,13.944,4.39A6.694,6.694,0,0,0,451.8,642.053Z" transform="translate(881.853 3613.626)" fill="#fff"/>
    <path id="Trazado_4648" data-name="Trazado 4648" d="M422.113,637.445V589.8a6.691,6.691,0,0,0-8.514-6.444A120.855,120.855,0,0,0,398,588.99a6.727,6.727,0,0,0-4.035,6.144v47.025a6.7,6.7,0,0,0,9.133,6.227,121.326,121.326,0,0,1,13.944-4.45A6.7,6.7,0,0,0,422.113,637.445Z" transform="translate(833.963 3613.716)" fill="#fff"/>
    <circle id="Elipse_42" data-name="Elipse 42" cx="7.73" cy="7.73" r="7.73" transform="translate(1273.058 4252.924)" fill="#0090f2"/>
    <path id="Trazado_4649" data-name="Trazado 4649" d="M424.962,637.584a11.287,11.287,0,0,1-13.32,0V611.209a11.286,11.286,0,0,0,13.32,0Z" transform="translate(862.486 3659.068)" fill="#0090f2"/>
  </g>
</svg>
