<svg xmlns="http://www.w3.org/2000/svg" xmlns:xlink="http://www.w3.org/1999/xlink" viewBox="0 0 79.31 77.6"><defs><style>.cls-1{fill:none;clip-rule:evenodd;}.cls-2{clip-path:url(#clip-path);}.cls-3{fill:#f3f3f4;}.cls-4{fill:#ed1c23;}.cls-5{fill:#213f97;}.cls-6{fill:#fbf9f8;}</style><clipPath id="clip-path"><path id="SVGID" class="cls-1" d="M40.5.45A38.8,38.8,0,1,1,1.7,39.25,38.81,38.81,0,0,1,40.5.45Z"/></clipPath></defs><title>eeuu</title><g id="Layer_2" data-name="Layer 2"><g id="Layer_1-2" data-name="Layer 1"><g class="cls-2"><polygon class="cls-3" points="1.7 0 79.31 0 79.31 77.6 1.7 77.6 1.7 0 1.7 0"/><path class="cls-4" d="M1.7,71.63H79.31v6H1.7v-6ZM1.7,0H79.31V6H1.7V0Zm0,11.94H79.31v6H1.7v-6Zm0,11.94H79.31v6H1.7v-6Zm0,11.94H79.31v6H1.7v-6Zm0,11.94H79.31v6H1.7v-6Zm0,11.94H79.31v6H1.7v-6Z"/><polygon class="cls-5" points="1.7 0 41.28 0 41.28 41.79 1.7 41.79 1.7 0 1.7 0"/><path class="cls-6" d="M36.77,11.77l-.53-1.65-.54,1.65H34l1.41,1-.54,1.66,1.41-1,1.4,1-.54-1.66,1.41-1ZM27.33,4.41l1.4-1H27l-.53-1.65-.54,1.65H24.18l1.41,1-.54,1.65,1.41-1,1.4,1-.53-1.65Zm9.77,0,1.41-1H36.77l-.53-1.65L35.7,3.39H34l1.41,1-.54,1.65,1.41-1,1.4,1L37.1,4.41Zm-34,29.14,1.41-1H2.81l-.54-1.65-.53,1.65H0l1.41,1L.87,35.2l1.4-1,1.41,1-.54-1.65Zm-.87-.28Zm10.65.28,1.4-1H12.59l-.54-1.65-.54,1.65H9.78l1.4,1-.53,1.65,1.4-1,1.41,1-.54-1.65Zm-.19-8.14,1.4-1H12.39l-.53-1.66-.54,1.66H9.58l1.41,1-.54,1.65,1.41-1,1.4,1-.53-1.65Zm0-8.1,1.4-1H12.44l-.53-1.65-.54,1.65H9.63l1.41,1L10.5,19l1.41-1,1.4,1-.53-1.65Zm9.77,0,1.41-1H22.22l-.53-1.65-.54,1.65H19.41l1.41,1L20.28,19l1.41-1,1.4,1-.54-1.65Zm-.05,8.1,1.41-1H22.17l-.53-1.66-.54,1.66H19.36l1.41,1-.54,1.65,1.41-1,1.4,1-.54-1.65Zm.2,8.14,1.4-1H22.37l-.54-1.65-.54,1.65H19.56l1.4,1-.54,1.65,1.41-1,1.41,1-.54-1.65Zm9.78,0,1.4-1H32.15l-.54-1.65-.54,1.65H29.33l1.41,1L30.2,35.2l1.41-1,1.4,1-.53-1.65Zm-.2-8.14,1.41-1H32l-.54-1.66-.53,1.66H29.14l1.41,1L30,27.06l1.4-1,1.41,1-.54-1.65Zm0-8.1,1.41-1H32l-.54-1.65-.53,1.65H29.19l1.41,1L30.06,19l1.4-1,1.41,1-.54-1.65ZM22.44,8.6l1.4-1H22.1l-.53-1.65L21,7.58H19.3l1.4,1-.54,1.66,1.41-1,1.4,1L22.44,8.6Zm9.77,0,1.41-1H31.88l-.53-1.65-.54,1.65H29.07l1.41,1-.54,1.66,1.41-1,1.4,1L32.21,8.6ZM8,37.74l1.41-1H7.7l-.54-1.65-.53,1.65H4.89l1.4,1-.53,1.65,1.4-1,1.41,1L8,37.74ZM7.84,29.6l1.4-1H7.5L7,26.93l-.54,1.65H4.69l1.41,1-.54,1.65,1.41-1,1.4,1L7.84,29.6Zm0-8.1,1.4-1H7.56L7,18.83l-.54,1.65H4.75l1.4,1-.54,1.65,1.41-1,1.4,1L7.89,21.5Zm9.78,0,1.4-1H17.33l-.53-1.65-.54,1.65H14.52l1.41,1-.54,1.65,1.41-1,1.4,1-.53-1.65Zm-.05,8.1,1.4-1H17.28l-.53-1.65-.54,1.65H14.47l1.41,1-.54,1.65,1.41-1,1.4,1-.53-1.65Zm.19,8.14,1.4-1H17.48l-.54-1.65-.54,1.65H14.67l1.4,1-.53,1.65,1.4-1,1.41,1-.54-1.65Zm9.78,0,1.4-1H27.26l-.54-1.65-.54,1.65H24.45l1.4,1-.54,1.65,1.41-1,1.4,1-.53-1.65Zm9.78,0,1.4-1H37l-.53-1.65L36,36.72H34.22l1.41,1-.54,1.65,1.41-1,1.4,1-.53-1.65Zm-10-8.14,1.41-1H27.06l-.54-1.65L26,28.58H24.25l1.41,1-.54,1.65,1.4-1,1.41,1-.54-1.65Zm9.78,0,1.41-1H36.84l-.54-1.65-.53,1.65H34l1.4,1-.53,1.65,1.4-1,1.41,1-.54-1.65Zm-9.73-8.1,1.41-1H27.11l-.53-1.65L26,20.48H24.3l1.41,1-.54,1.65,1.41-1,1.4,1-.54-1.65Zm9.78,0,1.41-1H36.89l-.54-1.65-.53,1.65H34.08l1.41,1L35,23.15l1.4-1,1.41,1-.54-1.65ZM17.55,12.79l1.4-1H17.22l-.54-1.65-.54,1.65H14.41l1.4,1-.54,1.65,1.41-1,1.4,1-.53-1.66Zm9.78,0,1.4-1H27l-.53-1.65-.54,1.65H24.18l1.41,1-.54,1.65,1.41-1,1.4,1-.53-1.66Z"/></g></g></g></svg>