<?xml version="1.0" encoding="utf-8"?>
<!-- Generator: Adobe Illustrator 23.0.6, SVG Export Plug-In . SVG Version: 6.00 Build 0)  -->
<svg version="1.1" id="Layer_1" xmlns="http://www.w3.org/2000/svg" xmlns:xlink="http://www.w3.org/1999/xlink" x="0px" y="0px"
	 viewBox="0 0 274.7 274.7" style="enable-background:new 0 0 274.7 274.7;" xml:space="preserve">
<style type="text/css">
	.st0{fill:#FFFFFF;}
</style>
<title>facebook</title>
<g>
	<g id="Layer_1-2">
		<path class="st0" d="M274.7,137.3C274.7,61.5,213.2,0,137.3,0S0,61.5,0,137.3s61.5,137.3,137.3,137.3c0.8,0,1.6,0,2.4,0V167.7
			h-29.5v-34.4h29.5V108c0-29.3,17.9-45.3,44.1-45.3c8.8,0,17.7,0.4,26.4,1.3v30.7h-18c-14.2,0-17,6.8-17,16.7v21.9h34l-4.4,34.4
			h-29.6v101.6C234.1,252.4,274.6,198.6,274.7,137.3L274.7,137.3z"/>
	</g>
</g>
</svg>
