<svg xmlns="http://www.w3.org/2000/svg" width="166.353" height="166.353" viewBox="0 0 166.353 166.353">
  <g id="iconInTransit2" transform="translate(-1356.118 -5755.134)">
    <circle id="Elipse_59" data-name="Elipse 59" cx="83.176" cy="83.176" r="83.176" transform="translate(1356.118 5755.134)" fill="#fff"/>
    <g id="Grupo_1176" data-name="Grupo 1176" transform="translate(1398.14 5782.241)">
      <g id="Grupo_1175" data-name="Grupo 1175" transform="translate(0 15.84)">
        <path id="Trazado_4931" data-name="Trazado 4931" d="M961.781,794.141A41.14,41.14,0,1,1,920.5,835.11,41.168,41.168,0,0,1,961.781,794.141Zm-.142,69.474A28.353,28.353,0,1,0,933.3,836,28.367,28.367,0,0,0,961.639,863.615Z" transform="translate(-920.503 -794.139)"/>
        <path id="Trazado_4932" data-name="Trazado 4932" d="M1075.594,889.23a31.57,31.57,0,0,1-1.163,6.7,2.435,2.435,0,0,1-3.813,1.6c-2.532-1.438-5.045-2.909-7.578-4.345a2.669,2.669,0,0,1-1.44-2.684,22.167,22.167,0,0,0,0-2.571,2.663,2.663,0,0,1,1.391-2.71c2.545-1.47,5.08-2.959,7.63-4.42a2.448,2.448,0,0,1,3.786,1.573A32.255,32.255,0,0,1,1075.594,889.23Z" transform="translate(-1008.661 -848.04)"/>
        <path id="Trazado_4933" data-name="Trazado 4933" d="M1038.558,936.515c0-1.416,0-2.831,0-4.247a2.678,2.678,0,0,1,1.679-2.628,21.709,21.709,0,0,0,2.235-1.271,2.653,2.653,0,0,1,2.972-.112c2.466,1.441,4.95,2.851,7.414,4.3a2.543,2.543,0,0,1,.567,4.354,24.794,24.794,0,0,1-11.4,6.559,2.553,2.553,0,0,1-3.463-2.62C1038.538,939.4,1038.558,937.958,1038.558,936.515Z" transform="translate(-994.263 -877.689)"/>
        <path id="Trazado_4934" data-name="Trazado 4934" d="M961.48,889.141a32.052,32.052,0,0,1,1.144-6.667,2.481,2.481,0,0,1,3.874-1.637c2.524,1.448,5.031,2.925,7.554,4.374a2.679,2.679,0,0,1,1.4,2.783,18.388,18.388,0,0,0,.008,2.489,2.57,2.57,0,0,1-1.347,2.634c-2.5,1.427-4.989,2.887-7.485,4.326-1.808,1.042-3.6.356-4.032-1.667A31.946,31.946,0,0,1,961.48,889.141Z" transform="translate(-946.107 -848.046)"/>
        <path id="Trazado_4935" data-name="Trazado 4935" d="M1054.362,846.472a2.214,2.214,0,0,1-1.1,2.019q-4.02,2.349-8.065,4.654a2.39,2.39,0,0,1-2.532-.084c-.9-.539-1.819-1.056-2.731-1.579a2.538,2.538,0,0,1-1.383-2.307c-.011-2.968-.039-5.937.008-8.9a2.523,2.523,0,0,1,3.387-2.46,25.183,25.183,0,0,1,11.446,6.633,9.908,9.908,0,0,1,1.174,1.9Z" transform="translate(-994.254 -821.349)"/>
        <path id="Trazado_4936" data-name="Trazado 4936" d="M995.385,936.514c0,1.443.021,2.887,0,4.33a2.527,2.527,0,0,1-3.408,2.589,24.629,24.629,0,0,1-11.519-6.663,2.487,2.487,0,0,1,.468-4.149c2.594-1.551,5.221-3.045,7.85-4.536a2.437,2.437,0,0,1,2.534.131c.889.508,1.775,1.02,2.673,1.512a2.489,2.489,0,0,1,1.4,2.29c.014,1.5,0,3,0,4.5Z" transform="translate(-957.396 -877.647)"/>
        <path id="Trazado_4937" data-name="Trazado 4937" d="M995.4,844.729c0,1.415-.017,2.829.005,4.244a2.7,2.7,0,0,1-1.583,2.609c-.806.429-1.605.875-2.373,1.366a2.6,2.6,0,0,1-2.9.07c-2.57-1.477-5.146-2.946-7.7-4.457a2.435,2.435,0,0,1-.531-3.9,25,25,0,0,1,11.923-6.919,2.451,2.451,0,0,1,3.124,2.334c.068,1.55.014,3.106.014,4.659Z" transform="translate(-957.408 -821.324)"/>
        <path id="Trazado_4938" data-name="Trazado 4938" d="M1017.257,898.648a7.736,7.736,0,1,1,7.807-7.673A7.723,7.723,0,0,1,1017.257,898.648Zm.048-11.867a4.152,4.152,0,1,0,4.161,4.16A4.133,4.133,0,0,0,1017.3,886.781Z" transform="translate(-976.17 -849.773)" fill="#0090f2"/>
      </g>
      <path id="Trazado_4939" data-name="Trazado 4939" d="M1007.012,756.934a10.944,10.944,0,0,1,15.456,0,.911.911,0,0,0,1.288-1.288,12.765,12.765,0,0,0-18.032,0,.911.911,0,0,0,1.288,1.288Z" transform="translate(-973.586 -751.917)"/>
      <path id="Trazado_4940" data-name="Trazado 4940" d="M1025.471,765.573a.909.909,0,0,0,0-1.288,9.118,9.118,0,0,0-12.879,0,.911.911,0,0,0,1.288,1.288,7.294,7.294,0,0,1,10.3,0A.91.91,0,0,0,1025.471,765.573Z" transform="translate(-977.877 -757.982)"/>
      <path id="Trazado_4941" data-name="Trazado 4941" d="M1019.459,772.923a.911.911,0,0,0,1.288,1.288,3.641,3.641,0,0,1,5.151,0,.911.911,0,0,0,1.288-1.288,5.463,5.463,0,0,0-7.726,0Z" transform="translate(-982.168 -764.043)"/>
    </g>
  </g>
</svg>
