<svg xmlns="http://www.w3.org/2000/svg" width="108.063" height="133.183" viewBox="0 0 108.063 133.183">
  <g id="iconInTransit_icon" transform="translate(-777 -4165.824)">
    <path id="Trazado_4663" data-name="Trazado 4663" d="M246.714,577.823a14.372,14.372,0,0,1,20.294,0,1.2,1.2,0,1,0,1.691-1.691,16.762,16.762,0,0,0-23.676,0,1.195,1.195,0,0,0,1.691,1.688Z" transform="translate(574.17 3594.586)" fill="#c8c8c8"/>
    <path id="Trazado_4664" data-name="Trazado 4664" d="M263.227,578.253a1.2,1.2,0,0,0,0-1.691,11.973,11.973,0,0,0-16.908,0,1.2,1.2,0,0,0,1.691,1.691,9.575,9.575,0,0,1,13.526,0A1.194,1.194,0,0,0,263.227,578.253Z" transform="translate(576.258 3597.537)" fill="#c8c8c8"/>
    <path id="Trazado_4665" data-name="Trazado 4665" d="M247.614,577a1.2,1.2,0,0,0,1.691,1.691,4.781,4.781,0,0,1,6.763,0A1.2,1.2,0,0,0,257.758,577a7.173,7.173,0,0,0-10.145,0Z" transform="translate(578.346 3600.486)" fill="#c8c8c8"/>
    <path id="Trazado_4666" data-name="Trazado 4666" d="M282.855,580.866a54.013,54.013,0,1,1-54.193,53.788A54.05,54.05,0,0,1,282.855,580.866Zm-.186,91.215a37.224,37.224,0,1,0-37.207-36.259A37.242,37.242,0,0,0,282.67,672.081Z" transform="translate(548.338 3610.115)" fill="#fff"/>
    <g id="Grupo_1100" data-name="Grupo 1100" transform="translate(797.185 4212.409)">
      <path id="Trazado_4667" data-name="Trazado 4667" d="M273.638,608.711c0,3.052-.9,5.93-1.526,8.8-.531,2.441-2.83,3.342-5.007,2.106-3.324-1.889-6.624-3.82-9.949-5.7a3.5,3.5,0,0,1-1.892-3.525,28.493,28.493,0,0,0,0-3.374,3.5,3.5,0,0,1,1.827-3.559c3.342-1.931,6.671-3.886,10.019-5.8a3.213,3.213,0,0,1,4.97,2.065C272.739,602.691,273.641,605.68,273.638,608.711Z" transform="translate(-205.945 -576.064)" fill="#fff"/>
      <path id="Trazado_4668" data-name="Trazado 4668" d="M250.922,617.439c0-1.858.005-3.716,0-5.577a3.518,3.518,0,0,1,2.2-3.449,28.151,28.151,0,0,0,2.937-1.67,3.484,3.484,0,0,1,3.9-.146c3.238,1.892,6.5,3.742,9.732,5.639,2.4,1.408,2.72,3.771.745,5.715a32.549,32.549,0,0,1-14.963,8.613c-2.618.667-4.5-.742-4.547-3.439C250.9,621.231,250.922,619.333,250.922,617.439Z" transform="translate(-212.952 -561.635)" fill="#fff"/>
      <path id="Trazado_4669" data-name="Trazado 4669" d="M236.386,608.585c.005-3.008.883-5.885,1.5-8.754a3.258,3.258,0,0,1,5.088-2.148c3.314,1.9,6.6,3.842,9.917,5.744a3.514,3.514,0,0,1,1.832,3.653,24.349,24.349,0,0,0,.01,3.267,3.375,3.375,0,0,1-1.769,3.46c-3.287,1.874-6.549,3.789-9.828,5.679-2.373,1.369-4.727.468-5.292-2.187C237.235,614.425,236.381,611.545,236.386,608.585Z" transform="translate(-236.386 -576.06)" fill="#fff"/>
      <path id="Trazado_4670" data-name="Trazado 4670" d="M271.689,600.607a2.9,2.9,0,0,1-1.442,2.652q-5.276,3.085-10.586,6.11a3.143,3.143,0,0,1-3.324-.11c-1.186-.708-2.388-1.388-3.585-2.075a3.332,3.332,0,0,1-1.816-3.029c-.016-3.9-.052-7.8.01-11.692a3.312,3.312,0,0,1,4.448-3.23,33.065,33.065,0,0,1,15.026,8.71,12.951,12.951,0,0,1,1.542,2.493Z" transform="translate(-212.956 -589.053)" fill="#fff"/>
      <path id="Trazado_4671" data-name="Trazado 4671" d="M260.584,617.514c0,1.894.029,3.789-.005,5.684-.05,2.645-1.91,4.045-4.474,3.4a32.337,32.337,0,0,1-15.123-8.75,3.263,3.263,0,0,1,.614-5.446c3.405-2.038,6.855-4,10.307-5.956a3.2,3.2,0,0,1,3.327.173c1.165.666,2.331,1.338,3.507,1.983a3.269,3.269,0,0,1,1.834,3.008c.018,1.968.005,3.935.005,5.9Z" transform="translate(-230.892 -561.655)" fill="#fff"/>
      <path id="Trazado_4672" data-name="Trazado 4672" d="M260.578,598.363c0,1.858-.024,3.716.005,5.574a3.547,3.547,0,0,1-2.077,3.423c-1.058.565-2.106,1.15-3.115,1.8a3.42,3.42,0,0,1-3.81.092c-3.374-1.942-6.755-3.868-10.1-5.854a3.2,3.2,0,0,1-.7-5.127,32.844,32.844,0,0,1,15.653-9.084,3.219,3.219,0,0,1,4.1,3.066c.089,2.036.018,4.077.018,6.115Z" transform="translate(-230.887 -589.065)" fill="#fff"/>
    </g>
    <path id="Trazado_4673" data-name="Trazado 4673" d="M255.513,617.96a10.157,10.157,0,1,1,10.249-10.074A10.139,10.139,0,0,1,255.513,617.96Zm.063-15.58a5.451,5.451,0,1,0,5.464,5.462A5.427,5.427,0,0,0,255.576,602.38Z" transform="translate(575.425 3637.189)" fill="#0090f2"/>
  </g>
</svg>
