<svg xmlns="http://www.w3.org/2000/svg" width="42.411" height="42.405" viewBox="0 0 42.411 42.405">
  <g id="icon_instagram" transform="translate(-1398.082 -7535.622)">
    <g id="Group_49" data-name="Group 49">
      <g id="Group_48" data-name="Group 48">
        <path id="Path_24" data-name="Path 24" d="M1429.648,7578.027h-20.7c-.134-.025-.267-.058-.4-.073a10.451,10.451,0,0,1-3.344-.881c-4.553-2.154-7.008-5.759-7.078-10.8-.088-6.292-.024-12.586-.019-18.878a11.125,11.125,0,0,1,1.487-5.739,11.5,11.5,0,0,1,10.435-6.014c6.181-.034,12.362-.016,18.544,0a11.25,11.25,0,0,1,2.384.215,11.5,11.5,0,0,1,9.186,8.717c.173.62.235,1.27.348,1.9v20.7c-.069.433-.114.871-.21,1.3a11.554,11.554,0,0,1-8.733,9.2C1430.931,7577.851,1430.283,7577.914,1429.648,7578.027Zm-10.317-38.636q-4.614,0-9.228,0a8.432,8.432,0,0,0-2.847.43,7.926,7.926,0,0,0-5.389,7.735c-.01,6.181-.02,12.363.017,18.544a8.9,8.9,0,0,0,.431,2.757,7.829,7.829,0,0,0,7.7,5.407c6.18.012,12.36.021,18.54-.016a8.917,8.917,0,0,0,2.758-.427,7.8,7.8,0,0,0,5.412-7.658q.033-9.335,0-18.668a7.826,7.826,0,0,0-3.388-6.654,7.983,7.983,0,0,0-4.825-1.453Q1423.925,7539.4,1419.331,7539.391Z" fill="#fff"/>
        <path id="Path_25" data-name="Path 25" d="M1430.223,7556.833a10.923,10.923,0,1,1-10.93-10.929A10.971,10.971,0,0,1,1430.223,7556.833Zm-10.943-7.16a7.157,7.157,0,1,0,7.175,7.137A7.164,7.164,0,0,0,1419.28,7549.673Z" fill="#fff"/>
        <path id="Path_26" data-name="Path 26" d="M1430.7,7548.224a2.747,2.747,0,1,1,2.739-2.748A2.775,2.775,0,0,1,1430.7,7548.224Z" fill="#fff"/>
      </g>
    </g>
  </g>
</svg>
