<svg xmlns="http://www.w3.org/2000/svg" width="81.201" height="109.166" viewBox="0 0 81.201 109.166">
  <path id="iconLastMile" d="M232.095,614.932a40.594,40.594,0,0,0-77.7-9.094,41.211,41.211,0,0,0-2.114,24.123A75.269,75.269,0,0,0,161.1,652.22a143.527,143.527,0,0,0,16,22.194A164.116,164.116,0,0,0,192,689.7c.12-.1.23-.183.324-.28a205.959,205.959,0,0,0,22.184-25.573c5.59-7.693,10.61-15.724,14.148-24.59C231.778,631.439,233.466,623.412,232.095,614.932Zm-40.118,28.649a22.8,22.8,0,1,1,22.8-22.8A22.794,22.794,0,0,1,191.976,643.581Z" transform="translate(-151.375 -580.536)" fill="#fff"/>
</svg>
