<svg xmlns="http://www.w3.org/2000/svg" width="166.353" height="166.353" viewBox="0 0 166.353 166.353">
  <g id="iconCommandCenter2" transform="translate(-1356.094 -7211.134)">
    <circle id="Elipse_76" data-name="Elipse 76" cx="83.177" cy="83.177" r="83.177" transform="translate(1356.094 7211.134)" fill="#fff"/>
    <g id="Grupo_1256" data-name="Grupo 1256" transform="translate(1399.006 7246.701)">
      <path id="Trazado_5195" data-name="Trazado 5195" d="M1007.012,779.483a10.944,10.944,0,0,1,15.456,0,.911.911,0,0,0,1.287-1.288,12.765,12.765,0,0,0-18.031,0,.91.91,0,0,0,1.288,1.288Z" transform="translate(-974.476 -774.467)"/>
      <path id="Trazado_5196" data-name="Trazado 5196" d="M1025.471,788.122a.91.91,0,0,0,0-1.288,9.118,9.118,0,0,0-12.879,0,.911.911,0,0,0,1.288,1.288,7.294,7.294,0,0,1,10.3,0A.911.911,0,0,0,1025.471,788.122Z" transform="translate(-978.767 -780.531)"/>
      <path id="Trazado_5197" data-name="Trazado 5197" d="M1019.459,795.473a.911.911,0,0,0,1.288,1.288,3.641,3.641,0,0,1,5.151,0,.911.911,0,1,0,1.288-1.288,5.462,5.462,0,0,0-7.727,0Z" transform="translate(-983.058 -786.592)"/>
      <g id="Grupo_1255" data-name="Grupo 1255" transform="translate(0 14.166)">
        <path id="Trazado_5198" data-name="Trazado 5198" d="M1101.813,865.82V829.983a5.121,5.121,0,0,0-3.094-4.689,92.016,92.016,0,0,0-11.885-4.23,5.1,5.1,0,0,0-6.464,4.914v36.3a5.107,5.107,0,0,0,3.886,4.95,92.024,92.024,0,0,1,10.621,3.343A5.1,5.1,0,0,0,1101.813,865.82Z" transform="translate(-1021.284 -817.629)"/>
        <path id="Trazado_5199" data-name="Trazado 5199" d="M944.318,862.561V826.271a5.1,5.1,0,0,0-6.485-4.908,92.067,92.067,0,0,0-11.885,4.292,5.12,5.12,0,0,0-3.073,4.68v35.817a5.1,5.1,0,0,0,6.956,4.744,92,92,0,0,1,10.621-3.39A5.107,5.107,0,0,0,944.318,862.561Z" transform="translate(-922.876 -817.812)"/>
        <path id="Trazado_5200" data-name="Trazado 5200" d="M1015.305,812.881a93.387,93.387,0,0,0-22.461.047,5.087,5.087,0,0,0-4.443,5.058V854.57a5.1,5.1,0,0,0,5.665,5.063c.955-.105,1.915-.191,2.879-.267a8.625,8.625,0,0,1,14.257-.029c.974.073,1.946.155,2.912.258a5.1,5.1,0,0,0,5.652-5.065v-36.59A5.083,5.083,0,0,0,1015.305,812.881Z" transform="translate(-963.818 -812.226)"/>
      </g>
      <circle id="Elipse_77" data-name="Elipse 77" cx="5.888" cy="5.888" r="5.888" transform="translate(34.376 60.258)" fill="#0090f2"/>
      <path id="Trazado_5201" data-name="Trazado 5201" d="M1026.825,990.4a8.6,8.6,0,0,1-10.145,0V970.316a8.6,8.6,0,0,0,10.145,0Z" transform="translate(-981.488 -896.84)" fill="#0090f2"/>
    </g>
  </g>
</svg>
