<svg xmlns="http://www.w3.org/2000/svg" width="166.678" height="166.678" viewBox="0 0 166.678 166.678">
  <g id="iconLastMile2" transform="translate(-384 -5079)">
    <circle id="Elipse_60" data-name="Elipse 60" cx="83.339" cy="83.339" r="83.339" transform="translate(384 5079)" fill="#fff"/>
    <g id="Grupo_1189" data-name="Grupo 1189" transform="translate(436.355 5110.139)">
      <g id="Grupo_1188" data-name="Grupo 1188" transform="translate(0 15.83)">
        <path id="Trazado_4961" data-name="Trazado 4961" d="M1009.374,830.863a30.978,30.978,0,0,0-59.3-6.94,31.446,31.446,0,0,0-1.614,18.41A57.454,57.454,0,0,0,955.2,859.32a109.537,109.537,0,0,0,12.212,16.937,125.212,125.212,0,0,0,11.368,11.666c.091-.077.174-.139.248-.212a157.325,157.325,0,0,0,16.929-19.517,87.01,87.01,0,0,0,10.8-18.766C1009.134,843.46,1010.421,837.334,1009.374,830.863Zm-30.616,21.863a17.4,17.4,0,1,1,17.4-17.4A17.4,17.4,0,0,1,978.758,852.727Z" transform="translate(-947.773 -804.614)"/>
      </g>
      <path id="Trazado_4962" data-name="Trazado 4962" d="M1009.223,883.533a2.436,2.436,0,0,1-1.492-.509l-6.413-4.946a2.443,2.443,0,1,1,2.984-3.869l4.715,3.636,9.61-9.576a2.443,2.443,0,1,1,3.449,3.462l-11.129,11.09A2.44,2.44,0,0,1,1009.223,883.533Z" transform="translate(-980.597 -828.067)" fill="#0090f2"/>
      <path id="Trazado_4963" data-name="Trazado 4963" d="M1007.015,767.529a10.966,10.966,0,0,1,15.487,0,.912.912,0,1,0,1.29-1.29,12.79,12.79,0,0,0-18.067,0,.912.912,0,0,0,1.29,1.29Z" transform="translate(-983.775 -762.503)"/>
      <path id="Trazado_4964" data-name="Trazado 4964" d="M1025.5,776.167a.912.912,0,0,0,0-1.29,9.136,9.136,0,0,0-12.9,0,.912.912,0,0,0,1.29,1.29,7.308,7.308,0,0,1,10.323,0A.912.912,0,0,0,1025.5,776.167Z" transform="translate(-988.06 -768.56)"/>
      <path id="Trazado_4965" data-name="Trazado 4965" d="M1019.459,783.512a.912.912,0,0,0,1.29,1.29,3.648,3.648,0,0,1,5.161,0,.912.912,0,0,0,1.291-1.29,5.473,5.473,0,0,0-7.742,0Z" transform="translate(-992.346 -774.614)"/>
    </g>
  </g>
</svg>
