<svg xmlns="http://www.w3.org/2000/svg" width="78.083" height="89.72" viewBox="0 0 78.083 89.72">
  <g id="icon_tecnology" transform="translate(-4287.95 -3344.758)">
    <path id="Path_43" data-name="Path 43" d="M4340.007,3399.985q1.029,3.775,2.063,7.572c.382,1.405.78,2.807,1.13,4.22a.693.693,0,0,0,.819.611q3.656-.033,7.311,0a.936.936,0,0,0,.963-.614,7.222,7.222,0,1,1,4.087,9.966,6.866,6.866,0,0,1-4.047-3.595,1.032,1.032,0,0,0-1.083-.671c-3.815.023-7.629.009-11.444,0a2,2,0,0,1-.237-.04c-.074-.232-.168-.5-.243-.77-1-3.653-2-7.3-2.972-10.964-.154-.583-.375-.808-1.008-.793-1.905.046-3.811.017-5.839.017v.8c0,4.636.012,9.272-.015,13.907a1.087,1.087,0,0,0,.724,1.127,6.926,6.926,0,0,1,3.986,6.628,6.74,6.74,0,0,1-4.1,6.313,6.873,6.873,0,0,1-7.8-1,7.188,7.188,0,0,1,1.371-11.922,1.19,1.19,0,0,0,.777-1.252c-.028-4.529-.015-9.059-.015-13.589v-.957h-4.813c-1.795,0-1.8,0-2.263,1.71q-1.37,5.019-2.739,10.04c-.069.253-.147.5-.236.809H4310.4c-2.543,0-5.087.018-7.629-.014a1.071,1.071,0,0,0-1.142.7,7.246,7.246,0,0,1-11.829,1.687,7.329,7.329,0,0,1-1.127-8.085,7.149,7.149,0,0,1,6.679-4.038,7.031,7.031,0,0,1,6.279,4.037,1.031,1.031,0,0,0,1.085.66c2.384-.026,4.769-.032,7.152,0,.57.008.766-.193.9-.715,1.031-3.917,2.093-7.825,3.161-11.793Z" fill="#1e2a35"/>
    <path id="Path_44" data-name="Path 44" d="M4343.374,3366.619c-.871,3.238-1.725,6.406-2.578,9.575-.22.819-.408,1.648-.679,2.449a.868.868,0,0,1-.606.511q-12.677.034-25.353.011a1.226,1.226,0,0,1-.222-.058l-3.372-12.389H4308.2c-1.828,0-3.657.022-5.484-.012a1.039,1.039,0,0,0-1.087.673,7.118,7.118,0,0,1-12.226,1.045,7.242,7.242,0,0,1,1.371-9.91,7.15,7.15,0,0,1,9.6.581,10.078,10.078,0,0,1,1.414,1.993.887.887,0,0,0,.922.527c3.63-.012,7.259.008,10.888-.021.6,0,.866.146,1.027.761.968,3.688,2,7.36,2.974,11.047.157.591.4.795,1.017.781,1.9-.044,3.809-.016,5.828-.016v-.81c0-4.61-.01-9.22.013-13.829a.972.972,0,0,0-.677-1.053,7.254,7.254,0,1,1,6.338.031c-.349.158-.62.276-.617.769.021,4.8.013,9.59.015,14.385a4.5,4.5,0,0,0,.053.451c2.1,0,4.156.019,6.214-.032.188-.005.457-.432.534-.707.992-3.572,1.983-7.145,2.908-10.735.212-.823.52-1.122,1.413-1.106,3.522.061,7.047.016,10.57.034a1.01,1.01,0,0,0,1.1-.645,7.163,7.163,0,0,1,7.833-3.953,7.248,7.248,0,0,1,.836,14.03,7.234,7.234,0,0,1-8.605-3.639,1.118,1.118,0,0,0-1.189-.757C4348.608,3366.643,4346.04,3366.619,4343.374,3366.619Z" fill="#1e2a35"/>
    <path id="Path_45" data-name="Path 45" d="M4288.038,3389.533a7.216,7.216,0,0,1,13.761-3.062.82.82,0,0,0,.89.551q24.315-.015,48.629,0a.908.908,0,0,0,.959-.6A7.213,7.213,0,0,1,4366,3389.37a6.864,6.864,0,0,1-3.984,6.627,6.747,6.747,0,0,1-7.6-.743,12.017,12.017,0,0,1-2.136-2.6c-.25-.35-.415-.579-.9-.579q-24.393.021-48.788,0c-.468,0-.625.2-.8.571a7.222,7.222,0,0,1-13.761-3.108Z" fill="#1e2a35"/>
  </g>
</svg>
