<svg id="icon_UP_azul" xmlns="http://www.w3.org/2000/svg" width="611.375" height="462.001" viewBox="0 0 611.375 462.001">
  <path id="Path_4479" data-name="Path 4479" d="M-308.558-1016.671v63.817A47.353,47.353,0,0,0-304.787-934a48.528,48.528,0,0,0,10.344,15.37,48.482,48.482,0,0,0,15.372,10.344,47.312,47.312,0,0,0,18.851,3.771,47.332,47.332,0,0,0,18.851-3.771A48.542,48.542,0,0,0-226-918.631,48.528,48.528,0,0,0-215.653-934a47.354,47.354,0,0,0,3.769-18.853v-63.817h75.572v63.817a121.367,121.367,0,0,1-9.663,48.325,124.544,124.544,0,0,1-26.517,39.4,124.474,124.474,0,0,1-39.4,26.515,121.375,121.375,0,0,1-48.323,9.665,121.323,121.323,0,0,1-48.322-9.665,124.283,124.283,0,0,1-39.4-26.515,124.37,124.37,0,0,1-26.518-39.4,121.369,121.369,0,0,1-9.665-48.325v-63.817Z" transform="translate(384.128 1111.537)" fill="#1790f2"/>
  <path id="Path_4480" data-name="Path 4480" d="M2593.309,1079.951A170.046,170.046,0,0,0,2423.262,1250c0,1.677.077,3.336.127,5v286.954h86.534V1398.182a170.041,170.041,0,1,0,83.386-318.23Zm0,251.982A81.935,81.935,0,1,1,2675.243,1250,82.027,82.027,0,0,1,2593.309,1331.933Z" transform="translate(-2151.979 -1079.951)" fill="#1790f2"/>
</svg>
