<svg xmlns="http://www.w3.org/2000/svg" width="87.063" height="86.971" viewBox="0 0 87.063 86.971">
  <g id="icon_tools" transform="translate(-4668.71 -3338.107)">
    <path id="Path_39" data-name="Path 39" d="M4745.13,3392.748c-.927-.858-1.814-1.672-2.693-2.493-2.388-2.228-4.782-4.45-7.146-6.7a1.478,1.478,0,0,1-.4-.979c.133-9.276-3.838-16.352-11.832-20.876a22.768,22.768,0,0,0-32.578,13,22.85,22.85,0,0,0,14.592,28.582,23.527,23.527,0,0,0,8.207,1.117,1.075,1.075,0,0,1,.733.25q4.586,4.743,9.135,9.52a2.884,2.884,0,0,1,.213.311c-.366.148-.686.3-1.02.408a2.731,2.731,0,0,0-1.966,2.5c-.247,1.989-.519,3.975-.78,5.962a1.835,1.835,0,0,1-1.908,1.727q-5.44.012-10.88,0a1.879,1.879,0,0,1-1.97-1.86c-.244-1.756-.5-3.514-.649-5.279a3.363,3.363,0,0,0-2.631-3.259,49.53,49.53,0,0,1-5.478-2.25,2.988,2.988,0,0,0-3.5.3c-1.445,1.2-2.965,2.3-4.462,3.434a1.961,1.961,0,0,1-2.949-.194q-3.733-3.741-7.441-7.508a1.831,1.831,0,0,1-.164-2.8c1.174-1.53,2.338-3.069,3.566-4.555a2.721,2.721,0,0,0,.386-3.077c-.9-2.1-1.775-4.213-2.607-6.341a2.955,2.955,0,0,0-2.57-2.022c-1.811-.223-3.62-.463-5.432-.67-1.669-.19-2.2-.759-2.2-2.433q0-4.977,0-9.954c0-1.638.488-2.223,2.113-2.46,2.008-.294,4.021-.561,6.033-.826a2.21,2.21,0,0,0,1.851-1.436c.963-2.3,1.924-4.595,2.861-6.9a2.514,2.514,0,0,0-.428-2.791c-1.257-1.494-2.418-3.07-3.613-4.616a1.94,1.94,0,0,1,.169-2.936q3.608-3.648,7.22-7.292c1.177-1.186,1.9-1.238,3.216-.231,1.452,1.106,2.927,2.185,4.334,3.347a2.955,2.955,0,0,0,3.489.319c1.884-.874,3.813-1.666,5.773-2.352a3.07,3.07,0,0,0,2.3-2.83c.2-1.967.5-3.926.767-5.886a1.809,1.809,0,0,1,1.791-1.6c3.653-.012,7.305-.018,10.957,0a1.9,1.9,0,0,1,2.057,1.859c.272,1.908.559,3.815.752,5.732a2.829,2.829,0,0,0,1.9,2.556c2.139.869,4.268,1.763,6.4,2.652a2.851,2.851,0,0,0,3.1-.432c1.444-1.158,2.909-2.29,4.365-3.433a2.1,2.1,0,0,1,3.256.2q3.633,3.678,7.253,7.37a1.851,1.851,0,0,1,.164,2.853c-1.152,1.482-2.291,2.975-3.483,4.425a2.987,2.987,0,0,0-.368,3.435c.871,1.944,1.7,3.911,2.45,5.9a3.107,3.107,0,0,0,2.781,2.187c1.863.218,3.721.478,5.578.746a2.109,2.109,0,0,1,2.019,2.358q.009,5.055,0,10.108c0,1.529-.569,2.154-2.071,2.337-1.811.221-3.619.472-5.434.657a2.916,2.916,0,0,0-2.762,2.182C4745.412,3392.106,4745.277,3392.382,4745.13,3392.748Z" fill="#1e2a35"/>
    <path id="Path_40" data-name="Path 40" d="M4726.827,3381.926c-.171,1.031-.336,2.382-.642,3.7a1.123,1.123,0,0,0,.363,1.261q8.313,7.884,16.6,15.795c.838.8,1.682,1.591,2.5,2.405a7.225,7.225,0,0,1,.2,10.15,7.075,7.075,0,0,1-10.17.278c-3.186-3.175-6.211-6.511-9.3-9.786q-4.6-4.884-9.182-9.793a.866.866,0,0,0-1-.282,14.247,14.247,0,0,1-14.392-3.589,13.328,13.328,0,0,1-4.087-8.356,33.052,33.052,0,0,1-.026-4.145,1.639,1.639,0,0,1,1.132-1.593,1.679,1.679,0,0,1,1.908.435c1.161,1.166,2.293,2.364,3.5,3.479a5.763,5.763,0,0,0,9.583-2.857,5.614,5.614,0,0,0-1.675-5.558q-1.523-1.533-3.061-3.049a1.937,1.937,0,0,1-.642-2.082c.267-.842.951-1.064,1.73-1.18a14.589,14.589,0,0,1,16.365,11.985C4726.664,3379.955,4726.711,3380.777,4726.827,3381.926Z" fill="#1e2a35"/>
  </g>
</svg>
