<svg xmlns="http://www.w3.org/2000/svg" width="392.087" height="298.721" viewBox="0 0 392.087 298.721">
  <path id="iconU" d="M-16.39-107.585V-8.39a73.29,73.29,0,0,0,5.863,29.281,74.837,74.837,0,0,0,16.055,23.9,74.841,74.841,0,0,0,23.9,16.055A73.293,73.293,0,0,0,58.705,66.7a73.457,73.457,0,0,0,29.315-5.863,74.692,74.692,0,0,0,23.861-16.055,75.49,75.49,0,0,0,16.089-23.9A73.885,73.885,0,0,0,133.834-8.39v-99.195H251.266V-8.39A188.563,188.563,0,0,1,236.233,66.7a193.644,193.644,0,0,1-41.178,61.221A193.872,193.872,0,0,1,133.8,169.138q-35.025,15.033-75.095,15-40.035,0-75.095-15a193.714,193.714,0,0,1-61.221-41.212A193.714,193.714,0,0,1-118.822,66.7a189.132,189.132,0,0,1-15-75.095v-99.195Z" transform="translate(137.321 111.085)" fill="none" stroke="#d0d0d0" stroke-width="7" opacity="0.406"/>
</svg>
