<svg xmlns="http://www.w3.org/2000/svg" width="277.274" height="364.736" viewBox="0 0 277.274 364.736">
  <path id="iconD" d="M-23.815-107.585v92.922a68.655,68.655,0,0,0,5.493,27.43A70.1,70.1,0,0,0-3.283,35.151,70.109,70.109,0,0,0,19.1,50.191a68.659,68.659,0,0,0,27.429,5.492,68.812,68.812,0,0,0,27.462-5.492,69.97,69.97,0,0,0,22.353-15.04,70.718,70.718,0,0,0,15.072-22.384,69.212,69.212,0,0,0,5.492-27.43v-92.922H226.914v92.922a176.639,176.639,0,0,1-14.082,70.346,181.4,181.4,0,0,1-38.574,57.35,181.613,181.613,0,0,1-57.382,38.606,176.5,176.5,0,0,1-70.346,14.05,176.615,176.615,0,0,1-70.346-14.05,181.464,181.464,0,0,1-57.35-38.606,181.464,181.464,0,0,1-38.606-57.35,177.172,177.172,0,0,1-14.05-70.346v-92.922Z" transform="translate(109.585 228.914) rotate(-90)" fill="none" stroke="#ddd" stroke-width="4"/>
</svg>
