<svg xmlns="http://www.w3.org/2000/svg" width="173.034" height="172.853" viewBox="0 0 173.034 172.853">
  <g id="icon_integra" transform="translate(-4300.264 -2984.996)">
    <path id="Path_41" data-name="Path 41" d="M4452.147,3093.593c-1.844-1.705-3.6-3.322-5.353-4.954-4.746-4.429-9.5-8.845-14.2-13.324a2.922,2.922,0,0,1-.789-1.946c.264-18.435-7.628-32.5-23.516-41.49-13.016-7.367-26.87-7.644-40.546-1.414-12.015,5.474-20.3,14.671-24.2,27.246-4.461,14.366-2.379,28,6.509,40.33a44.165,44.165,0,0,0,22.492,16.477,46.766,46.766,0,0,0,16.312,2.22,2.127,2.127,0,0,1,1.456.5q9.114,9.426,18.155,18.921a5.56,5.56,0,0,1,.425.617c-.729.3-1.364.6-2.028.812a5.425,5.425,0,0,0-3.907,4.97c-.49,3.953-1.033,7.9-1.55,11.849a3.647,3.647,0,0,1-3.793,3.433q-10.811.024-21.622,0c-2.214,0-3.579-1.268-3.916-3.7-.485-3.49-.995-6.983-1.29-10.492-.288-3.424-1.861-5.409-5.229-6.478a98.226,98.226,0,0,1-10.887-4.472c-2.509-1.142-4.695-1.268-6.955.6-2.871,2.377-5.892,4.575-8.868,6.825-2.161,1.634-3.948,1.532-5.861-.385q-7.42-7.436-14.789-14.922c-1.846-1.875-1.935-3.468-.325-5.565,2.334-3.04,4.646-6.1,7.087-9.053a5.41,5.41,0,0,0,.766-6.116c-1.778-4.179-3.527-8.372-5.181-12.6a5.869,5.869,0,0,0-5.107-4.02c-3.6-.444-7.194-.92-10.8-1.331-3.316-.379-4.371-1.508-4.371-4.836q0-9.891,0-19.783c0-3.255.97-4.418,4.2-4.89,3.991-.584,7.991-1.114,11.99-1.641a4.387,4.387,0,0,0,3.679-2.855c1.914-4.565,3.824-9.131,5.686-13.718a5,5,0,0,0-.851-5.547c-2.5-2.97-4.805-6.1-7.18-9.174-1.667-2.156-1.565-3.913.336-5.835q7.168-7.252,14.35-14.493c2.338-2.357,3.765-2.462,6.391-.46,2.886,2.2,5.818,4.344,8.614,6.652,2.238,1.849,4.381,1.819,6.935.635,3.743-1.737,7.578-3.312,11.472-4.675,2.811-.985,4.273-2.671,4.579-5.625.405-3.91.989-7.8,1.525-11.7a3.6,3.6,0,0,1,3.561-3.172c7.258-.025,14.517-.037,21.775.006,2.415.015,3.743,1.261,4.089,3.7.539,3.792,1.111,7.583,1.5,11.392a5.619,5.619,0,0,0,3.768,5.08c4.251,1.728,8.482,3.5,12.717,5.272a5.669,5.669,0,0,0,6.163-.859c2.87-2.3,5.781-4.553,8.677-6.823,2.44-1.914,4.288-1.815,6.471.4q7.219,7.311,14.413,14.647c1.9,1.94,1.993,3.527.327,5.67-2.29,2.945-4.553,5.913-6.922,8.794-1.778,2.163-1.851,4.334-.732,6.828,1.732,3.863,3.376,7.773,4.87,11.733a6.175,6.175,0,0,0,5.527,4.346c3.7.432,7.4.95,11.085,1.483,2.725.394,4.008,1.915,4.013,4.687q.018,10.044,0,20.089c0,3.038-1.13,4.28-4.116,4.644-3.6.438-7.193.937-10.8,1.306a5.794,5.794,0,0,0-5.489,4.336C4452.708,3092.318,4452.439,3092.867,4452.147,3093.593Z" fill="#1e2a35"/>
    <path id="Path_42" data-name="Path 42" d="M4415.77,3072.084c-.341,2.051-.668,4.736-1.276,7.355a2.234,2.234,0,0,0,.721,2.506q16.524,15.669,32.993,31.393c1.665,1.586,3.342,3.162,4.976,4.78a14.358,14.358,0,0,1,.389,20.173,14.062,14.062,0,0,1-20.211.551c-6.332-6.31-12.345-12.941-18.479-19.448q-9.149-9.708-18.249-19.463a1.717,1.717,0,0,0-1.979-.561c-10.866,2.982-20.48.573-28.6-7.134a26.484,26.484,0,0,1-8.123-16.606,65.569,65.569,0,0,1-.051-8.239,3.256,3.256,0,0,1,2.25-3.167,3.338,3.338,0,0,1,3.791.865c2.307,2.318,4.558,4.7,6.961,6.916a11.455,11.455,0,0,0,19.046-5.678c1.048-4.277-.262-7.959-3.33-11.048q-3.026-3.045-6.084-6.059a3.85,3.85,0,0,1-1.275-4.139c.531-1.672,1.89-2.114,3.438-2.346,15.262-2.286,30.194,8.631,32.525,23.822C4415.447,3068.167,4415.539,3069.8,4415.77,3072.084Z" fill="#1e2a35"/>
  </g>
</svg>
