<svg xmlns="http://www.w3.org/2000/svg" width="15.363" height="14.314" viewBox="0 0 15.363 14.314">
  <g id="icon_home" transform="translate(-1711.163 -85.139)">
    <g id="Group_156" data-name="Group 156">
      <path id="Path_289" data-name="Path 289" d="M1718.848,99.453h-7.242c-.334,0-.439-.1-.439-.432,0-3.053,0-5.737,0-8.789a.458.458,0,0,1,.236-.431q3.6-2.283,7.188-4.575a.426.426,0,0,1,.511,0q3.609,2.3,7.222,4.6a.408.408,0,0,1,.206.379c0,3.07,0,5.772,0,8.842,0,.3-.114.411-.42.411Z" fill="#fff"/>
    </g>
  </g>
</svg>
