<svg xmlns="http://www.w3.org/2000/svg" width="269.676" height="506.759" viewBox="0 0 269.676 506.759">
  <g id="iconUpp" transform="translate(-346 -932.051)">
    <path id="Trazado_4023" data-name="Trazado 4023" d="M-351.013-1016.67v27.965a20.749,20.749,0,0,0,1.653,8.261,21.263,21.263,0,0,0,4.533,6.735,21.243,21.243,0,0,0,6.736,4.533,20.731,20.731,0,0,0,8.261,1.652,20.74,20.74,0,0,0,8.26-1.652,21.27,21.27,0,0,0,6.736-4.533,21.264,21.264,0,0,0,4.533-6.735,20.751,20.751,0,0,0,1.652-8.261v-27.965h33.116v27.965a53.186,53.186,0,0,1-4.234,21.177,54.577,54.577,0,0,1-11.62,17.267,54.549,54.549,0,0,1-17.267,11.619,53.188,53.188,0,0,1-21.176,4.235,53.165,53.165,0,0,1-21.175-4.235,54.464,54.464,0,0,1-17.267-11.619,54.5,54.5,0,0,1-11.621-17.267,53.186,53.186,0,0,1-4.235-21.177v-27.965Z" transform="translate(730.128 2171.16)" fill="#0090f2" opacity="0.548"/>
    <path id="Trazado_4025" data-name="Trazado 4025" d="M-351.013-1016.67v27.965a20.749,20.749,0,0,0,1.653,8.261,21.263,21.263,0,0,0,4.533,6.735,21.243,21.243,0,0,0,6.736,4.533,20.731,20.731,0,0,0,8.261,1.652,20.74,20.74,0,0,0,8.26-1.652,21.27,21.27,0,0,0,6.736-4.533,21.264,21.264,0,0,0,4.533-6.735,20.751,20.751,0,0,0,1.652-8.261v-27.965h33.116v27.965a53.186,53.186,0,0,1-4.234,21.177,54.577,54.577,0,0,1-11.62,17.267,54.549,54.549,0,0,1-17.267,11.619,53.188,53.188,0,0,1-21.176,4.235,53.165,53.165,0,0,1-21.175-4.235,54.464,54.464,0,0,1-17.267-11.619,54.5,54.5,0,0,1-11.621-17.267,53.186,53.186,0,0,1-4.235-21.177v-27.965Z" transform="translate(731.895 2294.598)" fill="#e6e6e6"/>
    <path id="Trazado_4026" data-name="Trazado 4026" d="M2497.778,1079.951a74.515,74.515,0,0,0-74.516,74.516c0,.735.034,1.462.056,2.191V1282.4h37.919v-63a74.513,74.513,0,1,0,36.541-139.451Zm0,110.42a35.9,35.9,0,1,1,35.9-35.9A35.945,35.945,0,0,1,2497.778,1190.371Z" transform="translate(-1956.617 156.406)" fill="#e6e6e6"/>
    <path id="Trazado_4022" data-name="Trazado 4022" d="M-351.013-1016.67v27.965a20.749,20.749,0,0,0,1.653,8.261,21.263,21.263,0,0,0,4.533,6.735,21.243,21.243,0,0,0,6.736,4.533,20.731,20.731,0,0,0,8.261,1.652,20.74,20.74,0,0,0,8.26-1.652,21.27,21.27,0,0,0,6.736-4.533,21.264,21.264,0,0,0,4.533-6.735,20.751,20.751,0,0,0,1.652-8.261v-27.965h33.116v27.965a53.186,53.186,0,0,1-4.234,21.177,54.577,54.577,0,0,1-11.62,17.267,54.549,54.549,0,0,1-17.267,11.619,53.188,53.188,0,0,1-21.176,4.235,53.165,53.165,0,0,1-21.175-4.235,54.464,54.464,0,0,1-17.267-11.619,54.5,54.5,0,0,1-11.621-17.267,53.186,53.186,0,0,1-4.235-21.177v-27.965Z" transform="translate(730.128 2060.482)" fill="#0090f2" opacity="0.777"/>
    <path id="Trazado_4021" data-name="Trazado 4021" d="M-351.013-1016.67v27.965a20.749,20.749,0,0,0,1.653,8.261,21.263,21.263,0,0,0,4.533,6.735,21.243,21.243,0,0,0,6.736,4.533,20.731,20.731,0,0,0,8.261,1.652,20.74,20.74,0,0,0,8.26-1.652,21.27,21.27,0,0,0,6.736-4.533,21.264,21.264,0,0,0,4.533-6.735,20.751,20.751,0,0,0,1.652-8.261v-27.965h33.116v27.965a53.186,53.186,0,0,1-4.234,21.177,54.577,54.577,0,0,1-11.62,17.267,54.549,54.549,0,0,1-17.267,11.619,53.188,53.188,0,0,1-21.176,4.235,53.165,53.165,0,0,1-21.175-4.235,54.464,54.464,0,0,1-17.267-11.619,54.5,54.5,0,0,1-11.621-17.267,53.186,53.186,0,0,1-4.235-21.177v-27.965Z" transform="translate(730.128 1948.721)" fill="#0090f2"/>
  </g>
</svg>
