<svg xmlns="http://www.w3.org/2000/svg" xmlns:xlink="http://www.w3.org/1999/xlink"  viewBox="0 0 33.14 17.929">
  <defs>
    <linearGradient id="linear-gradient" x1="-15.087" y1="400.949" x2="-14.222" y2="400.949" gradientUnits="objectBoundingBox">
      <stop offset="0" stop-color="#3b4a72"/>
      <stop offset="0.123" stop-color="#3e5072"/>
      <stop offset="0.297" stop-color="#486272"/>
      <stop offset="0.5" stop-color="#598173"/>
      <stop offset="0.725" stop-color="#70aa74"/>
      <stop offset="0.967" stop-color="#8de075"/>
      <stop offset="1" stop-color="#92e876"/>
    </linearGradient>
  </defs>
  <path id="icon_ul_check2" d="M8241.172,2028.287v.018c.08.027.162.046.242.071.021.006.042.011.062.018.228.067.455.126.687.177.079.017.159.035.239.05.2.038.4.067.6.092.082.01.162.023.244.03.278.027.56.043.847.043h8.922v.029h5.722v-.029h.595a8.95,8.95,0,1,0,0-17.9h-15.267c-.17,0-.338.016-.506.026.166-.014.337-.025.5-.026h-.025a5.328,5.328,0,0,0-.689.038,8.939,8.939,0,0,0-2.172,17.363Zm2.946-11.312h15.295a2.842,2.842,0,0,1,2.8,2.861,2.9,2.9,0,0,1-2.889,2.889h-15.295a2.84,2.84,0,0,1-2.8-2.861A2.9,2.9,0,0,1,8244.118,2016.975Z" transform="translate(-8235.139 -2010.886)" fill-rule="evenodd" fill="url(#linear-gradient)"/>
</svg>
