<svg xmlns="http://www.w3.org/2000/svg" width="166.877" height="166.877" viewBox="0 0 166.877 166.877">
  <g id="iconYardManagement2" transform="translate(-383.707 -6490)">
    <circle id="Elipse_78" data-name="Elipse 78" cx="83.438" cy="83.438" r="83.438" transform="translate(383.707 6490)" fill="#fff"/>
    <g id="Grupo_1269" data-name="Grupo 1269" transform="translate(442.55 6524.593)">
      <g id="Grupo_1267" data-name="Grupo 1267" transform="translate(9.817 58.3)">
        <path id="Trazado_5213" data-name="Trazado 5213" d="M1030.2,959.256" transform="translate(-1015.422 -946.926)" fill="none" stroke="#000" stroke-linecap="round" stroke-linejoin="round" stroke-width="9.291"/>
        <path id="Trazado_5214" data-name="Trazado 5214" d="M1005.709,965.885a14.8,14.8,0,0,1-14.779-14.779,2.5,2.5,0,1,1,4.995,0,9.784,9.784,0,1,0,9.785-9.784,2.5,2.5,0,0,1-2.5-2.5v-9.832a2.5,2.5,0,0,1,4.995,0v7.546a14.78,14.78,0,0,1-2.5,29.347Z" transform="translate(-990.93 -926.494)" fill="#0090f2"/>
      </g>
      <path id="Trazado_5215" data-name="Trazado 5215" d="M1030.2,836.837" transform="translate(-1005.605 -812.279)" fill="none" stroke="#000" stroke-linecap="round" stroke-linejoin="round" stroke-width="11.572"/>
      <path id="Trazado_5216" data-name="Trazado 5216" d="M1030.2,836.837" transform="translate(-1005.605 -812.279)" fill="none" stroke="#000" stroke-linecap="round" stroke-linejoin="round" stroke-width="11.572"/>
      <g id="Grupo_1268" data-name="Grupo 1268" transform="translate(0 14.867)">
        <path id="Trazado_5217" data-name="Trazado 5217" d="M989.442,811.087a24.6,24.6,0,1,0,24.6,24.6A24.6,24.6,0,0,0,989.442,811.087Zm0,39.054a14.458,14.458,0,1,1,14.458-14.458A14.458,14.458,0,0,1,989.442,850.141Z" transform="translate(-964.846 -811.087)"/>
        <circle id="Elipse_79" data-name="Elipse 79" cx="10.867" cy="10.867" r="10.867" transform="translate(13.729 13.729)"/>
      </g>
      <path id="Trazado_5218" data-name="Trazado 5218" d="M1007.017,776.615a10.98,10.98,0,0,1,15.505,0,.913.913,0,1,0,1.292-1.292,12.8,12.8,0,0,0-18.088,0,.913.913,0,0,0,1.292,1.292Z" transform="translate(-990.174 -771.583)"/>
      <path id="Trazado_5219" data-name="Trazado 5219" d="M1025.512,785.251a.913.913,0,0,0,0-1.292,9.147,9.147,0,0,0-12.92,0,.913.913,0,1,0,1.292,1.292,7.317,7.317,0,0,1,10.336,0A.914.914,0,0,0,1025.512,785.251Z" transform="translate(-994.457 -777.636)"/>
      <path id="Trazado_5220" data-name="Trazado 5220" d="M1019.46,792.595a.914.914,0,0,0,1.292,1.292,3.652,3.652,0,0,1,5.167,0,.914.914,0,1,0,1.292-1.292,5.48,5.48,0,0,0-7.751,0Z" transform="translate(-998.739 -783.685)"/>
    </g>
  </g>
</svg>
