<svg xmlns="http://www.w3.org/2000/svg" viewBox="0 0 38.15 45.27"><defs><style>.cls-1{fill:#ed1c24;}</style></defs><title>isodk</title><g id="Layer_2" data-name="Layer 2"><g id="Capa_1" data-name="Capa 1"><g id="_Group_" data-name="&lt;Group&gt;"><path id="_Path_" data-name="&lt;Path&gt;" class="cls-1" d="M34.3,23.73c-3.53,0-34.3-.06-34.3,2.13,0,4.94,12.57-.74,14.54,2.48,1.2,2-8.48,16.93-3.66,16.93.43-.31,6.6-6.89,7.61-9,1-.37,8.23,9,8.79,9,4.82,0-4.86-15-3.66-16.93C23,29.29,47.35,23.73,34.3,23.73Z"/><path id="_Compound_Path_" data-name="&lt;Compound Path&gt;" class="cls-1" d="M30.37.6C17.41-2.22-12.62,5,11.48,21,24.48,29.6,39.85,11.46,30.37.6Zm.55,7.33C25.59,32.52,4.25,10.8,7.34,6.12,8.59,4.22,31.8,3.87,30.92,7.93Z"/></g></g></g></svg>