<?xml version="1.0" encoding="UTF-8"?> <svg xmlns="http://www.w3.org/2000/svg" xmlns:xlink="http://www.w3.org/1999/xlink" viewBox="0 0 349.95 277.41"><defs><style>.cls-1{fill-rule:evenodd;fill:url(#Degradado_sin_nombre_52);}.cls-2{fill:url(#Degradado_sin_nombre_52-2);}</style><linearGradient id="Degradado_sin_nombre_52" x1="12408.09" y1="10460.45" x2="12600.29" y2="10460.45" gradientTransform="translate(12600.29 10641.73) rotate(180)" gradientUnits="userSpaceOnUse"><stop offset="0" stop-color="#3b4a72"></stop><stop offset="0.12" stop-color="#3f5172"></stop><stop offset="0.3" stop-color="#496373"></stop><stop offset="0.5" stop-color="#598173"></stop><stop offset="0.73" stop-color="#70ab74"></stop><stop offset="0.97" stop-color="#8ee076"></stop><stop offset="1" stop-color="#92e876"></stop></linearGradient><linearGradient id="Degradado_sin_nombre_52-2" x1="12292.35" y1="10471.34" x2="12569.76" y2="10471.34" gradientTransform="translate(12686.01 10610.04) rotate(180)" xlink:href="#Degradado_sin_nombre_52"></linearGradient></defs><g id="Layer_2" data-name="Layer 2"><g id="Capa_1" data-name="Capa 1"><path class="cls-1" d="M6,171.38l-.08.08c.25.51.54,1,.81,1.48l.21.39c.75,1.39,1.56,2.75,2.41,4.09.29.46.59.92.9,1.37.75,1.11,1.56,2.2,2.4,3.27.34.44.66.88,1,1.3,1.19,1.45,2.45,2.86,3.81,4.22L30.92,201,59.81,229.9l-.14.13,27.14,27.14.13-.13,2.82,2.82A60,60,0,0,0,174.67,175l-14.51-14.5-57.77-57.77c0-.05-.1-.09-.15-.14l0,0c-.82-.81-1.68-1.53-2.53-2.28.86.72,1.72,1.48,2.51,2.26a1.42,1.42,0,0,0-.12-.13,34.91,34.91,0,0,0-3.44-3.09A60,60,0,0,0,6,171.38ZM73.64,131.7,145.92,204l.27.27a19.07,19.07,0,0,1-.27,26.87,19.47,19.47,0,0,1-27.41,0L46.24,158.83l-.27-.26a19.07,19.07,0,0,1,.27-26.87A19.44,19.44,0,0,1,73.64,131.7Z"></path><path id="Rectangle-Copy-6" class="cls-2" d="M90.07,259.88a60.17,60.17,0,0,1,0-84.9L247.52,17.53a60,60,0,0,1,84.9,84.9L175,259.88A60.18,60.18,0,0,1,90.07,259.88Zm28.75-29a19,19,0,0,0,26.87.27l.27-.27L303.41,73.42a19.47,19.47,0,0,0,0-27.41,19.07,19.07,0,0,0-26.87-.27l-.27.27L118.82,203.46A19.46,19.46,0,0,0,118.82,230.86Z"></path></g></g></svg> 