<svg xmlns="http://www.w3.org/2000/svg" width="81.201" height="133.462" viewBox="0 0 81.201 133.462">
  <g id="lastmile_icon" transform="translate(-565.449 -4165.824)">
    <path id="iconLastMile" d="M232.095,614.932a40.594,40.594,0,0,0-77.7-9.094,41.211,41.211,0,0,0-2.114,24.123A75.269,75.269,0,0,0,161.1,652.22a143.527,143.527,0,0,0,16,22.194A164.116,164.116,0,0,0,192,689.7c.12-.1.23-.183.324-.28a205.959,205.959,0,0,0,22.184-25.573c5.59-7.693,10.61-15.724,14.148-24.59C231.778,631.439,233.466,623.412,232.095,614.932Zm-40.118,28.649a22.8,22.8,0,1,1,22.8-22.8A22.794,22.794,0,0,1,191.976,643.581Z" transform="translate(414.073 3609.585)" fill="#fff"/>
    <path id="Trazado_4609" data-name="Trazado 4609" d="M162.514,601.675l8.4,6.481L185.5,593.625" transform="translate(432.042 3630.701)" fill="none" stroke="#0090f2" stroke-linecap="round" stroke-linejoin="round" stroke-width="7.45"/>
    <path id="Trazado_4610" data-name="Trazado 4610" d="M164.289,577.823a14.368,14.368,0,0,1,20.292,0,1.194,1.194,0,0,0,1.691,0,1.2,1.2,0,0,0,0-1.691,16.759,16.759,0,0,0-23.673,0,1.195,1.195,0,1,0,1.691,1.688Z" transform="translate(431.613 3594.586)" fill="#c8c8c8"/>
    <path id="Trazado_4611" data-name="Trazado 4611" d="M180.8,578.253a1.2,1.2,0,0,0,0-1.691,11.976,11.976,0,0,0-16.91,0,1.2,1.2,0,0,0,1.691,1.691,9.579,9.579,0,0,1,13.529,0A1.194,1.194,0,0,0,180.8,578.253Z" transform="translate(433.702 3597.537)" fill="#c8c8c8"/>
    <path id="Trazado_4612" data-name="Trazado 4612" d="M165.188,577a1.2,1.2,0,0,0,1.691,1.691,4.781,4.781,0,0,1,6.763,0A1.195,1.195,0,1,0,175.33,577a7.17,7.17,0,0,0-10.142,0Z" transform="translate(435.79 3600.486)" fill="#c8c8c8"/>
  </g>
</svg>
