<?xml version="1.0" encoding="utf-8"?>
<!-- Generator: Adobe Illustrator 23.0.6, SVG Export Plug-In . SVG Version: 6.00 Build 0)  -->
<svg version="1.1" id="Layer_1" xmlns="http://www.w3.org/2000/svg" xmlns:xlink="http://www.w3.org/1999/xlink" x="0px" y="0px"
	 viewBox="0 0 255.7 255.7" style="enable-background:new 0 0 255.7 255.7;" xml:space="preserve">
<style type="text/css">
	.st0{fill:#FFFFFF;}
</style>
<title>linkedin</title>
<g id="b605ca5a-117d-4897-90e9-802eb3951490">
	<g id="b9e8fa82-cf84-47cf-bb88-776d29b643bf">
		<path class="st0" d="M127.8,0C57.2,0,0,57.2,0,127.8s57.2,127.8,127.8,127.8s127.8-57.2,127.8-127.8c0,0,0,0,0,0
			C255.7,57.2,198.4,0,127.8,0z M90.7,193.2H59.5V99.6h31.1V193.2z M75.1,86.8h-0.2c-10.4,0-17.2-7.2-17.2-16.2
			c0-9.2,7-16.2,17.6-16.2s17.2,7,17.4,16.2C92.7,79.6,86,86.8,75.1,86.8z M203,193.2h-31.2v-50.1c0-12.6-4.5-21.2-15.8-21.2
			c-8.6,0-13.7,5.8-16,11.4c-0.8,2.5-1.1,5-1,7.6v52.3h-31.1c0,0,0.4-84.9,0-93.7h31.1v13.3c4.1-6.4,11.5-15.5,28-15.5
			c20.5,0,35.8,13.4,35.8,42.2L203,193.2z"/>
	</g>
</g>
</svg>
