<svg xmlns="http://www.w3.org/2000/svg" width="99.151" height="98.512" viewBox="0 0 99.151 98.512">
  <g id="loader" transform="translate(-1.331 -0.324)">
    <path fill="white" id="Path_19201" data-name="Path 19201" d="M99.244,46.183A52.289,52.289,0,0,0,91.85,24.149,49.517,49.517,0,0,0,74.134,6.97a21.389,21.389,0,0,0-2.549-1.359l-.369-.179c-.305-.147-.611-.295-.927-.442-.642-.316-1.274-.621-2.012-.906-.537-.19-1.053-.39-1.58-.59a31.517,31.517,0,0,0-4.339-1.4A50.649,50.649,0,0,0,49.666.324,50.206,50.206,0,0,0,25.452,6.517l-1.032.611A34.73,34.73,0,0,0,20.2,9.9c-.263.211-.548.4-.811.6-.558.411-1.106.811-1.654,1.3l-2.559,2.317c-.253.232-.527.474-.811.779L11.317,18.24,9.432,20.768A19.6,19.6,0,0,0,7.9,23.011,48.006,48.006,0,0,0,2.659,63.889l1.116,3.181c.116.295.221.527.327.748l.169.348c.221.453.421.885.632,1.338.379.843.758,1.664,1.222,2.517l2.1,3.5c.474.706.98,1.38,1.475,2.033.253.348.516.685.811,1.1a46.45,46.45,0,0,0,9.237,8.921c.242.169.463.348.7.516a13.854,13.854,0,0,0,1.39.969L25.4,91.189l3.929,1.885a1.586,1.586,0,0,0,2.085-.716,1.56,1.56,0,0,0-.674-2.1l-3.729-1.949-3.349-2.191c-.358-.242-.706-.527-1.064-.811-.232-.211-.485-.39-.748-.611a42.306,42.306,0,0,1-8.11-8.447c-.253-.358-.5-.716-.737-1.064-.432-.632-.864-1.253-1.232-1.854L9.937,70.019c-.358-.737-.685-1.517-1.022-2.307-.179-.463-.379-.927-.569-1.348L8.2,66c-.074-.169-.158-.358-.19-.453l-.937-3.033a42.641,42.641,0,0,1,5.961-36.138,42.174,42.174,0,0,1,35.084-18.2c.463,0,.927,0,1.306.011a42.778,42.778,0,0,1,10.659,1.906,24.432,24.432,0,0,1,3.349,1.222c.548.232,1.085.453,1.538.632.485.221.98.474,1.454.727.305.169.621.327.885.474l.369.179a15.04,15.04,0,0,1,1.875,1.1L71.8,15.891c.432.295.843.632,1.253.958.274.221.516.442.822.674a24.265,24.265,0,0,1,2.781,2.486c.327.327.664.664,1.053,1.011a9.816,9.816,0,0,1,.948,1.074c.221.263.432.527.6.716.221.263.421.516.653.779a11.478,11.478,0,0,1,.906,1.127c.327.506.674,1,1.032,1.5a19.488,19.488,0,0,1,1.675,2.717,41.277,41.277,0,0,1,5.33,18.011,40.062,40.062,0,0,1-2.612,16.42A39.643,39.643,0,0,1,79.052,75.39c-.411.485-.843.927-1.274,1.359-.284.274-.548.558-.779.8a5.147,5.147,0,0,0-.411.421,6.45,6.45,0,0,1-.537.537l-1.085.906c-.295.232-.558.463-.822.685a13.269,13.269,0,0,1-1.138.937l-2.075,1.422a15.864,15.864,0,0,1-2.2,1.327c-.369.211-.737.39-.99.558-.221.105-.411.221-.6.327a5.011,5.011,0,0,1-.716.369L62.19,86.829a6.3,6.3,0,0,0,2.675,12.007,6.2,6.2,0,0,0,2.675-.6l3.929-1.843a14.485,14.485,0,0,0,1.317-.716l.653-.39c.327-.2.674-.4,1.053-.621a27.439,27.439,0,0,0,3.455-2.243L80.369,90.6c.579-.453,1.127-.958,1.685-1.475.263-.242.537-.5.843-.758l1.327-1.19c.284-.284.579-.621.864-.937l.453-.484c.263-.295.537-.59.822-.9a24.471,24.471,0,0,0,1.706-1.991A51.648,51.648,0,0,0,99.244,46.183Z" transform="translate(1.037 0)"/>
  </g>
</svg>
