<svg xmlns="http://www.w3.org/2000/svg" width="524.585" height="90.658" viewBox="0 0 524.585 90.658">
  <g id="logoalto" transform="translate(-174.645 -311.342)">
    <path id="Trazado_21" data-name="Trazado 21" d="M0,0,5.709-16.3,11.423,0ZM-1.421-28.561-18.53,16.623H-5.714l1.983-5.679h18.9l1.967,5.679h13L13.038-28.561Z" transform="translate(300.319 362.087)" fill="#fff"/>
    <path id="Trazado_22" data-name="Trazado 22" d="M0,0H-12.269V45.184H18.185l3.569-11.3H0Z" transform="translate(349.337 333.526)" fill="#fff"/>
    <path id="Trazado_23" data-name="Trazado 23" d="M0,0H12.85V33.9H25.114V0h9.254l3.59-11.288H0Z" transform="translate(370.444 344.814)" fill="#fff"/>
    <path id="Trazado_24" data-name="Trazado 24" d="M0,0A24.984,24.984,0,0,0-.432-2.562l0-.007H-13.812A12.872,12.872,0,0,1-12.549,3.07c0,6.871-4.551,11.684-11.138,11.684S-34.821,9.941-34.821,3.07a12.94,12.94,0,0,1,1.257-5.639h-.056a.354.354,0,0,0,.027-.062l.034.059a10.333,10.333,0,0,1,6.626-5.609,1.1,1.1,0,0,0,.112-.032,12.75,12.75,0,0,1,1.279-.26c.119-.015.232-.034.349-.045a12.339,12.339,0,0,1,1.506-.1,12.335,12.335,0,0,1,1.509.1c.117.011.231.03.35.045a12.73,12.73,0,0,1,1.278.26,1.1,1.1,0,0,0,.112.032,10.333,10.333,0,0,1,6.626,5.609l.029-.059,6.7-11.6C-7.6-14.712-8.143-15.17-8.71-15.6l-.021-.01c-.568-.425-1.141-.826-1.743-1.191-.037-.021-.082-.045-.122-.072-.57-.345-1.156-.674-1.76-.967-.1-.046-.193-.083-.289-.131-.565-.267-1.138-.519-1.729-.742-.17-.063-.345-.119-.514-.178-.539-.185-1.072-.373-1.631-.529-.268-.072-.552-.125-.825-.195-.477-.109-.955-.236-1.445-.318-.411-.079-.846-.122-1.275-.177-.369-.051-.735-.115-1.114-.146-.82-.072-1.655-.112-2.509-.112s-1.686.04-2.5.112c-.38.031-.746.1-1.117.146-.427.055-.861.1-1.273.177-.49.082-.967.209-1.45.318-.268.07-.551.123-.82.195-.559.156-1.092.341-1.627.529-.173.059-.348.115-.518.178-.591.223-1.164.475-1.729.742-.089.048-.193.085-.288.131-.6.293-1.191.622-1.761.967-.04.027-.085.051-.122.072a20.906,20.906,0,0,0-1.729,1.183l-.026.015A22.151,22.151,0,0,0-46.933-2.569v.005A22.421,22.421,0,0,0-47.371,0c-.013.084-.026.164-.037.243A26.756,26.756,0,0,0-47.57,3.07c0,13.521,9.906,23.428,23.883,23.428S.2,16.591.2,3.07A25.975,25.975,0,0,0,.035.243C.027.164.014.084,0,0" transform="translate(459.521 353.051)" fill="#fff"/>
    <path id="Trazado_25" data-name="Trazado 25" d="M0,0A33.724,33.724,0,0,0-33.681,33.687,33.722,33.722,0,0,0,0,67.37,33.722,33.722,0,0,0,33.687,33.687,33.724,33.724,0,0,0,0,0M0,79.017a45.381,45.381,0,0,1-45.324-45.33A45.379,45.379,0,0,1,0-11.641,45.383,45.383,0,0,1,45.333,33.687,45.385,45.385,0,0,1,0,79.017" transform="translate(219.969 322.983)" fill="#fff"/>
    <path id="Trazado_26" data-name="Trazado 26" d="M0,0,21.664-37.534,43.338,0Z" transform="translate(198.306 369.525)" fill="#fff"/>
    <path id="Trazado_27" data-name="Trazado 27" d="M0,0V40.229H-5.158V0H-20.823V-4.9H15.666V0Z" transform="translate(486.661 338.482)" fill="#fff"/>
    <path id="Trazado_28" data-name="Trazado 28" d="M0,0H12.442c6.932,0,10.445-2.772,10.445-8.059,0-5.254-3.643-7.865-10.445-7.865H0ZM28.271-8.059c0,7.8-6.061,12.765-15.7,12.765H11.83L28.044,24.337H21.6L5.706,4.706H0V24.337H-5.189V-20.791h17.7c10.155,0,15.764,4.577,15.764,12.732" transform="translate(518.544 354.374)" fill="#fff"/>
    <path id="Trazado_29" data-name="Trazado 29" d="M0,0-9.187-22.533-18.374,0ZM7.091,17.471,1.966,4.9H-20.373l-5.092,12.572h-5.384l18.536-45.128H-5.9L12.636,17.471Z" transform="translate(585.692 361.24)" fill="#fff"/>
    <path id="Trazado_30" data-name="Trazado 30" d="M0,0-4.32,2.9A16.733,16.733,0,0,0-18.406-4.353C-28.528-4.353-36.264,3-36.264,13.861s7.736,18.212,17.858,18.212A16.477,16.477,0,0,0-4.32,24.853l4.191,3.094C-3.9,33.589-10.6,37.069-18.406,37.069c-13.41,0-23.306-9.67-23.306-23.208s9.9-23.21,23.306-23.21C-10.541-9.349-3.546-5.771,0,0" transform="translate(648.327 342.286)" fill="#fff"/>
    <path id="Trazado_31" data-name="Trazado 31" d="M0,0V20.243H-5.19V-24.885H0V-4.9H5.448L24.176-24.885h6.7L9.67-2.739l22.6,22.982H25.208L5.352,0Z" transform="translate(666.963 358.468)" fill="#fff"/>
  </g>
</svg>
