<svg xmlns="http://www.w3.org/2000/svg" width="196.869" height="55.237" viewBox="0 0 196.869 55.237">
  <g id="logo" transform="translate(0 0)">
    <path id="Trazado_3955" data-name="Trazado 3955" d="M481.226,504.8v7.6a5.641,5.641,0,0,0,.449,2.245,5.751,5.751,0,0,0,3.062,3.062,5.838,5.838,0,0,0,4.489,0,5.751,5.751,0,0,0,3.062-3.062,5.642,5.642,0,0,0,.449-2.245v-7.6h9v7.6a14.452,14.452,0,0,1-1.15,5.754A14.737,14.737,0,0,1,492.734,526a14.956,14.956,0,0,1-11.507,0,14.738,14.738,0,0,1-7.848-7.848,14.452,14.452,0,0,1-1.151-5.754v-7.6Z" transform="translate(-344.257 -484.524)" fill="#1790f2"/>
    <g id="Grupo_920" data-name="Grupo 920" transform="translate(0 20.283)">
      <g id="Grupo_919" data-name="Grupo 919" transform="translate(0 0)">
        <path id="Trazado_3956" data-name="Trazado 3956" d="M191.958,517.895a5.175,5.175,0,0,0-1.712-3.006,4.985,4.985,0,0,0-8.214,3.425v21.461h-8.949V518.594a4.975,4.975,0,0,0-1.5-3.461,4.718,4.718,0,0,0-3.46-1.433,4.916,4.916,0,0,0-3.286,1.188,4.78,4.78,0,0,0-1.678,3.006v21.881h-8.947V518.594a13.107,13.107,0,0,1,1.118-5.383,14.043,14.043,0,0,1,3.006-4.369,14.314,14.314,0,0,1,4.4-2.936,13.467,13.467,0,0,1,5.383-1.084,13.153,13.153,0,0,1,5.138,1.014,14.626,14.626,0,0,1,4.3,2.762,13.582,13.582,0,0,1,4.265-2.762,13.808,13.808,0,0,1,10.556.07,14.319,14.319,0,0,1,4.4,2.936,14.063,14.063,0,0,1,3.006,4.369,13.12,13.12,0,0,1,1.119,5.383v21.181h-8.949Z" transform="translate(-154.209 -504.822)"/>
        <path id="Trazado_3957" data-name="Trazado 3957" d="M298.153,504.822a17.117,17.117,0,0,1,6.816,1.363,17.462,17.462,0,0,1,9.3,9.3,17.718,17.718,0,0,1,0,13.631,17.459,17.459,0,0,1-9.3,9.3,17.717,17.717,0,0,1-13.631,0,17.456,17.456,0,0,1-9.3-9.3,17.718,17.718,0,0,1,0-13.631,17.459,17.459,0,0,1,9.3-9.3A17.111,17.111,0,0,1,298.153,504.822Zm0,26.006a8.593,8.593,0,1,0-3.321-.665A8.429,8.429,0,0,0,298.153,530.828Z" transform="translate(-229.786 -504.822)"/>
        <path id="Trazado_3958" data-name="Trazado 3958" d="M372.747,504.822h9.647l8.179,22.23,8.18-22.23H408.4l-12.863,34.953h-9.927Z" transform="translate(-284.807 -504.822)"/>
      </g>
    </g>
    <rect id="Rectángulo_174" data-name="Rectángulo 174" width="8.957" height="30.394" transform="translate(161.681 24.843)" fill="#1790f2"/>
    <path id="Trazado_3959" data-name="Trazado 3959" d="M573.568,481.968a8.481,8.481,0,1,1-8.481,8.481,8.49,8.49,0,0,1,8.481-8.481m0-9.12a17.6,17.6,0,1,0,17.6,17.6,17.6,17.6,0,0,0-17.6-17.6Z" transform="translate(-394.299 -465.431)" fill="#1790f2"/>
    <g id="Grupo_923" data-name="Grupo 923">
      <g id="Grupo_921" data-name="Grupo 921">
        <path id="Trazado_3960" data-name="Trazado 3960" d="M161.634,469.266a7.425,7.425,0,1,1,7.425-7.425A7.433,7.433,0,0,1,161.634,469.266Zm0-12.943a5.518,5.518,0,1,0,5.518,5.518A5.524,5.524,0,0,0,161.634,456.323Z" transform="translate(-154.209 -454.416)" fill="#bcbcbc"/>
        <path id="Trazado_3961" data-name="Trazado 3961" d="M163.84,468.971l3.549-6.148,3.55,6.148Z" transform="translate(-159.964 -459.44)" fill="#bcbcbc"/>
      </g>
      <g id="Grupo_922" data-name="Grupo 922" transform="translate(17.551 3.496)">
        <path id="Trazado_3962" data-name="Trazado 3962" d="M200.626,463.446l-2.8,7.4h2.1l.325-.931h3.1l.322.931H205.8l-2.8-7.4Zm.233,4.679.936-2.67.936,2.67Z" transform="translate(-197.824 -463.308)" fill="#bcbcbc"/>
        <path id="Trazado_3963" data-name="Trazado 3963" d="M222.338,463.446h-2.009v7.4h4.988L225.9,469h-3.564Z" transform="translate(-211.273 -463.308)" fill="#bcbcbc"/>
        <path id="Trazado_3964" data-name="Trazado 3964" d="M233.914,465.3h2.1v5.552h2.009V465.3h1.517l.588-1.85h-6.218Z" transform="translate(-219.391 -463.308)" fill="#bcbcbc"/>
        <path id="Trazado_3965" data-name="Trazado 3965" d="M258.531,466.019H256.34a2.125,2.125,0,0,1,.206.924,1.826,1.826,0,1,1-1.825-1.914,1.727,1.727,0,0,1,1.618.99l1.1-1.91a3.955,3.955,0,0,0-2.721-1,3.839,3.839,0,1,0,3.913,3.839A4.205,4.205,0,0,0,258.531,466.019Z" transform="translate(-229.488 -463.104)" fill="#bcbcbc"/>
      </g>
    </g>
  </g>
</svg>
