<svg xmlns="http://www.w3.org/2000/svg" viewBox="0 0 226.05 71.89"><defs><style>.cls-1{fill:#aab2b8;}.cls-2{fill:#0077bd;}.cls-3{fill:#ef403d;}</style></defs><title>logoAlto</title><g id="Layer_2" data-name="Layer 2"><g id="Layer_1-2" data-name="Layer 1"><path class="cls-1" d="M35.94,71.89a35.95,35.95,0,1,1,36-35.95A36,36,0,0,1,35.94,71.89Zm0-62.66A26.71,26.71,0,1,0,62.65,35.94,26.74,26.74,0,0,0,35.94,9.23Z"/><polygon class="cls-2" points="18.76 46.14 35.94 16.37 53.13 46.14 18.76 46.14"/><path class="cls-3" d="M98.53,17.59,85,53.42H95.12l1.58-4.5h15l1.56,4.5h10.31L110,17.59Zm1.12,22.65,4.53-12.93,4.53,12.93Z"/><polygon class="cls-3" points="138.53 17.59 128.8 17.59 128.8 53.42 152.94 53.42 155.78 44.46 138.53 44.46 138.53 17.59"/><polygon class="cls-3" points="155.26 26.55 165.45 26.55 165.45 53.42 175.17 53.42 175.17 26.55 182.52 26.55 185.36 17.59 155.26 17.59 155.26 26.55"/><path class="cls-3" d="M225.55,31H215a10.35,10.35,0,0,1,1,4.48c0,5.45-3.6,9.26-8.83,9.26s-8.83-3.81-8.83-9.26,3.61-9.27,8.83-9.27A8.36,8.36,0,0,1,214.94,31l5.34-9.25a19.14,19.14,0,0,0-13.17-4.86c-11.08,0-18.94,7.86-18.94,18.59S196,54.09,207.11,54.09s18.94-7.86,18.94-18.58A20.43,20.43,0,0,0,225.55,31Z"/></g></g></svg>