<svg xmlns="http://www.w3.org/2000/svg" width="557.515" height="237.489" viewBox="0 0 557.515 237.489">
  <g id="logo-blanco" transform="translate(278.758 118.745)">
    <g id="Grupo_3036" data-name="Grupo 3036" transform="translate(-278.758 -118.745)">
      <g id="Grupo_3034" data-name="Grupo 3034" transform="translate(180.04 81.23)">
        <path id="Trazado_2222" data-name="Trazado 2222" d="M41.062,117.75q-6.844-9.438-6.844-29.364a76.265,76.265,0,0,1,3.159-23.6,23.076,23.076,0,0,1,9.477-13.109,31.692,31.692,0,0,1,17.374-4.195A70.272,70.272,0,0,1,87.92,52.205V15.5H99.5V126.664h-10L87.393,118.8a36.906,36.906,0,0,1-11.056,5.768,41.215,41.215,0,0,1-14.215,2.622,24.26,24.26,0,0,1-21.06-9.438Zm35.8-1.573,10.53-4.719V61.119L76.337,57.973,66.86,56.924A22.712,22.712,0,0,0,54.224,60.07a16.258,16.258,0,0,0-6.844,9.438,64.248,64.248,0,0,0-2.106,18.353,43.9,43.9,0,0,0,4.738,23.072A16.876,16.876,0,0,0,65.28,117.75a33.823,33.823,0,0,0,11.583-1.573Z" transform="translate(-34.196 -15.5)" fill="#fff"/>
        <path id="Trazado_2223" data-name="Trazado 2223" d="M63.305,97.769a20.994,20.994,0,0,1-10-12.06,73.655,73.655,0,0,1-3.159-24.12A72.61,72.61,0,0,1,53.3,37.468a20.469,20.469,0,0,1,10-12.06,44.383,44.383,0,0,1,19.48-3.671,51.265,51.265,0,0,1,16.848,2.1A16.832,16.832,0,0,1,109.11,31.7a32.4,32.4,0,0,1,3.159,15.206,16.746,16.746,0,0,1-5.791,14.158,26.407,26.407,0,0,1-16.321,4.195H61.726a51.192,51.192,0,0,0,2.106,15.206,13.641,13.641,0,0,0,6.844,8.914A33.817,33.817,0,0,0,85.418,92H110.69v6.817l-14.215,1.573H82.785A42.278,42.278,0,0,1,63.305,97.769Zm25.8-38.8a15.315,15.315,0,0,0,10-2.622,10.464,10.464,0,0,0,3.159-8.39,17.257,17.257,0,0,0-4.212-13.633,23.239,23.239,0,0,0-14.742-3.671,27.473,27.473,0,0,0-13.162,2.622,13.639,13.639,0,0,0-6.318,8.39,60.071,60.071,0,0,0-2.106,17.3Z" transform="translate(33.591 10.773)" fill="#fff"/>
        <path id="Trazado_2224" data-name="Trazado 2224" d="M65.6,15.6H77.183V79.572H88.239l23.692-30.937h12.109L96.663,84.815,125.62,126.24H113.511l-25.8-36.181H77.183V126.24H65.6Z" transform="translate(99.741 -15.076)" fill="#fff"/>
        <path id="Trazado_2225" data-name="Trazado 2225" d="M83.99,95.706a18.833,18.833,0,0,1-5.265-14.158V76.3a18.841,18.841,0,0,1,6.318-14.682,26.4,26.4,0,0,1,17.9-5.768h26.325V46.416a14.647,14.647,0,0,0-4.212-11.536,24.3,24.3,0,0,0-15.795-3.67H85.043V23.869a169.676,169.676,0,0,1,28.431-2.1,31.155,31.155,0,0,1,20.533,5.768,23.019,23.019,0,0,1,6.844,18.353v54.533H131.9l-2.106-8.914-6.318,3.146-12.109,4.195a47.561,47.561,0,0,1-13.162,2.1A19.526,19.526,0,0,1,83.99,95.706Zm28.957-4.719,10-3.146,5.791-2.1V61.623l-23.692,1.049a17.422,17.422,0,0,0-11.583,3.671A13.078,13.078,0,0,0,89.781,76.3v3.671a11.51,11.51,0,0,0,3.685,9.963,14.781,14.781,0,0,0,9.477,3.146Z" transform="translate(155.587 10.739)" fill="#fff"/>
        <path id="Trazado_2226" data-name="Trazado 2226" d="M94.753,90.591l44.752-59.253H93.7V21.9h59.494v8.914L108.442,90.067h44.752v9.438H94.753Z" transform="translate(219.586 11.659)" fill="#fff"/>
      </g>
      <g id="Grupo_3035" data-name="Grupo 3035" transform="translate(172.642 205.503)">
        <path id="Trazado_2227" data-name="Trazado 2227" d="M37.577,69.714H33.365V67.092h8.95l4.738-1.049a3.664,3.664,0,0,0,1.579-3.671v-2.1q0-4.195-4.738-4.195H40.736a8.977,8.977,0,0,1-5.791-1.573,6.8,6.8,0,0,1-2.106-5.768V47.167A7.324,7.324,0,0,1,34.945,41.4a10.03,10.03,0,0,1,6.318-2.1h8.424v3.671H42.316L37.577,44.02A4.71,4.71,0,0,0,36,47.691v1.573a4.184,4.184,0,0,0,1.053,3.146l3.685,1.049h3.685a7.387,7.387,0,0,1,5.265,2.1A6.8,6.8,0,0,1,51.266,60.8v2.1a6.282,6.282,0,0,1-2.632,5.768,12.678,12.678,0,0,1-6.844,1.573Z" transform="translate(-32.791 -38.777)" fill="#fff"/>
        <path id="Trazado_2228" data-name="Trazado 2228" d="M41.222,61.974a5.78,5.78,0,0,1-3.159-3.146,18.284,18.284,0,0,1-1.053-6.817,18.284,18.284,0,0,1,1.053-6.817,5.78,5.78,0,0,1,3.159-3.146L46.487,41l5.265,1.049a5.78,5.78,0,0,1,3.159,3.146,23.5,23.5,0,0,1,0,13.633,6.305,6.305,0,0,1-3.159,3.146l-5.265,1.049Zm8.95-2.1a4.2,4.2,0,0,0,2.106-2.622,16.192,16.192,0,0,0,.527-5.244,16.715,16.715,0,0,0-.527-5.244,4.2,4.2,0,0,0-2.106-2.622H43.328a4.2,4.2,0,0,0-2.106,2.622,16.715,16.715,0,0,0-.527,5.244,16.715,16.715,0,0,0,.527,5.244,4.2,4.2,0,0,0,2.106,2.622Z" transform="translate(-14.849 -31.562)" fill="#fff"/>
        <path id="Trazado_2229" data-name="Trazado 2229" d="M42.993,68.564a7.843,7.843,0,0,1-1.579-5.244V39.2h3.159V62.8a6.269,6.269,0,0,0,.526,3.671L47.2,67.515h2.632v2.1H47.2A5.281,5.281,0,0,1,42.993,68.564Z" transform="translate(3.913 -39.2)" fill="#fff"/>
        <path id="Trazado_2230" data-name="Trazado 2230" d="M43.421,56.206V41H46.58V55.682a4.706,4.706,0,0,0,1.053,3.671L51.319,60.4h3.159l3.159-1.573V41H60.8V62.5H58.163V59.877A15.312,15.312,0,0,1,49.739,62.5a5.78,5.78,0,0,1-6.318-6.292Z" transform="translate(12.435 -31.562)" fill="#fff"/>
        <path id="Trazado_2231" data-name="Trazado 2231" d="M49.663,60.4a12.545,12.545,0,0,1-2.106-8.39,17.761,17.761,0,0,1,1.053-6.817,6.305,6.305,0,0,1,3.159-3.146L56.508,41h7.371v2.1h-10a4.723,4.723,0,0,0-2.106,2.622,15.671,15.671,0,0,0-.526,5.244,14.1,14.1,0,0,0,.526,5.244,4.723,4.723,0,0,0,2.106,2.622h10v3.146H56.508A8.45,8.45,0,0,1,49.663,60.4Z" transform="translate(29.885 -31.562)" fill="#fff"/>
        <path id="Trazado_2232" data-name="Trazado 2232" d="M51.2,42.746h0V39.6h3.685v3.146H51.2Zm0,4.195h3.159v21.5H51.2Z" transform="translate(45.723 -37.503)" fill="#fff"/>
        <path id="Trazado_2233" data-name="Trazado 2233" d="M56.722,61.974a5.78,5.78,0,0,1-3.159-3.146,18.284,18.284,0,0,1-1.053-6.817,18.284,18.284,0,0,1,1.053-6.817,5.78,5.78,0,0,1,3.159-3.146L61.987,41l5.265,1.049a5.78,5.78,0,0,1,3.159,3.146,23.5,23.5,0,0,1,0,13.633,6.306,6.306,0,0,1-3.159,3.146l-5.265,1.049Zm8.95-2.1a4.2,4.2,0,0,0,2.106-2.622,16.193,16.193,0,0,0,.526-5.244,16.713,16.713,0,0,0-.526-5.244,4.2,4.2,0,0,0-2.106-2.622H58.828a4.2,4.2,0,0,0-2.106,2.622,16.714,16.714,0,0,0-.526,5.244,16.714,16.714,0,0,0,.526,5.244,4.2,4.2,0,0,0,2.106,2.622Z" transform="translate(51.257 -31.562)" fill="#fff"/>
        <path id="Trazado_2234" data-name="Trazado 2234" d="M57.326,41.443h2.632v2.622l3.685-2.1,4.212-1.049a6.331,6.331,0,0,1,5.265,2.1A7.843,7.843,0,0,1,74.7,48.259V62.941H71.542V48.784a4.706,4.706,0,0,0-1.053-3.671A4.218,4.218,0,0,0,67.33,43.54H63.644l-3.685,1.573V61.893H56.8Z" transform="translate(69.607 -32.004)" fill="#fff"/>
        <path id="Trazado_2235" data-name="Trazado 2235" d="M64.7,62.4a5.774,5.774,0,0,1-2.632-3.146,20.9,20.9,0,0,1-1.053-7.341,20.374,20.374,0,0,1,1.053-6.817A5.774,5.774,0,0,1,64.7,41.949L69.961,40.9H74.7A4.735,4.735,0,0,1,77.332,43a8.885,8.885,0,0,1,1.053,4.195,4.709,4.709,0,0,1-1.579,4.195,7.4,7.4,0,0,1-4.738,1.049h-7.9a14.626,14.626,0,0,0,.526,4.195,3.678,3.678,0,0,0,2.106,2.1H77.859V62.4H64.7Zm7.371-11.012H74.7a3.14,3.14,0,0,0,1.053-2.622A4.706,4.706,0,0,0,74.7,45.095l-4.212-1.049H66.8a3.672,3.672,0,0,0-1.579,2.1,16.711,16.711,0,0,0-.527,4.719Z" transform="translate(87.508 -31.986)" fill="#fff"/>
        <path id="Trazado_2236" data-name="Trazado 2236" d="M68.649,62.511H64.963v-2.1H77.073a2.617,2.617,0,0,0,1.053-2.622V56.743q0-3.146-3.685-3.146H71.281a7.923,7.923,0,0,1-4.738-1.049,4.709,4.709,0,0,1-1.58-4.195V47.3a5.231,5.231,0,0,1,1.579-4.719,9.506,9.506,0,0,1,5.791-1.573h7.9v2.1H68.649A3.139,3.139,0,0,0,67.6,45.731V46.78a2.618,2.618,0,0,0,1.053,2.1h6.318a6.862,6.862,0,0,1,4.738,1.573,4.709,4.709,0,0,1,1.579,4.195v1.573a4.713,4.713,0,0,1-2.106,4.195,11.1,11.1,0,0,1-5.791,1.049Z" transform="translate(104.089 -31.574)" fill="#fff"/>
        <path id="Trazado_2237" data-name="Trazado 2237" d="M72.563,60.4a12.545,12.545,0,0,1-2.106-8.39,17.761,17.761,0,0,1,1.053-6.817,6.305,6.305,0,0,1,3.159-3.146L79.408,41h7.371v2.1H76.249a4.723,4.723,0,0,0-2.106,2.622,15.67,15.67,0,0,0-.527,5.244,14.1,14.1,0,0,0,.526,5.244,4.723,4.723,0,0,0,2.106,2.622h10v3.146H78.881A8.45,8.45,0,0,1,72.563,60.4Z" transform="translate(127.553 -31.562)" fill="#fff"/>
        <path id="Trazado_2238" data-name="Trazado 2238" d="M78.022,61.974a5.78,5.78,0,0,1-3.159-3.146,18.286,18.286,0,0,1-1.053-6.817,18.286,18.286,0,0,1,1.053-6.817,5.78,5.78,0,0,1,3.159-3.146L83.287,41l5.265,1.049a5.78,5.78,0,0,1,3.159,3.146,23.5,23.5,0,0,1,0,13.633,6.305,6.305,0,0,1-3.159,3.146l-5.265,1.049Zm8.95-2.1a4.2,4.2,0,0,0,2.106-2.622,16.191,16.191,0,0,0,.526-5.244,16.713,16.713,0,0,0-.526-5.244,4.2,4.2,0,0,0-2.106-2.622H80.128a4.2,4.2,0,0,0-2.106,2.622,16.714,16.714,0,0,0-.526,5.244,16.715,16.715,0,0,0,.526,5.244,4.2,4.2,0,0,0,2.106,2.622h6.844Z" transform="translate(142.101 -31.562)" fill="#fff"/>
        <path id="Trazado_2239" data-name="Trazado 2239" d="M78.2,41.443h2.632v2.622l3.685-2.1,4.212-1.049a6.331,6.331,0,0,1,5.265,2.1,7.844,7.844,0,0,1,1.579,5.244V62.941H92.942V48.784a4.706,4.706,0,0,0-1.053-3.671A4.218,4.218,0,0,0,88.73,43.54H85.044l-3.685,1.573V61.893H78.2Z" transform="translate(160.876 -32.004)" fill="#fff"/>
        <path id="Trazado_2240" data-name="Trazado 2240" d="M84.3,39.408H95.883a8.435,8.435,0,0,1,7.371,3.671A21.424,21.424,0,0,1,105.36,54.09,20.384,20.384,0,0,1,102.727,65.1a8.435,8.435,0,0,1-7.371,3.671H84.3ZM95.883,66.15A5.268,5.268,0,0,0,101.148,63a18.808,18.808,0,0,0,1.58-8.914,28.207,28.207,0,0,0-.527-6.817,6.811,6.811,0,0,0-2.106-3.671l-3.685-1.049h-8.95v24.12Z" transform="translate(186.893 -38.359)" fill="#fff"/>
        <path id="Trazado_2241" data-name="Trazado 2241" d="M89.2,42.746h0V39.6h3.685v3.146H89.2Zm0,4.195h3.159v21.5H89.2Z" transform="translate(207.791 -37.503)" fill="#fff"/>
        <path id="Trazado_2242" data-name="Trazado 2242" d="M94.249,62.511H90.563v-2.1h12.109a2.617,2.617,0,0,0,1.053-2.622V56.743q0-3.146-3.685-3.146H96.881a7.924,7.924,0,0,1-4.738-1.049,4.709,4.709,0,0,1-1.58-4.195V47.3a5.231,5.231,0,0,1,1.579-4.719,9.506,9.506,0,0,1,5.791-1.573h7.9v2.1H94.249A3.14,3.14,0,0,0,93.2,45.731V46.78a2.618,2.618,0,0,0,1.053,2.1h6.318a6.862,6.862,0,0,1,4.738,1.573,4.709,4.709,0,0,1,1.58,4.195v1.573a4.713,4.713,0,0,1-2.106,4.195,11.1,11.1,0,0,1-5.791,1.049Z" transform="translate(213.272 -31.574)" fill="#fff"/>
        <path id="Trazado_2243" data-name="Trazado 2243" d="M97.788,61.974a5.774,5.774,0,0,1-2.633-3.146A20.9,20.9,0,0,1,94.1,52.012a20.374,20.374,0,0,1,1.053-6.817,5.773,5.773,0,0,1,2.632-3.146L103.053,41h4.738a4.735,4.735,0,0,1,2.632,2.1,8.885,8.885,0,0,1,1.053,4.195,4.709,4.709,0,0,1-1.579,4.195,7.4,7.4,0,0,1-4.738,1.049h-7.9a14.626,14.626,0,0,0,.527,4.195,3.678,3.678,0,0,0,2.106,2.1H110.95v3.146H97.788Zm7.371-11.012h2.632a3.14,3.14,0,0,0,1.053-2.622,4.706,4.706,0,0,0-1.053-3.671l-4.212-1.049H99.894a3.672,3.672,0,0,0-1.58,2.1,16.716,16.716,0,0,0-.526,4.719Z" transform="translate(228.687 -31.562)" fill="#fff"/>
        <path id="Trazado_2244" data-name="Trazado 2244" d="M98.2,48.214h2.632v2.622l3.685-2.1,4.212-1.049a6.331,6.331,0,0,1,5.265,2.1,7.843,7.843,0,0,1,1.58,5.244V69.713h-2.632V55.555a4.706,4.706,0,0,0-1.053-3.671,4.218,4.218,0,0,0-3.159-1.573h-3.685l-3.685,1.573V68.664H98.2Zm3.159-7.865,2.633-1.049h1.579l2.106,1.049,1.579,1.049h3.159a2.614,2.614,0,0,0,.526-2.1h1.579a4.706,4.706,0,0,1-1.053,3.146l-2.632,1.049h-1.58l-2.106-1.049-1.58-1.049h-3.159a2.613,2.613,0,0,0-.527,2.1h-1.579a4.184,4.184,0,0,1,1.053-3.146Z" transform="translate(246.175 -38.776)" fill="#fff"/>
        <path id="Trazado_2245" data-name="Trazado 2245" d="M106.522,61.974a5.78,5.78,0,0,1-3.159-3.146,18.285,18.285,0,0,1-1.053-6.817,18.285,18.285,0,0,1,1.053-6.817,5.78,5.78,0,0,1,3.159-3.146L111.787,41l5.265,1.049a5.78,5.78,0,0,1,3.159,3.146,23.505,23.505,0,0,1,0,13.633,6.305,6.305,0,0,1-3.159,3.146l-5.265,1.049Zm8.95-2.1a4.2,4.2,0,0,0,2.106-2.622,16.192,16.192,0,0,0,.526-5.244,16.715,16.715,0,0,0-.526-5.244,4.2,4.2,0,0,0-2.106-2.622h-6.844a4.2,4.2,0,0,0-2.106,2.622A16.714,16.714,0,0,0,106,52.012a16.714,16.714,0,0,0,.526,5.244,4.2,4.2,0,0,0,2.106,2.622Z" transform="translate(263.652 -31.562)" fill="#fff"/>
      </g>
      <g id="_Group_" data-name="&lt;Group&gt;">
        <path id="_Path_" data-name="&lt;Path&gt;" d="M180.588,23.7C162.16,23.7,0,23.7,0,35.236c0,25.694,66.338-3.671,76.342,13.109s-44.226,88.617-18.954,88.617c2.106-1.573,34.749-36.181,40.014-47.192,5.265-2.1,43.173,47.192,46.332,47.192,25.272,0-25.8-78.654-19.48-88.617C121.094,53.064,249.032,23.7,180.588,23.7Z" transform="translate(0 100.528)" fill="#fff"/>
        <path id="_Compound_Path_" data-name="&lt;Compound Path&gt;" d="M149.771,3.109C81.327-11.573-76.622,26.181,50.264,110.079,118.708,155.173,199.788,60.264,149.771,3.109Zm3.159,38.278C124.5,170.38,11.83,56.594,28.151,31.949,35,21.986,157.142,20.413,152.4,41.388Z" transform="translate(10.283 -0.009)" fill="#fff"/>
      </g>
    </g>
  </g>
</svg>
