<svg xmlns="http://www.w3.org/2000/svg" xmlns:xlink="http://www.w3.org/1999/xlink"  viewBox="0 0 339.501 64.486">
  <defs>
    <linearGradient id="linear-gradient" x1="339.544" y1="303.933" x2="340.544" y2="303.933" gradientUnits="objectBoundingBox">
      <stop offset="0" stop-color="#3b4a72"/>
      <stop offset="0.123" stop-color="#3e5072"/>
      <stop offset="0.297" stop-color="#486272"/>
      <stop offset="0.5" stop-color="#598173"/>
      <stop offset="0.725" stop-color="#70aa74"/>
      <stop offset="0.967" stop-color="#8de075"/>
      <stop offset="1" stop-color="#92e876"/>
    </linearGradient>
    <linearGradient id="linear-gradient-2" x1="235.647" y1="210.542" x2="236.647" y2="210.542" xlink:href="#linear-gradient"/>
  </defs>
  <g id="logo_altocheck" transform="translate(-67.751 -61.876)">
    <path id="Path_22" data-name="Path 22" d="M330.589,102.726l-.019.019c.056.113.122.22.181.33.015.029.031.057.046.085q.254.466.538.913c.066.1.132.2.2.305.169.249.349.491.535.73.076.1.147.195.226.29.266.322.546.637.849.94l3,3,6.438,6.438-.03.03,6.049,6.049.03-.03.629.629a13.382,13.382,0,1,0,18.925-18.925l-3.234-3.234L352.07,87.413l-.033-.03,0,0c-.181-.18-.374-.341-.562-.508.19.161.382.33.559.505a.369.369,0,0,0-.027-.029,7.748,7.748,0,0,0-.768-.689,13.366,13.366,0,0,0-20.653,16.061Zm15.073-8.845,16.11,16.111.06.06a4.248,4.248,0,0,1-.06,5.989,4.338,4.338,0,0,1-6.108,0L339.553,99.93l-.059-.06a4.249,4.249,0,0,1,.059-5.989A4.34,4.34,0,0,1,345.662,93.881Z" fill-rule="evenodd" fill="url(#linear-gradient)"/>
    <path id="Rectangle-Copy-6" d="M349.325,122.454a13.409,13.409,0,0,1,0-18.925l35.1-35.1a13.382,13.382,0,1,1,18.925,18.925l-35.1,35.1A13.411,13.411,0,0,1,349.325,122.454Zm6.408-6.468a4.249,4.249,0,0,0,5.989.059l.06-.059,35.1-35.1a4.337,4.337,0,0,0,0-6.108,4.248,4.248,0,0,0-5.989-.06l-.06.06-35.1,35.1A4.338,4.338,0,0,0,355.733,115.986Z" fill="url(#linear-gradient-2)"/>
    <path id="Shape" d="M99.253,65.11h.718a.366.366,0,0,1,.24.059h.12l.359.12h0l.18.06h0l.239.06h0l.18.12h0l.239.12h0c.06.059.18.059.24.119l.12.06h0c.06.06.179.12.239.18l.12.06c.06.06.18.12.24.179l.119.12L101.289,68.7h2.695c0,.12.06.239.06.359l.06.24h0c0,.179.06.359.06.539a4.793,4.793,0,0,1-9.583,0v-.6c0-.12.06-.24.06-.359l.06-.18a4.518,4.518,0,0,1,1.5-2.456l.06-.179h0a.828.828,0,0,1,.24-.18l.119-.06h0l.36-.179h.06a.844.844,0,0,1,.359-.12l.12-.06c.12-.06.239-.06.3-.12l.18-.06c.12,0,.18-.06.3-.06h.479A.726.726,0,0,1,99.253,65.11Zm-17.308.179V72h4.371L85.6,74.213H79.489V65.229h2.456Zm-7.187,0,3.414,8.984H75.6l-.419-1.138H71.4l-.419,1.138H68.41l3.413-8.984Zm19.045,0L93.084,67.5H91.227v6.708H88.772V67.5H86.2V65.289Zm5.45,2.156h-.48l-.119.06h0A1.956,1.956,0,0,0,97.4,68.523l-.06.12h0a2.276,2.276,0,0,0-.239,1.138,2.219,2.219,0,1,0,4.431,0,2.792,2.792,0,0,0-.179-1.018l-.06-.12-.06-.12a2,2,0,0,0-1.138-.958l-.12-.06h-.359A.759.759,0,0,0,99.253,67.445Zm-25.992.24-1.138,3.234H74.4Z" fill="#fff"/>
    <path id="checks" d="M89.73,124.819a19.693,19.693,0,0,0,10.6-2.755A20.328,20.328,0,0,0,107.4,114.7h0l-7.786-5.929a15.109,15.109,0,0,1-4.073,4.192,9.941,9.941,0,0,1-5.809,1.677,10.256,10.256,0,0,1-7.666-3.174,10.718,10.718,0,0,1-2.216-3.534,12.107,12.107,0,0,1-.778-4.431,11.892,11.892,0,0,1,.778-4.432,10.718,10.718,0,0,1,2.216-3.534A9.427,9.427,0,0,1,85.418,93.2a10.266,10.266,0,0,1,4.312-.839,9.526,9.526,0,0,1,5.809,1.677,16.732,16.732,0,0,1,4.133,4.312h0l7.785-6.049a20.489,20.489,0,0,0-7.126-7.366,20.238,20.238,0,0,0-10.6-2.755,21.712,21.712,0,0,0-8.624,1.677A21.942,21.942,0,0,0,74.1,88.347a21.121,21.121,0,0,0-4.671,6.707,20,20,0,0,0-1.677,8.265,20.643,20.643,0,0,0,1.677,8.444,20.988,20.988,0,0,0,4.671,6.828,22.477,22.477,0,0,0,7.007,4.551A21.712,21.712,0,0,0,89.73,124.819Zm35.035-1.018V100.025a7.864,7.864,0,0,1,2.156-5.749,7.4,7.4,0,0,1,5.63-2.216,7.215,7.215,0,0,1,5.51,2.156,8,8,0,0,1,2.036,5.809h0V123.8h11.08V98.468A19.72,19.72,0,0,0,150.1,91.76a14.706,14.706,0,0,0-3.055-5.15,13.579,13.579,0,0,0-4.791-3.354,17.67,17.67,0,0,0-12.636-.06,14.991,14.991,0,0,0-4.852,3.234h0V61.876h-11.2V123.8Zm55.218,1.018a23.4,23.4,0,0,0,8.744-1.617,28.593,28.593,0,0,0,7.546-4.491h0l-4.551-7.606a23.713,23.713,0,0,1-5.33,2.994,16.712,16.712,0,0,1-6.049,1.138A13.286,13.286,0,0,1,172.8,113.2a10.287,10.287,0,0,1-4.133-6.049h28.747a19.56,19.56,0,0,0,.479-2.755,20.794,20.794,0,0,0,.24-3.414,20.2,20.2,0,0,0-1.378-7.426,17.937,17.937,0,0,0-9.941-10.121,19.707,19.707,0,0,0-7.846-1.5,21.584,21.584,0,0,0-15.271,6.229,22.049,22.049,0,0,0-4.552,6.767,21.683,21.683,0,0,0-1.677,8.445,20.844,20.844,0,0,0,1.677,8.444,21.384,21.384,0,0,0,4.671,6.768,22.376,22.376,0,0,0,7.127,4.551A23.806,23.806,0,0,0,179.983,124.819Zm7.427-25.513H168.664a10.928,10.928,0,0,1,3.654-6.048,9.583,9.583,0,0,1,6.288-2.216,9.064,9.064,0,0,1,6.109,2.156,7.919,7.919,0,0,1,2.7,6.108Zm37.011,25.513a19.693,19.693,0,0,0,10.6-2.755,20.328,20.328,0,0,0,7.067-7.366h0l-7.786-5.929a15.12,15.12,0,0,1-4.072,4.192,9.944,9.944,0,0,1-5.81,1.677,10.856,10.856,0,0,1-4.312-.838,11.229,11.229,0,0,1-3.353-2.336,10.7,10.7,0,0,1-2.216-3.534,12.108,12.108,0,0,1-.779-4.431,11.893,11.893,0,0,1,.779-4.432,10.7,10.7,0,0,1,2.216-3.534,9.415,9.415,0,0,1,3.353-2.335,10.267,10.267,0,0,1,4.312-.839,9.529,9.529,0,0,1,5.81,1.677,15.837,15.837,0,0,1,4.132,4.312h0l7.786-6.049a20.5,20.5,0,0,0-7.127-7.366,20.238,20.238,0,0,0-10.6-2.755,21.712,21.712,0,0,0-8.624,1.677,21.953,21.953,0,0,0-7.007,4.492,21.121,21.121,0,0,0-4.671,6.707,22.1,22.1,0,0,0,0,16.889,20.984,20.984,0,0,0,4.671,6.827,22.474,22.474,0,0,0,7.007,4.552A25.586,25.586,0,0,0,224.421,124.819Zm35.036-1.018V101.283l16.409,22.578h12.7l-16.589-22.7,15.391-18.147H274.13L259.4,100.5V61.876h-11.14V123.8Zm62.285-11.978a9.878,9.878,0,0,0-2.995-7.546,28.441,28.441,0,0,0-8.5-4.971h0l-3.953-1.677a13,13,0,0,1-3.234-1.676,2.529,2.529,0,0,1-1.138-1.917,2.421,2.421,0,0,1,1.2-2.216,6.081,6.081,0,0,1,3.174-.718,12.581,12.581,0,0,1,4.851,1.018,14.287,14.287,0,0,1,4.312,2.874h0l5.63-6.827C317.31,84.035,312.459,82,306.35,82a21.283,21.283,0,0,0-5.989.839,14.989,14.989,0,0,0-4.791,2.4,10.153,10.153,0,0,0-3.114,3.833,11.992,11.992,0,0,0-1.138,5.271,10.562,10.562,0,0,0,.778,4.252,11.294,11.294,0,0,0,2.216,3.354,14.353,14.353,0,0,0,3.474,2.635,39.225,39.225,0,0,0,4.731,2.216h0l4.372,1.8a23.6,23.6,0,0,1,3.054,1.557,2.342,2.342,0,0,1,1.138,2.156,2.778,2.778,0,0,1-1.557,2.576,7.655,7.655,0,0,1-3.653.838,12.476,12.476,0,0,1-6.109-1.5,23.662,23.662,0,0,1-5.39-4.073h0l-5.629,6.768a19.541,19.541,0,0,0,7.126,5.809,22.982,22.982,0,0,0,9.882,2.1,23.36,23.36,0,0,0,6.229-.838,16.186,16.186,0,0,0,5.09-2.516,11.7,11.7,0,0,0,4.672-9.642" fill="#fff"/>
  </g>
</svg>
