<svg xmlns="http://www.w3.org/2000/svg" width="191.501" height="60.896" viewBox="0 0 191.501 60.896">
  <g id="logoaltogris" transform="translate(-1691.33 -9228.524)">
    <path id="Trazado_123" data-name="Trazado 123" d="M1756.57,9239.651,1745.077,9270h8.609l1.333-3.816h12.7l1.322,3.816h8.735l-11.492-30.354Zm.955,19.188,3.835-10.951,3.839,10.951Z" transform="translate(18.228 3.775)" fill="#707070"/>
    <path id="Trazado_124" data-name="Trazado 124" d="M1781.048,9239.651h-8.242V9270h20.458l2.4-7.588h-14.614Z" transform="translate(27.633 3.774)" fill="#707070"/>
    <path id="Trazado_125" data-name="Trazado 125" d="M1789.549,9247.235h8.632V9270h8.239v-22.77h6.216l2.412-7.584h-25.5Z" transform="translate(33.311 3.774)" fill="#707070"/>
    <path id="Trazado_126" data-name="Trazado 126" d="M1842.325,9252.914a16.345,16.345,0,0,0-.291-1.723l0,0h-8.984a8.649,8.649,0,0,1,.848,3.788c0,4.611-3.057,7.846-7.482,7.846s-7.48-3.234-7.48-7.846a8.7,8.7,0,0,1,.844-3.788h-.037a.349.349,0,0,0,.019-.043l.022.039a6.934,6.934,0,0,1,4.452-3.766.713.713,0,0,0,.075-.024c.277-.07.567-.129.858-.173.081-.011.157-.024.234-.031a7.652,7.652,0,0,1,2.026,0c.077.007.155.021.234.031.294.044.581.1.86.173a.648.648,0,0,0,.075.024,6.94,6.94,0,0,1,4.451,3.766l.019-.039h0l4.5-7.792c-.349-.324-.711-.629-1.091-.922l-.015,0c-.382-.286-.766-.556-1.17-.8a.877.877,0,0,1-.082-.047c-.383-.23-.776-.453-1.182-.651-.066-.028-.13-.053-.195-.086-.38-.18-.765-.35-1.162-.5-.114-.043-.231-.081-.344-.121-.362-.126-.72-.25-1.1-.355-.181-.048-.371-.082-.554-.13-.321-.073-.641-.157-.971-.212-.276-.055-.568-.083-.857-.119-.248-.039-.493-.077-.749-.1-.55-.047-1.112-.074-1.685-.074s-1.133.027-1.684.074c-.255.023-.5.062-.75.1-.287.036-.578.064-.854.119-.33.055-.651.139-.975.212-.18.048-.371.082-.55.13-.377.105-.734.229-1.094.355-.115.04-.233.078-.347.121-.4.148-.782.318-1.161.5-.061.033-.13.058-.195.086-.407.2-.8.421-1.184.651a.68.68,0,0,1-.082.047c-.4.247-.788.517-1.161.8l-.018.011a14.873,14.873,0,0,0-5.563,8.757h0a15.1,15.1,0,0,0-.294,1.726c-.009.053-.017.108-.024.164a17.517,17.517,0,0,0-.11,1.9c0,9.081,6.656,15.736,16.044,15.736s16.045-6.655,16.045-15.736a17.549,17.549,0,0,0-.109-1.9C1842.344,9253.022,1842.335,9252.967,1842.325,9252.914Z" transform="translate(40.372 3.629)" fill="#707070"/>
    <path id="Trazado_127" data-name="Trazado 127" d="M1721.777,9289.422a30.448,30.448,0,1,1,30.452-30.451A30.484,30.484,0,0,1,1721.777,9289.422Zm0-53.077a22.627,22.627,0,1,0,22.629,22.626A22.653,22.653,0,0,0,1721.777,9236.345Z" transform="translate(0 -0.001)" fill="#707070"/>
    <path id="Trazado_128" data-name="Trazado 128" d="M1703.2,9264.1l14.553-25.214,14.56,25.214Z" transform="translate(4.025 3.513)" fill="#707070"/>
  </g>
</svg>
