<svg xmlns="http://www.w3.org/2000/svg" width="244.869" height="68.704" viewBox="0 0 244.869 68.704">
  <g id="logoblanco" transform="translate(-84.209 -333.603)">
    <path id="Trazado_3971" data-name="Trazado 3971" d="M687.353,427.383v9.451a7.011,7.011,0,0,0,.558,2.792,7.153,7.153,0,0,0,3.808,3.808,7.26,7.26,0,0,0,5.583,0,7.148,7.148,0,0,0,3.808-3.808,7.01,7.01,0,0,0,.558-2.792v-9.451h11.192v9.451a17.977,17.977,0,0,1-1.431,7.157,18.328,18.328,0,0,1-9.762,9.762,18.6,18.6,0,0,1-14.313,0,18.33,18.33,0,0,1-9.762-9.762,17.977,17.977,0,0,1-1.432-7.157v-9.451Z" transform="translate(-432.78 -68.563)" fill="#fff"/>
    <g id="Grupo_935" data-name="Grupo 935" transform="translate(84.209 358.832)">
      <g id="Grupo_934" data-name="Grupo 934">
        <path id="Trazado_3972" data-name="Trazado 3972" d="M131.162,443.687a6.438,6.438,0,0,0-2.13-3.739,6.2,6.2,0,0,0-10.217,4.26V470.9h-11.13V444.557a6.19,6.19,0,0,0-1.869-4.3,5.869,5.869,0,0,0-4.3-1.782,6.114,6.114,0,0,0-4.087,1.478,5.943,5.943,0,0,0-2.087,3.739V470.9H84.209V444.557a16.293,16.293,0,0,1,1.391-6.7,17.46,17.46,0,0,1,3.739-5.435,17.8,17.8,0,0,1,5.478-3.652,16.75,16.75,0,0,1,6.7-1.348,16.357,16.357,0,0,1,6.391,1.261,18.194,18.194,0,0,1,5.347,3.435,16.9,16.9,0,0,1,5.3-3.435,17.175,17.175,0,0,1,13.13.087,17.81,17.81,0,0,1,5.478,3.652,17.482,17.482,0,0,1,3.739,5.435,16.315,16.315,0,0,1,1.391,6.7V470.9h-11.13Z" transform="translate(-84.209 -427.427)" fill="#fff"/>
        <path id="Trazado_3973" data-name="Trazado 3973" d="M341.35,427.427a21.29,21.29,0,0,1,8.477,1.7,21.72,21.72,0,0,1,11.565,11.565,22.04,22.04,0,0,1,0,16.955,21.716,21.716,0,0,1-11.565,11.564,22.04,22.04,0,0,1-16.955,0,21.711,21.711,0,0,1-11.564-11.564,22.04,22.04,0,0,1,0-16.955,21.715,21.715,0,0,1,11.564-11.565A21.285,21.285,0,0,1,341.35,427.427Zm0,32.346a10.686,10.686,0,1,0-4.13-.827A10.485,10.485,0,0,0,341.35,459.773Z" transform="translate(-256.314 -427.427)" fill="#fff"/>
        <path id="Trazado_3974" data-name="Trazado 3974" d="M490.99,427.427h12l10.173,27.65,10.174-27.65h12l-16,43.476H506.989Z" transform="translate(-381.609 -427.427)" fill="#fff"/>
      </g>
    </g>
    <rect id="Rectángulo_185" data-name="Rectángulo 185" width="11.141" height="37.804" transform="translate(285.31 364.503)" fill="#fff"/>
    <path id="Trazado_3975" data-name="Trazado 3975" d="M853.923,379.256A10.548,10.548,0,1,1,843.375,389.8a10.56,10.56,0,0,1,10.548-10.548m0-11.344A21.892,21.892,0,1,0,875.815,389.8a21.892,21.892,0,0,0-21.892-21.892Z" transform="translate(-546.737 -25.084)" fill="#fff"/>
    <g id="Grupo_938" data-name="Grupo 938" transform="translate(84.209 333.603)">
      <g id="Grupo_936" data-name="Grupo 936">
        <path id="Trazado_3976" data-name="Trazado 3976" d="M93.444,352.074a9.236,9.236,0,1,1,9.236-9.235A9.245,9.245,0,0,1,93.444,352.074Zm0-16.1a6.863,6.863,0,1,0,6.863,6.863A6.871,6.871,0,0,0,93.444,335.975Z" transform="translate(-84.209 -333.603)" fill="#fff"/>
        <path id="Trazado_3977" data-name="Trazado 3977" d="M102.136,356.9l4.415-7.647,4.416,7.647Z" transform="translate(-97.315 -345.044)" fill="#fff"/>
      </g>
      <g id="Grupo_937" data-name="Grupo 937" transform="translate(21.83 4.348)">
        <path id="Trazado_3978" data-name="Trazado 3978" d="M168.879,350.411l-3.486,9.207H168l.4-1.158h3.852l.4,1.158h2.65l-3.486-9.207Zm.29,5.82,1.163-3.322,1.164,3.322Z" transform="translate(-165.393 -350.24)" fill="#fff"/>
        <path id="Trazado_3979" data-name="Trazado 3979" d="M209.782,350.411h-2.5v9.208h6.2l.728-2.3h-4.433Z" transform="translate(-196.019 -350.239)" fill="#fff"/>
        <path id="Trazado_3980" data-name="Trazado 3980" d="M232.569,352.712h2.618v6.906h2.5v-6.906h1.887l.731-2.3h-7.734Z" transform="translate(-214.506 -350.239)" fill="#fff"/>
        <path id="Trazado_3981" data-name="Trazado 3981" d="M273.624,353.4H270.9a2.643,2.643,0,0,1,.257,1.149,2.272,2.272,0,1,1-2.269-2.381A2.148,2.148,0,0,1,270.9,353.4l1.372-2.376a4.918,4.918,0,0,0-3.384-1.25,4.776,4.776,0,1,0,4.866,4.775A5.236,5.236,0,0,0,273.624,353.4Z" transform="translate(-237.5 -349.774)" fill="#fff"/>
      </g>
    </g>
  </g>
</svg>
