<svg xmlns="http://www.w3.org/2000/svg" width="1161" height="1270.416" viewBox="0 0 1161 1270.416">
  <g id="mask_video" transform="translate(869 1582)">
    <path id="Sustracci贸n_6" data-name="Sustracci贸n 6" d="M711.427,1267.692h0v-598.1c5.91,5.866,12.162,11.507,18.585,16.766s13.168,10.26,20.077,14.888,14.162,9,21.57,13.011,15.167,7.753,23.063,11.135a251,251,0,0,0,49.836,15.469,263.584,263.584,0,0,0,26.211,3.867c8.841.855,17.948,1.289,27.069,1.289s18.226-.434,27.065-1.289a263.609,263.609,0,0,0,26.209-3.867,251.33,251.33,0,0,0,49.848-15.469c7.979-3.419,15.817-7.21,23.3-11.269s14.8-8.489,21.78-13.186,13.791-9.775,20.262-15.1,12.775-11.055,18.746-17.024,11.683-12.262,17.015-18.734,10.406-13.28,15.1-20.258,9.126-14.293,13.19-21.782,7.849-15.318,11.273-23.306a251.327,251.327,0,0,0,15.465-49.838,263.7,263.7,0,0,0,3.866-26.211c.855-8.843,1.289-17.951,1.289-27.072V345.427H1000.986V481.609a106.236,106.236,0,0,1-2.011,20.786,98.469,98.469,0,0,1-6.033,19.442,107.171,107.171,0,0,1-9.544,17.589,102.432,102.432,0,0,1-27.747,27.745,107.172,107.172,0,0,1-17.586,9.539,98.476,98.476,0,0,1-19.445,6.034,108.383,108.383,0,0,1-41.567,0,98.4,98.4,0,0,1-19.44-6.034,107.024,107.024,0,0,1-17.59-9.539,102.64,102.64,0,0,1-27.744-27.745,107.11,107.11,0,0,1-9.541-17.589A98.472,98.472,0,0,1,796.7,502.4a106.257,106.257,0,0,1-2.012-20.786V345.427H711.428V0h1083V1229.873l-1083,37.819ZM1552.818,115c-173.942,0-315.454,141.512-315.454,315.454,0,2.261.08,4.6.151,6.668v.014l.013.4c.023.685.049,1.462.071,2.2V972.057h160.53V705.347a315.393,315.393,0,0,0,393.8-69.124V224.685A315.334,315.334,0,0,0,1552.818,115Zm0,467.451c-83.811,0-152-68.186-152-152s68.185-152,152-152,152,68.186,152,152S1636.629,582.451,1552.818,582.451Z" transform="translate(-1502.427 -1582)" fill="#0090f2"/>
    <path id="Sustracci贸n_7" data-name="Sustracci贸n 7" d="M633.427,1270.416V505.491a261.771,261.771,0,0,0,6.678,40.667,252.116,252.116,0,0,0,12.948,38.572c3.424,7.991,7.216,15.832,11.271,23.306s8.5,14.812,13.186,21.782,9.775,13.79,15.1,20.258,11.059,12.772,17.026,18.734c.583.583,1.184,1.179,1.786,1.771v597.11l-78,2.724Zm78-924.988h-78V0h78V345.427h0Z" transform="translate(-1502.427 -1582)" fill="#fff"/>
  </g>
</svg>
