<svg xmlns="http://www.w3.org/2000/svg" width="1161" height="1115.321" viewBox="0 0 1161 1115.321">
  <g id="mask_video2" transform="translate(869 1582)">
    <path id="Sustracci贸n_6" data-name="Sustracci贸n 6" d="M711.427,1113.6v-444c5.91,5.866,12.163,11.507,18.585,16.766s13.167,10.258,20.077,14.888,14.161,9,21.569,13.011,15.166,7.753,23.063,11.135a251.006,251.006,0,0,0,49.836,15.469,263.6,263.6,0,0,0,26.211,3.867c8.841.855,17.948,1.289,27.069,1.289s18.226-.434,27.065-1.289a263.621,263.621,0,0,0,26.209-3.867,251.314,251.314,0,0,0,49.848-15.469c7.976-3.417,15.815-7.209,23.3-11.269s14.8-8.491,21.78-13.186,13.791-9.775,20.262-15.1,12.774-11.055,18.746-17.024,11.683-12.262,17.015-18.734,10.406-13.28,15.1-20.258,9.127-14.295,13.19-21.782,7.85-15.318,11.273-23.306a251.324,251.324,0,0,0,15.465-49.838,263.753,263.753,0,0,0,3.867-26.211c.855-8.842,1.289-17.951,1.289-27.072V345.427H1000.986V481.609a106.227,106.227,0,0,1-2.012,20.786,98.45,98.45,0,0,1-6.033,19.442,107.175,107.175,0,0,1-9.544,17.589,102.435,102.435,0,0,1-27.747,27.745,107.18,107.18,0,0,1-17.586,9.539,98.479,98.479,0,0,1-19.445,6.034,108.383,108.383,0,0,1-41.567,0,98.381,98.381,0,0,1-19.44-6.034,107.041,107.041,0,0,1-17.591-9.539,102.641,102.641,0,0,1-27.744-27.745,107.1,107.1,0,0,1-9.541-17.589A98.476,98.476,0,0,1,796.7,502.4a106.253,106.253,0,0,1-2.011-20.786V345.427H711.427V0h1083V1075.779ZM1552.818,115c-173.942,0-315.454,141.512-315.454,315.454,0,2.261.077,4.5.151,6.674v.008l.011.329,0,.061c.023.687.049,1.466.07,2.2V972.057h160.53V705.347a315.392,315.392,0,0,0,393.8-69.124V224.685A315.335,315.335,0,0,0,1552.818,115Zm0,467.451c-83.811,0-152-68.186-152-152s68.186-152,152-152,152,68.186,152,152S1636.63,582.451,1552.818,582.451Z" transform="translate(-1502.427 -1582)" fill="#0090f2"/>
    <path id="Sustracci贸n_7" data-name="Sustracci贸n 7" d="M633.427,1115.321V505.491a261.741,261.741,0,0,0,6.678,40.667,252.094,252.094,0,0,0,12.948,38.572c3.424,7.99,7.216,15.832,11.271,23.306s8.5,14.814,13.186,21.782,9.775,13.79,15.1,20.258,11.06,12.773,17.026,18.734c.572.572,1.173,1.168,1.787,1.771V1112.6Zm78-769.893h-78V0h78V345.427h0Z" transform="translate(-1502.427 -1582)" fill="#fff"/>
  </g>
</svg>
