<svg xmlns="http://www.w3.org/2000/svg" xmlns:xlink="http://www.w3.org/1999/xlink" viewBox="0 0 76.91 76.91"><defs><style>.cls-1{fill:none;clip-rule:evenodd;}.cls-2{clip-path:url(#clip-path);}.cls-3{fill:#f3f3f4;}.cls-10,.cls-11,.cls-12,.cls-13,.cls-14,.cls-15,.cls-16,.cls-17,.cls-18,.cls-19,.cls-20,.cls-21,.cls-22,.cls-23,.cls-24,.cls-25,.cls-26,.cls-27,.cls-28,.cls-29,.cls-3,.cls-4,.cls-5,.cls-6,.cls-7,.cls-9{fill-rule:evenodd;}.cls-4{fill:#46b549;}.cls-5{fill:#ed1c23;}.cls-6{fill:#00aade;}.cls-7{fill:#00805d;}.cls-13,.cls-8{fill:#211d1e;}.cls-9{fill:#fcee1f;}.cls-10{fill:#874e1f;}.cls-11,.cls-28{fill:#f89620;}.cls-12{fill:#feeb82;}.cls-14{fill:#9eb43a;}.cls-15{fill:#f15b47;}.cls-16{fill:#fef6af;}.cls-17{fill:#e18a25;}.cls-18{fill:#e9bc65;}.cls-19{fill:#237f5f;}.cls-20{fill:#faa74a;}.cls-21{fill:#925832;}.cls-22{fill:#006735;}.cls-23{fill:#59a055;}.cls-24{fill:#00763e;}.cls-25{fill:#224d90;}.cls-26{fill:#cf1f26;}.cls-27{fill:#d2d3d4;}.cls-28{stroke:#211d1e;stroke-miterlimit:2.41;stroke-width:0.15px;}.cls-29{fill:#613511;}</style><clipPath id="clip-path" transform="translate(0 0)"><path id="SVGID" class="cls-1" d="M38.46,0A38.46,38.46,0,1,1,0,38.46,38.46,38.46,0,0,1,38.46,0Z"/></clipPath></defs><title>mexico</title><g id="Layer_2" data-name="Layer 2"><g id="Layer_1-2" data-name="Layer 1"><g class="cls-2"><polygon class="cls-3" points="0 0 76.91 0 76.91 76.91 0 76.91 0 0 0 0"/><polygon class="cls-4" points="0 0 19.68 0 19.68 76.91 0 76.91 0 0 0 0"/><polygon class="cls-5" points="58.49 0 76.91 0 76.91 76.91 58.49 76.91 58.49 0 58.49 0"/><path class="cls-6" d="M36,45.63l-.76-.19-.94-1-.21.55a3.58,3.58,0,0,1-1.28-.47,4,4,0,0,0-1.54-.41s1.05.62,1.19,1a.51.51,0,0,1-.24.59,2.47,2.47,0,0,0,1.13.27,2.2,2.2,0,0,1,1.24.48l-.7.8a4,4,0,0,0,.95.21c.47,0,1.5,0,1.5,0L36,45.63Z" transform="translate(0 0)"/><polygon class="cls-6" points="40.78 45.96 43.98 45.74 42.38 46.66 42.91 47.17 42.24 47.55 39.74 47.55 40.78 45.96 40.78 45.96"/><path class="cls-7" d="M42.4,43.78c.15,0,.79.33,1,.1s.36-.9,1-1.12.7-.39,1-.27a2.22,2.22,0,0,1,.68,1.42,1.39,1.39,0,0,1-.94.89,5.47,5.47,0,0,1-2.05.15,9.77,9.77,0,0,1-1.3-.74l.62-.43Z" transform="translate(0 0)"/><path class="cls-8" d="M42.41,43.75l.1,0c.22.09.71.26.92.08a1.51,1.51,0,0,0,.23-.35,1.38,1.38,0,0,1,.72-.77c.2-.07.34-.14.46-.19a.61.61,0,0,1,.56-.08,1.28,1.28,0,0,1,.46.6,1.9,1.9,0,0,1,.23.85,1.07,1.07,0,0,1-.33.54,1.68,1.68,0,0,1-.62.37A6.17,6.17,0,0,1,44,45a2.79,2.79,0,0,1-.91,0,9.77,9.77,0,0,1-1.3-.74l0,0,0,0,.61-.43h0Zm.08.09h0l-.08,0-.58.41a8.81,8.81,0,0,0,1.26.72A2.94,2.94,0,0,0,44,45a6.18,6.18,0,0,0,1.15-.18,1.62,1.62,0,0,0,.59-.36,1,1,0,0,0,.32-.51,1.79,1.79,0,0,0-.23-.82,1.27,1.27,0,0,0-.43-.57c-.19-.08-.3,0-.52.08s-.26.12-.46.19a1.31,1.31,0,0,0-.69.74,1.4,1.4,0,0,1-.25.37c-.23.2-.73,0-1-.06Z" transform="translate(0 0)"/><path class="cls-7" d="M31.63,41.4c-.24-.53-.1-1.15-.52-1.4s-1.1-.86-1.36-.71-.88.24-.86.68-.2.84.34,1.2a10.93,10.93,0,0,0,2.18.8l.22-.57Z" transform="translate(0 0)"/><path class="cls-8" d="M31.61,41.4a3,3,0,0,1-.17-.63c-.05-.31-.1-.6-.35-.75l-.38-.26c-.37-.26-.77-.55-.95-.45a1.53,1.53,0,0,1-.25.11c-.27.11-.61.24-.6.55a1.51,1.51,0,0,1,0,.3.79.79,0,0,0,.35.88,10.39,10.39,0,0,0,2.14.79l.22-.54Zm-.11-.63h0a2.36,2.36,0,0,0,.16.62h0l-.23.57v0h0a11.14,11.14,0,0,1-2.18-.81.81.81,0,0,1-.37-.92,1.51,1.51,0,0,0,0-.3c0-.35.34-.49.63-.6l.25-.1c.2-.12.62.18,1,.45.14.09.27.19.38.25.27.17.32.47.38.8Z" transform="translate(0 0)"/><path class="cls-7" d="M35.06,42.32c-.36-.24-.39-.39-.86-.78s-.78-.83-1.19-.83-1.09-.14-1.34.25-.85.91-.47,1.31,1,1.08,1.49,1.11,2.49-.23,2.49-.23l-.12-.83Z" transform="translate(0 0)"/><path class="cls-8" d="M35,42.34a2.25,2.25,0,0,1-.42-.37,3.83,3.83,0,0,0-.44-.41l-.34-.32c-.3-.27-.54-.51-.83-.51h-.26c-.39,0-.86,0-1.06.26l-.2.26c-.26.33-.56.71-.27,1a6.74,6.74,0,0,0,.71.69,1.61,1.61,0,0,0,.76.4c.42,0,2.22-.19,2.46-.22L35,42.34Zm-.38-.4h0a2.15,2.15,0,0,0,.41.36h0l.13.83v0h0s-2,.25-2.5.22A1.58,1.58,0,0,1,31.9,43a6.91,6.91,0,0,1-.72-.7c-.31-.34,0-.73.27-1.08.07-.09.14-.18.19-.26.22-.33.71-.3,1.11-.28H33c.31,0,.56.24.86.53l.35.31c.21.18.33.31.44.42Z" transform="translate(0 0)"/><path class="cls-7" d="M39.92,43.2,39,42.71a5.44,5.44,0,0,0-1.63-1.05c-.68-.18-1.66-.41-2-.08s-.8.82-.67,1.21.19,1,.79,1.18a3.74,3.74,0,0,0,2,.33c.63-.15,2.11-.62,2.11-.62l.32-.48Z" transform="translate(0 0)"/><path class="cls-8" d="M39.88,43.2,39,42.74h0a5.49,5.49,0,0,0-1.62-1,7.93,7.93,0,0,0-1.12-.23,1.18,1.18,0,0,0-.88.15,3.16,3.16,0,0,0-.51.58.69.69,0,0,0-.14.6c0,.07,0,.14.07.22a1.16,1.16,0,0,0,.7.94,8.66,8.66,0,0,0,1,.31,2.21,2.21,0,0,0,1,0c.61-.14,2-.58,2.1-.61l.3-.46ZM39,42.69h0l.89.48,0,0,0,0-.32.48h0s-1.48.47-2.12.62a2.3,2.3,0,0,1-1,0,8.24,8.24,0,0,1-1-.31,1.25,1.25,0,0,1-.74-1c0-.07,0-.15-.06-.21a.74.74,0,0,1,.15-.65,3.66,3.66,0,0,1,.52-.59,1.22,1.22,0,0,1,.91-.16,7.93,7.93,0,0,1,1.14.23A5.54,5.54,0,0,1,39,42.69Z" transform="translate(0 0)"/><path class="cls-9" d="M32,28.63a1.13,1.13,0,0,1,.32.75c0,.08.18-.44,0-.73s-.18-.34-.18-.34l-.11.32Z" transform="translate(0 0)"/><path class="cls-7" d="M32.37,28.7s.12-.68-.18-.54a9.17,9.17,0,0,0-1.39,1c-.15.19-.37.46-.28.68a3.22,3.22,0,0,0,.33.53,3.09,3.09,0,0,0,.09.73c.1.19.18.37.44.39s1.13,0,1.13,0,.74.24.85.41.23.35.06.49S31,34.09,31.13,35.6s1.12,1.78,2.19,1.7c0,0-1.61-.21-1.38-1.47s1.78-2.11,2-2.33a1.44,1.44,0,0,0-.46-2.09c-1.07-.7-.88-.84-.88-.84a1.3,1.3,0,0,0-.37,0c-.26,0-.54,0-.49-.32,0,0,0,0,0,0a3.24,3.24,0,0,0,.77-.32.82.82,0,0,0,.16-.45s-.35.36-.57.39-.6.12-.43-.11.23-.26.23-.26l.19-.73Z" transform="translate(0 0)"/><path class="cls-10" d="M33.54,33.7a3,3,0,0,0,.49-.22,2.14,2.14,0,0,0,.68-1.18A2.56,2.56,0,0,0,34.22,31a4.26,4.26,0,0,0-1.29-.38l-.39-.06-.25.43,1.19.86.34.68-.28,1.2Z" transform="translate(0 0)"/><path class="cls-7" d="M32.39,38.61c-.24,0-.35,0-.5-.23a4.89,4.89,0,0,1-.34-1c-.09-.34-.89-.68-.95-1.06-.12-.74.9-2.32-.71-2.65-1-.21-.33.68-.33.68s.58.37.46.68-.59,1-.46,1.58.89.79,1.16,1.3a2.42,2.42,0,0,1,.3.64c.2,1.22.95,1.71,2.08.81s-.65-.78-.71-.77Z" transform="translate(0 0)"/><path class="cls-11" d="M29.31,34.57s.44-.13.55-.39.18-1-.4-.71c0,0,0-.22-.38,0,0,0-.18-.35-.66,0s0,.49.14.44,0,.83.49.5c0,0,0,.27.26.23Z" transform="translate(0 0)"/><polygon class="cls-12" points="28.54 33.63 28.75 33.46 28.51 33.46 28.54 33.63 28.54 33.63"/><polygon class="cls-12" points="28.85 33.65 28.85 33.87 29.1 33.83 29.06 33.63 28.85 33.65 28.85 33.65"/><path class="cls-12" d="M29.44,33.84a2.27,2.27,0,0,0,.06.25l.34,0-.4-.22Z" transform="translate(0 0)"/><path class="cls-12" d="M30,34.15,30.5,34l-.13.33-.41.18.34-.33L30,34.15Z" transform="translate(0 0)"/><polygon class="cls-12" points="30.22 34.87 30.63 34.79 30.69 34.46 30.4 34.59 30.53 34.65 30.22 34.87 30.22 34.87"/><polygon class="cls-12" points="30.27 35.2 30.07 35.1 30.36 34.91 30.23 35.07 30.41 35.12 30.27 35.2 30.27 35.2"/><polygon class="cls-12" points="30.05 35.26 30.38 35.32 30.61 35.47 30.3 35.43 30.05 35.26 30.05 35.26"/><polygon class="cls-12" points="30.5 35.67 30.26 35.54 29.85 35.51 30.18 35.66 30.5 35.67 30.5 35.67"/><polygon class="cls-12" points="29.75 35.77 30.18 35.84 30.52 35.97 30.13 36 29.75 35.77 29.75 35.77"/><polygon class="cls-12" points="30.5 36.2 29.98 36.2 30.34 36.39 30.5 36.2 30.5 36.2"/><polygon class="cls-12" points="29.77 36.59 29.92 36.3 29.61 36.54 29.77 36.59 29.77 36.59"/><polygon class="cls-12" points="30.3 36.75 30.1 37.2 30.41 36.9 30.77 36.77 30.3 36.75 30.3 36.75"/><path class="cls-12" d="M30.64,37.63l.43-.18h-.5l.13-.36-.26.29,0,.19.15.07Z" transform="translate(0 0)"/><polygon class="cls-12" points="30.85 37.06 31.09 37 31.23 37.12 30.85 37.06 30.85 37.06"/><polygon class="cls-12" points="30.84 37.84 30.86 37.99 31.14 37.82 30.84 37.84 30.84 37.84"/><polygon class="cls-12" points="31.4 38.56 31.2 39.01 31.5 39.05 31.37 38.9 31.4 38.56 31.4 38.56"/><polygon class="cls-12" points="32.33 39.28 32.18 39.63 31.89 39.75 31.83 39.2 31.94 38.92 32 39.55 32.33 39.28 32.33 39.28"/><polygon class="cls-12" points="31.39 39.17 31.44 39.47 31.77 39.35 31.5 39.31 31.39 39.17 31.39 39.17"/><path class="cls-12" d="M33.29,32.59a2.72,2.72,0,0,0,.16.35l.69-.08-.55-.12-.15-.26-.15.11Z" transform="translate(0 0)"/><polygon class="cls-12" points="33.09 32.88 33.24 33.48 33.79 33.45 33.73 33.26 33.33 33.27 33.09 32.88 33.09 32.88"/><polygon class="cls-12" points="32.52 33.27 32.67 33.87 33.38 33.82 32.84 33.63 32.68 33.29 33.07 33.23 32.68 33.13 32.52 33.27 32.52 33.27"/><polygon class="cls-12" points="32.12 34.06 32.1 33.7 32.28 33.59 32.58 33.81 32.89 34.18 32.32 33.88 32.12 34.06 32.12 34.06"/><polygon class="cls-12" points="31.78 34.1 31.86 34.39 31.95 34.3 31.94 34.14 32.36 34.21 32.54 34.49 32.51 34.14 31.99 33.97 31.78 34.1 31.78 34.1"/><path class="cls-12" d="M31.11,31.1h.52l-.56.15,0-.15Z" transform="translate(0 0)"/><polygon class="cls-12" points="32.02 31.04 32.16 30.61 31.98 30.76 32.02 31.04 32.02 31.04"/><polygon class="cls-12" points="31.79 30.56 31.65 31.04 31.6 30.61 31.23 30.74 31.63 30.27 31.7 30.6 31.79 30.56 31.79 30.56"/><path class="cls-12" d="M31,30.45s.28-.3.28-.3l.29.14-.35.1,0,.27L31,30.45Z" transform="translate(0 0)"/><polygon class="cls-13" points="31.58 28.71 31.59 28.97 31.82 28.72 31.58 28.71 31.58 28.71"/><polygon class="cls-14" points="32.28 28.27 32.31 28.57 31.96 28.82 32.28 28.27 32.28 28.27"/><path class="cls-14" d="M31.29,28.85l-.48.45s-.2.38-.16.37h.43l.33-.49-.12-.32Z" transform="translate(0 0)"/><polygon class="cls-14" points="31.87 29.09 31.4 29.67 31.46 29.99 31.72 29.53 31.87 29.09 31.87 29.09"/><path class="cls-14" d="M31.77,30l0,.16s-.25,0-.22,0l.19-.23.05.07Z" transform="translate(0 0)"/><polygon class="cls-13" points="33.46 31.43 33.86 31.04 33.78 31.36 33.46 31.43 33.46 31.43"/><path class="cls-13" d="M33.92,31.71s.41-.31.41-.31l-.15.31Z" transform="translate(0 0)"/><polygon class="cls-13" points="34.35 32.14 34.6 32.09 34.62 32.29 34.35 32.14 34.35 32.14"/><polygon class="cls-13" points="34.27 32.78 34.45 32.83 34.36 33.01 34.2 33.01 34.27 32.78 34.27 32.78"/><path class="cls-7" d="M38.39,46a5.37,5.37,0,0,1,.48-2.1,13.69,13.69,0,0,1,1.07-1.19l1.34-.42,1,.21s.52.35.51.72a1.12,1.12,0,0,1-.42,1c-.34.21-2.09.86-2.09.86l-.52,1-1.42,0Z" transform="translate(0 0)"/><path class="cls-8" d="M38.36,46a5.48,5.48,0,0,1,.49-2.11,12.91,12.91,0,0,1,1.07-1.2h0l1.35-.42h0l1,.21h0s.54.35.52.74a1.5,1.5,0,0,1-.09.56.83.83,0,0,1-.34.43h0c-.32.2-1.94.81-2.08.86l-.52,1h0l-1.41,0h0v0Zm.53-2.08h0a5.12,5.12,0,0,0-.47,2.05l1.37,0,.52-1h0s1.75-.64,2.08-.85a.8.8,0,0,0,.32-.41,1.61,1.61,0,0,0,.09-.54c0-.34-.45-.66-.49-.7l-1-.21L40,42.68a12.79,12.79,0,0,0-1.07,1.19Z" transform="translate(0 0)"/><polygon class="cls-13" points="37.95 43.17 37.61 43.12 37.44 43.35 37.76 43.4 37.95 43.17 37.95 43.17"/><path class="cls-13" d="M36.43,42.75c.11,0,.47.19.47.19l-.26.34-.21-.53Z" transform="translate(0 0)"/><path class="cls-13" d="M35.49,43.25l.55.06-.37.29-.18-.35Z" transform="translate(0 0)"/><path class="cls-13" d="M36.29,41.91a3.15,3.15,0,0,1,.41.41l.09-.26-.5-.15Z" transform="translate(0 0)"/><path class="cls-13" d="M37.5,42.05c0,.05.23.43.23.43l.12-.23-.35-.2Z" transform="translate(0 0)"/><path class="cls-13" d="M35.58,41.17s.25.51.32.48.28-.32.28-.32l-.6-.16Z" transform="translate(0 0)"/><path class="cls-13" d="M35.18,43.62h-.64s0,.48.09.44l.55-.45Z" transform="translate(0 0)"/><path class="cls-13" d="M36.05,44.5l.64-.38L36.31,44c-.18-.06-.28.52-.26.51Z" transform="translate(0 0)"/><path class="cls-13" d="M37.73,44.15c.09.11.28.29.28.29l0-.51-.3.22Z" transform="translate(0 0)"/><path class="cls-13" d="M39.28,45a5,5,0,0,0,.17-.5s.58,0,.55.06l-.33.38-.39.06Z" transform="translate(0 0)"/><polygon class="cls-13" points="40.44 43.81 40.42 44.14 40.76 43.91 40.44 43.81 40.44 43.81"/><path class="cls-13" d="M41.3,44a2,2,0,0,0,.33.12l.11-.26L41.3,44Z" transform="translate(0 0)"/><path class="cls-13" d="M41.89,43.54a2.59,2.59,0,0,0,.3-.21l.28.06-.2.25-.38-.1Z" transform="translate(0 0)"/><polygon class="cls-13" points="41.05 44.56 41.42 44.97 41.27 44.4 41.05 44.56 41.05 44.56"/><path class="cls-13" d="M38.9,44.07l.43,0-.4.27,0-.31Z" transform="translate(0 0)"/><path class="cls-13" d="M42.76,44.68s.21.49.21.49l0-.44-.24,0Z" transform="translate(0 0)"/><polygon class="cls-13" points="43.15 44.21 43.15 44.44 43.46 44.25 43.15 44.21 43.15 44.21"/><polygon class="cls-13" points="44.05 44.21 44.06 44.45 44.42 44.23 44.05 44.21 44.05 44.21"/><polygon class="cls-13" points="44.9 43.65 45.28 43.65 45.27 43.42 44.9 43.65 44.9 43.65"/><polygon class="cls-13" points="44.33 43.32 44.62 43.16 44.56 42.9 44.39 43.07 44.33 43.32 44.33 43.32"/><path class="cls-13" d="M44.79,44.69l.43.29-.13-.31-.3,0Z" transform="translate(0 0)"/><polygon class="cls-13" points="45.83 44.05 46.18 44.08 46.42 44.34 46.09 44.33 45.83 44.05 45.83 44.05"/><path class="cls-13" d="M44.93,44.21s.4-.25.4-.25l.2.13-.24.2-.36-.08Z" transform="translate(0 0)"/><polygon class="cls-13" points="45.06 42.23 44.9 42.73 45.17 42.6 45.06 42.23 45.06 42.23"/><polygon class="cls-13" points="35.32 42.57 35.55 42.45 35.79 42.67 35.32 42.57 35.32 42.57"/><polygon class="cls-13" points="33.88 43.14 33.69 43.52 34.02 43.4 33.88 43.14 33.88 43.14"/><path class="cls-13" d="M33,42.94s.4.2.4.2v-.21Z" transform="translate(0 0)"/><path class="cls-13" d="M32,42.38l.39.27.15-.26Z" transform="translate(0 0)"/><polygon class="cls-13" points="32.35 43.44 32.71 43.22 32.74 43.36 32.64 43.45 32.35 43.44 32.35 43.44"/><polygon class="cls-13" points="31.71 41.68 32.07 41.91 32.04 41.69 31.71 41.68 31.71 41.68"/><path class="cls-13" d="M32.46,41.17a3.45,3.45,0,0,1,.21.32l.12-.19-.33-.13Z" transform="translate(0 0)"/><path class="cls-13" d="M31.24,42.64s.4-.16.4-.16l-.06.26-.34-.1Z" transform="translate(0 0)"/><path class="cls-13" d="M29.43,40.37s0,.22,0,.22h.22l-.26-.21Z" transform="translate(0 0)"/><path class="cls-13" d="M28.51,40.38s.45.24.45.24l.11-.13-.56-.11Z" transform="translate(0 0)"/><path class="cls-13" d="M29.25,41.29l.34-.08,0,.23-.3-.15Z" transform="translate(0 0)"/><path class="cls-13" d="M30.61,41.6s-.17.22-.16.22l.39-.13-.23-.09Z" transform="translate(0 0)"/><polygon class="cls-13" points="30.65 41.05 30.86 41.31 30.86 41.07 30.65 41.05 30.65 41.05"/><path class="cls-13" d="M30.86,40.23s0,.21,0,.21l.25,0-.24-.23Z" transform="translate(0 0)"/><polygon class="cls-13" points="30.24 39.8 30.2 40.07 30.49 40.03 30.24 39.8 30.24 39.8"/><polygon class="cls-13" points="31.52 40.39 31.26 40.66 31.54 40.73 31.52 40.39 31.52 40.39"/><polygon class="cls-13" points="32.2 40.41 32.22 40.76 32.54 40.81 32.2 40.41 32.2 40.41"/><path class="cls-15" d="M28.18,39a.29.29,0,0,0,0,.46,3.07,3.07,0,0,0,1,.41l.62-.38s0-.65-.28-.83-.2-.24-.2-.24l.11-.54h-.38l-.27.31-.09-.27a1.83,1.83,0,0,1-.41-.61c-.14-.35-.15-.42-.27-.31s-.08.38,0,.52a1.59,1.59,0,0,1,.24.58l-.28.15-.32.42.36.08.25,0-.15.22Z" transform="translate(0 0)"/><path class="cls-16" d="M28,38.46s.21-.21.25-.17l.27.38-.34,0L28,38.46Z" transform="translate(0 0)"/><polygon class="cls-16" points="28.41 38.11 28.71 38.02 28.9 38.43 28.65 38.49 28.42 38.34 28.41 38.11 28.41 38.11"/><polygon class="cls-16" points="29.1 37.91 29.36 37.94 29.19 38.33 29.02 38.33 29.1 37.91 29.1 37.91"/><polygon class="cls-16" points="28.74 38.62 29.15 38.52 29.46 38.84 29.39 39.33 28.99 39.48 28.39 39.13 28.37 38.91 28.74 38.62 28.74 38.62"/><path class="cls-15" d="M33.05,42a1.18,1.18,0,0,1-.07-.92,2.26,2.26,0,0,1,.32-.51s-.15-.4-.06-.49.51.1.51.1v.21l.2-.16.13,0s0-.44.26-.54.2.24.2.24l-.25.39.09.07-.23.46s.44-.26.47-.26a3.17,3.17,0,0,1,.14.4l-.52.13L34.11,41s.14.47,0,.63a7.35,7.35,0,0,1-.52.57L33.05,42Z" transform="translate(0 0)"/><polygon class="cls-16" points="33.38 40.25 33.47 40.65 33.63 40.65 33.68 40.29 33.38 40.25 33.38 40.25"/><polygon class="cls-16" points="33.95 40.32 33.86 40.58 34.04 40.76 34.26 40.51 34.13 40.29 33.95 40.32 33.95 40.32"/><polygon class="cls-16" points="34.29 40.91 34.66 40.8 34.62 40.97 34.24 41.03 34.29 40.91 34.29 40.91"/><polygon class="cls-16" points="33.22 40.94 33.03 41.56 33.31 42.03 33.64 41.77 33.99 41.11 33.67 40.88 33.22 40.94 33.22 40.94"/><polygon class="cls-16" points="34.29 39.84 34.2 40.17 34.47 39.84 34.29 39.84 34.29 39.84"/><path class="cls-15" d="M45.28,43.25a1.17,1.17,0,0,1,.46-.8,2.7,2.7,0,0,1,.52-.27l.06.08s0-.46.18-.56.53.41.53.41.08.08.21-.11.52-.46.66-.4.33.17.09.36a3.93,3.93,0,0,1-.66.38s-.15.28-.22.3.3.12.3.12l-.15.39-.46-.07,0-.15s-.59.73-.9.73a.54.54,0,0,1-.6-.41Z" transform="translate(0 0)"/><polygon class="cls-16" points="46.43 42.3 46.47 41.93 46.78 41.91 46.76 42.03 46.43 42.3 46.43 42.3"/><path class="cls-16" d="M46.6,42.55a3.09,3.09,0,0,1,.28-.31l.15.17-.3.18-.13,0Z" transform="translate(0 0)"/><polygon class="cls-16" points="46.91 42.84 47.23 42.8 47.16 43.03 46.92 42.98 46.91 42.84 46.91 42.84"/><path class="cls-16" d="M45.43,43.3c.09-.19.16-.54.31-.64a2.78,2.78,0,0,1,.62-.2l.1.24V43a.47.47,0,0,1-.28.27,4.52,4.52,0,0,0-.53.2l-.21-.15Z" transform="translate(0 0)"/><path class="cls-16" d="M47.31,42.13a2.51,2.51,0,0,1,.48-.39l.2,0a2.7,2.7,0,0,1-.3.27l-.38.07Z" transform="translate(0 0)"/><path class="cls-17" d="M36.73,45.16a12.47,12.47,0,0,1,2,0c.43,0,1.6.2,1.6.2s.41-.33.69,0,0,.85,0,.85.22.61,0,.92c0,0,.49.93-.37.9a4.7,4.7,0,0,1-2,.24c-1.1-.12-2.15-.33-2.15-.33s-.77.32-.89-.1.32-.62.32-.62-.49-.42-.38-.74.19-.57.19-.57-.5-.7.06-.84a.87.87,0,0,1,.86.16Z" transform="translate(0 0)"/><path class="cls-18" d="M30.42,43.59a.93.93,0,0,1,1,0,1.37,1.37,0,0,1,.29.61l-.38.27s-.51.06-.66-.27-.25-.61-.25-.61Z" transform="translate(0 0)"/><path class="cls-18" d="M32.8,47.4a1.18,1.18,0,0,1,.86-.57.75.75,0,0,1,.59.33.46.46,0,0,1-.26.51,2.33,2.33,0,0,1-1.07.1l-.12-.37Z" transform="translate(0 0)"/><path class="cls-18" d="M43.42,45.89a.53.53,0,0,1,.14-.45,1.85,1.85,0,0,1,1.29,0c.18.17-.19.42-.19.42l-.15.2s-.7.53-1.09-.16Z" transform="translate(0 0)"/><path class="cls-19" d="M25.3,39.43,24.7,39l-.06-.3a.88.88,0,0,1-.51-.8l.54.08-.18-.6.2-.48s.35.22.4.2-.14-.25.15-.52a1.91,1.91,0,0,1,.86-.38s0,.45-.09.59.37.11.37.11-.23.79-.53.85.53,0,.53,0-.09.62-.4.7-.22.62-.22.62l-.28.48-.18-.19Z" transform="translate(0 0)"/><path class="cls-19" d="M26.14,41.16l-.54.33a.85.85,0,0,0,0,.62.77.77,0,0,1,.14.47l-.58-.23.24.76s.39,0,.48.23-.16.17-.16.17l-.32.19s.59.43.84.37.91.34.91.34h.4l-.16-.7s-.3,0-.24-.37a4.32,4.32,0,0,0,0-.86l-.51.26s.56-.77,0-1.27l-.37.37,0-.65-.16,0Z" transform="translate(0 0)"/><path class="cls-19" d="M28.31,45.28c-.19.28-.5.55-.27.77s.49.29.48.52l-.57.21.45.59.52,0-.13.32-.27.09.18.17,1-.11,1-.19-.26-.54h-.17s0-1-.33-1.08-.5.6-.5.6,0-1.06-.3-1.22l-.3.56s0-.62-.53-.67Z" transform="translate(0 0)"/><path class="cls-19" d="M32.08,48.09l-.08.34a2.2,2.2,0,0,1,.13.64.49.49,0,0,0,.47.56,1.8,1.8,0,0,1,.65.25l-.48.34a.4.4,0,0,0,.44.37,2.57,2.57,0,0,0,.86-.18h.34l-.26.24,0,.43s.91-.25,1-.62,1.41-1.11,1.41-1.11-.73-.07-.84-.23-.62-.28-.62-.28-.4-.6-.61-.6-.32.71-.32.71-.34-.71-.77-.74-.45.09-.45.09l.11.31a.66.66,0,0,1-.46-.22,1.17,1.17,0,0,0-.55-.31Z" transform="translate(0 0)"/><path class="cls-20" d="M24.76,40.07l.42,0,0,.46-.43.36-.46-.3.27-.35L24.46,40l.07-.25.26.11,0,.19Z" transform="translate(0 0)"/><polygon class="cls-20" points="26.14 40.32 25.77 39.86 26.04 39.59 26.49 39.72 26.5 39.51 26.74 39.47 26.85 39.79 26.69 39.85 26.85 40.23 26.41 40.38 26.14 40.32 26.14 40.32"/><polygon class="cls-20" points="27.75 43.9 28.19 43.8 28.08 43.46 28.42 43.47 28.51 43.85 28.69 44.22 28.3 44.37 27.72 44.2 27.75 43.9 27.75 43.9"/><polygon class="cls-20" points="27.03 44.49 27.21 44.84 27.19 45.08 27 45.27 26.68 45.3 26.48 45.12 26.56 44.75 26.47 44.74 26.57 44.38 26.75 44.52 27.03 44.49 27.03 44.49"/><path class="cls-20" d="M31.22,47.66l.39.22.39-.2.1-.34L31.94,47l-.23-.16-.28.14,0,.12a2,2,0,0,0-.24.4c0,.08,0,.21,0,.21Z" transform="translate(0 0)"/><polygon class="cls-20" points="31.26 48.54 30.76 48.11 30.75 48.4 30.27 48.59 30.45 48.88 30.86 49.1 31.3 48.91 31.26 48.54 31.26 48.54"/><polygon class="cls-21" points="31.74 47.72 32.18 48.45 31.86 47.61 31.74 47.72 31.74 47.72"/><path class="cls-21" d="M31.14,48.57s.77-.14.77-.14l-.72.32-.05-.18Z" transform="translate(0 0)"/><path class="cls-21" d="M27,44.91l1,.22L27.1,45l-.06-.1Z" transform="translate(0 0)"/><polygon class="cls-21" points="28.08 44.22 27.93 45 27.92 44.12 28.08 44.22 28.08 44.22"/><polygon class="cls-21" points="25.03 40.44 25.81 40.93 25 40.54 25.03 40.44 25.03 40.44"/><polygon class="cls-21" points="26.23 40.24 25.86 41.06 26.36 40.27 26.23 40.24 26.23 40.24"/><polygon class="cls-22" points="25.39 39.35 25.89 41.75 26.1 41.46 25.39 39.35 25.39 39.35"/><polygon class="cls-22" points="28.25 45.67 27.33 44.19 28.38 45.5 28.25 45.67 28.25 45.67"/><polygon class="cls-22" points="32.13 48.46 30.41 47.46 30.23 47.54 32.24 48.72 32.13 48.46 32.13 48.46"/><polygon class="cls-22" points="35.69 49.22 37.51 49.38 35.85 49.46 35.69 49.22 35.69 49.22"/><path class="cls-23" d="M51,41a2.22,2.22,0,0,0-.18-1.15,2.23,2.23,0,0,1-.2-1.06l-.07-1.08.73.85a1.52,1.52,0,0,1,.09-1,3.28,3.28,0,0,1,.56-.76L52.22,38l.3-.28a2.52,2.52,0,0,1,.23,1.39c-.14.6-1.18,1.39-1.18,1.39l-.47.6L51,41Z" transform="translate(0 0)"/><path class="cls-24" d="M50.68,38.27a1.65,1.65,0,0,0,.07,1,3.75,3.75,0,0,1,.21.53l-.13-1.11-.15-.41Z" transform="translate(0 0)"/><path class="cls-24" d="M51.76,37.22a1,1,0,0,0-.37.68c0,.17-.13,1.5-.13,1.5l.35-1.35,0-.43.1-.4Z" transform="translate(0 0)"/><path class="cls-24" d="M52.4,38a1.5,1.5,0,0,0-.3.81,9.56,9.56,0,0,1-.51,1.37l.67-1,.17-.64,0-.54Z" transform="translate(0 0)"/><path class="cls-23" d="M50,41.63c-.5.51-.85.74-.89,1A7.86,7.86,0,0,0,49,44.12l.07,1a12.22,12.22,0,0,0,1.33-.64c.24-.18.81-.36,1-1S52,42,52,42l-1,.39.1-1a1.45,1.45,0,0,0-.62.54c-.15.33-.46.85-.46.85A2.71,2.71,0,0,1,50,42a.64.64,0,0,0,0-.39Z" transform="translate(0 0)"/><path class="cls-24" d="M49.59,42.35a4.27,4.27,0,0,0-.43,1.17,5.9,5.9,0,0,0,0,.95,1.23,1.23,0,0,0,.74-.08c.23-.18,1.5-1.7,1.5-1.7l-.53-.17-.28.86-1.13.92.29-.95.89-1.08-.89.73-.45,1,.15-1.14.1-.48Z" transform="translate(0 0)"/><path class="cls-23" d="M45.21,48.22a2.38,2.38,0,0,0,.65-1.06,2.63,2.63,0,0,1,.64-1A6.58,6.58,0,0,0,47.39,45l.18,0a10.14,10.14,0,0,0-.44,1.32s.91-1,1.65-.87l-.48,1.08.38-.18s-.17,1.47-.83,1.6a15.36,15.36,0,0,1-2.11.09l-.43.33-.1-.21Z" transform="translate(0 0)"/><path class="cls-24" d="M47.07,45.67l-.69.81-.49,1.2.7-1.1s.48-.91.48-.91Z" transform="translate(0 0)"/><polygon class="cls-24" points="48.41 45.66 47.56 46.16 47.15 46.67 46.42 47.22 47.48 46.68 47.83 46.19 48.41 45.66 48.41 45.66"/><polygon class="cls-24" points="48.28 46.81 46.39 47.91 47.46 47.62 48.28 46.81 48.28 46.81"/><path class="cls-23" d="M39.16,49.2h1s.8,0,.86,0,.78-.61.78-.61L43.68,48,42,48.93a3.22,3.22,0,0,1,1.4-.24,5,5,0,0,1,1.43.16l-1.39.79,1,.19a4.15,4.15,0,0,0-1.17.44,1.55,1.55,0,0,1-1.77.24c-.63-.43-1.88-1.06-1.88-1.06l-.48,0,0-.21Z" transform="translate(0 0)"/><path class="cls-24" d="M41.47,50.24h.06c.48,0,1.68-.14,1.74-.18a1.19,1.19,0,0,0,.2-.24s-1.63.06-1.81.08-.88-.06-.88-.06l.69.41Z" transform="translate(0 0)"/><path class="cls-24" d="M43.6,48.8c-.57.13-1.81.29-1.81.29l-.34.38s-1.39-.08-1.23,0l1.23.22h.71l.2-.3,1.24-.53Z" transform="translate(0 0)"/><path class="cls-25" d="M38.05,48.92a6.38,6.38,0,0,0,0,1,.37.37,0,0,1-.4-.34c-.08-.39.4-.63.4-.63Z" transform="translate(0 0)"/><path class="cls-26" d="M38.57,49c0,.46-.06.95,0,.91s.49-.12.37-.47a.73.73,0,0,0-.37-.44Z" transform="translate(0 0)"/><path class="cls-25" d="M37.7,50l.32.15a2.42,2.42,0,0,0-1,.52l-.68.65.1-.57L37.7,50Z" transform="translate(0 0)"/><path class="cls-26" d="M38.51,50.12c-.16.14-1,.79-1,.79l-.28.43.23.33s.45-.38.81-.66a3.32,3.32,0,0,0,.59-.63.72.72,0,0,0,.39.47,5.85,5.85,0,0,1,.79.4l.56,0a5.36,5.36,0,0,1-1.12-.54,5.49,5.49,0,0,1-.57-.78l-.42.21Z" transform="translate(0 0)"/><polygon class="cls-20" points="44.72 47.14 44.59 47.79 44.82 47.96 45.18 47.64 44.72 47.14 44.72 47.14"/><polygon class="cls-20" points="45.49 48.79 45.64 49.3 46.17 48.84 45.77 48.67 45.49 48.79 45.49 48.79"/><path class="cls-20" d="M48.2,44a.63.63,0,0,0,0,.72l.39-.16v-.36L48.2,44Z" transform="translate(0 0)"/><polygon class="cls-20" points="49.47 45.44 49.6 45.21 49.91 45.24 50.02 45.59 49.76 45.82 49.39 45.69 49.47 45.44 49.47 45.44"/><polygon class="cls-20" points="50.4 40.21 50.53 40.41 50.46 40.82 50.1 40.88 49.95 40.72 50 40.28 50.4 40.21 50.4 40.21"/><path class="cls-20" d="M52.21,40.72v.43l-.41.32s-.36-.68.41-.75Z" transform="translate(0 0)"/><path class="cls-13" d="M33.46,31.85s-2.34.43-.66-2a1.27,1.27,0,0,1,.61-.85c.53-.31.79-1,.48-1.2,0,0,.42.05.45.24a1.35,1.35,0,0,0,.26-.78,4.55,4.55,0,0,1,.32.86,6.45,6.45,0,0,0,.34-1,1.94,1.94,0,0,1,.14.59.46.46,0,0,0,.32-.6s.59.29.52.65c0,0,.29-.12.92.19s.88.12.88.12-.06.2-.14.24a3.48,3.48,0,0,1,.86.72.76.76,0,0,0-.2-1C38,27.72,36.85,27.5,37,27a.83.83,0,0,1,1-.64.68.68,0,0,1,.81-.54,10.15,10.15,0,0,1,3.92,1c1.2.71,1.6,1,2.3.77,0,0,0,.4-.15.54a10,10,0,0,1,2.47,2.81c.52,1.11.62,2.28,1.74,2.95,0,0-.06.11-.41.19a10.17,10.17,0,0,1-.21,3.67,14.47,14.47,0,0,1-.58,3.38s.13-4.89-.51-5.38a24.37,24.37,0,0,1,0,4.73,13.41,13.41,0,0,0-.48-3.14A10,10,0,0,1,46.64,40s-.37-2.91-.76-3.27a4.3,4.3,0,0,1,0,1.52s-.32-1.61-.74-1.91a9.69,9.69,0,0,1,.15,1.51s-.75-1.68-1.17-1.9a14.07,14.07,0,0,1,.37,1.37,10.46,10.46,0,0,0-1.14-1.81A8.68,8.68,0,0,0,43.87,37s-.84-1.18-1.22-1.3-.33.14-.54-.12-.46-.59-.74-.45a5.44,5.44,0,0,1,.51,2.2s4.17,2.89,4.65,3.41-.38.59-.62.65a1.19,1.19,0,0,1-.57-.06s-.15.41-.83.39c0,0-.65.35-1.06-.1a1,1,0,0,1-1-.3,6.2,6.2,0,0,0-.72-.71.49.49,0,0,0,0,.54l-.36-.18a1,1,0,0,0,0,.37,1.54,1.54,0,0,0,.6.55c.21.07.7,0,.82.22s0,.34,0,.34l-.37.56s-.5.3-.67-.36l-1.13,0-.53.53-.39,0-.32-.41v-.3h-.45l-.18-.59s-.08-.21.11-.21a2.71,2.71,0,0,0,.87,0,.66.66,0,0,0,.35-.64l-.3.34L39,40.17l-.09.31-.83-1.11s.09.8-.12.92-.44-.43-.44-.43a9.33,9.33,0,0,1-1.07.27c-.27,0-.8.1-.41-.27l-1.44-.37.36-.35-.42,0s.27.21-.07.24a1.06,1.06,0,0,1-.52-.07c-.07,0-.47,0-.47,0a2.15,2.15,0,0,1-.87.21,1.51,1.51,0,0,1-.51-1.07c.06-.21.23-.25.3-.21s-.08-.64.39-.39c0,0,0-.66.69-.36l.34-.14a7.82,7.82,0,0,1,1.41.46.55.55,0,0,1,.27.6h.58s-.62-.57-.58-.87a.92.92,0,0,1,.37-.07c.1,0-.52-.56-.35-1.21a1,1,0,0,1-.2-.39L35,36l-.45-1.81a1.45,1.45,0,0,1,.42-1.29s-.19,0-.08-.23.59-.92.63-1l-.19,0,.37-.55a1.63,1.63,0,0,0,.21-.4l-.17,0-.2-.16a5.61,5.61,0,0,1-1.11.51c-.2,0-.27,0-.4-.14a.58.58,0,0,0-.9-.06c-.23.25-.19.71.37,1Z" transform="translate(0 0)"/><path class="cls-9" d="M33.71,29.81l.72-.36a.23.23,0,0,0-.09-.31L34,28.89l.18.46-.2-.12-.19.21.09.1-.2.27Z" transform="translate(0 0)"/><path class="cls-11" d="M33.15,29.83a5,5,0,0,0,2.11.37c.14.31,0,.36,0,.43a3.46,3.46,0,0,1-.81.37.19.19,0,0,1,.16-.15c.14,0,.33-.1.34-.15a.74.74,0,0,0,0-.15,1.23,1.23,0,0,0-.75-.12,2.78,2.78,0,0,1-.69.19c-.25,0-.51.13-.56.3a.84.84,0,0,0,.17.87s-.79,0-.86-.52.67-1.54.9-1.44Z" transform="translate(0 0)"/><path class="cls-9" d="M34.05,30.9l.32-.3a.22.22,0,0,1,.19-.07,2.31,2.31,0,0,1,.28,0l-.79.34Z" transform="translate(0 0)"/><path class="cls-11" d="M38.79,41.77a3.4,3.4,0,0,1,.18.59s.43,0,.49,0a4.24,4.24,0,0,0,.78-.38c.11-.11.33-.18.3-.3s-.44-.31-.44-.31a.6.6,0,0,1-.2.3.83.83,0,0,1-.58.13c-.22,0-.56-.15-.53,0Z" transform="translate(0 0)"/><path class="cls-11" d="M42.57,42a1.59,1.59,0,0,1-.52,0,2.7,2.7,0,0,1-.68-.48,3.59,3.59,0,0,0-.41-.2l-.33.55s.23.22.39.22.6.06.66.17.13.45.22.52.21.23.42.17l.43-.6s0-.3-.18-.32Z" transform="translate(0 0)"/><path class="cls-11" d="M39.53,42.42c.11,0,1-.51,1-.51s.24.31.32.31a4.48,4.48,0,0,1,.64,0c.06,0,.16.29.16.29l-1.06,0-.54.54-.31,0a2.67,2.67,0,0,1-.3-.34c0-.05,0-.29.08-.29Z" transform="translate(0 0)"/><path class="cls-8" d="M38.69,41.81l.17.58c0,.07,0,.09-.1.12a.41.41,0,0,0-.31.41v.29L38.32,43a.88.88,0,0,1,.27-1.19l.07-.05,0,.09Zm0,.62h0s-.09-.33-.14-.49a.67.67,0,0,0-.23.74.56.56,0,0,1,.35-.29s0,.08,0,0Z" transform="translate(0 0)"/><path class="cls-27" d="M38.63,41.83s.16.53.17.58-.44.08-.42.52a.81.81,0,0,1,.25-1.1Z" transform="translate(0 0)"/><path class="cls-8" d="M39.37,42.8l.27.36,0,.07-.08,0s-.31.11-.25.6l0,.29-.16-.24s-.49-.73,0-1.13l.06,0,0,.06Zm.11.38h0l-.18-.24a.6.6,0,0,0-.07.66.63.63,0,0,1,.25-.42Z" transform="translate(0 0)"/><path class="cls-27" d="M39.31,42.84l.27.36s-.35.13-.29.68c0,0-.45-.68,0-1Z" transform="translate(0 0)"/><path class="cls-8" d="M42.49,42.92l.32-.48,0-.08.06.08a.92.92,0,0,1,.06,1l-.1.16,0-.19s-.06-.46-.28-.39l-.18,0,.1-.16Zm.37-.32h0l-.19.29a.48.48,0,0,1,.27.32.77.77,0,0,0-.08-.61Z" transform="translate(0 0)"/><path class="cls-27" d="M42.55,43l.31-.48a.85.85,0,0,1,.06.93s-.08-.53-.37-.45Z" transform="translate(0 0)"/><path class="cls-28" d="M32.14,38.51a2.28,2.28,0,0,0,.43.92c.2.13.35-.15.35-.15l-.48-1s-.29-.15-.3.18Z" transform="translate(0 0)"/><path class="cls-28" d="M32.52,37.86a.67.67,0,0,0-.06.38,10.57,10.57,0,0,0,.51,1c.06,0,.07.09.14.09a.57.57,0,0,0,.24-.09s-.17-.44-.22-.58-.07-.4-.11-.48-.12,0-.15-.17-.22-.18-.35-.16Z" transform="translate(0 0)"/><path class="cls-28" d="M33,37.48a.49.49,0,0,0-.18.3.47.47,0,0,0,.2.32c.09.06,0,.38.11.55s.16.51.29.55.28.06.3,0-.19-.49-.24-.63a2,2,0,0,1,0-.7c0-.17,0-.31,0-.34a.46.46,0,0,0-.43-.07Z" transform="translate(0 0)"/><path class="cls-28" d="M34.1,38.46a1.3,1.3,0,0,1,.32.48c0,.1.13.16.11.25s-.44.13-.61,0a.52.52,0,0,1-.24-.37,1.25,1.25,0,0,0-.11-.31,3.46,3.46,0,0,1,.37-.13.2.2,0,0,1,.16,0Z" transform="translate(0 0)"/><path class="cls-10" d="M33.2,29.78c.25,0,.32,0,.37,0a1.28,1.28,0,0,0,.31-.45,3.14,3.14,0,0,0,.23-.93,1,1,0,0,1-.4.55c-.31.18-.41.21-.48.36a2.19,2.19,0,0,1-.14.27l0,.21.13,0Zm5.45-3h0l-.22-.6.23-.23.85,0,1.55.26,1.36.51s.85.49.92.55.66.32.66.32l1,.15-.28.34-.51.26-.77-.09-.22-.94-.11.78-.57-.19-.19-.16-.81-1.14.14.87-.8-.79-.65-.17.68.75L40.24,27h-.67l-.92-.24Zm3,.94h0l.1.61.6,0L42,27.71l-.39,0Zm.71.86h0l.55.08.31.46.41-.06v-.49l-.77-.39-.5.4Zm-.57,0h0l.3.12.68.19.59.53,0,.56-.36-.4-1.28-.44,0-.56Zm0,1.17h0l.35.77.55.39.32.3.38-.32-.23-.73-.54-.31-.83-.1Zm0,1.27h0l.24-.07.43.19.41.46-.17.37-.51,0-.41-.43V31Zm-.55,1.23h0l-.13.27.41.37.52,0,0-.56-.43-.41-.34.29Zm.43,1.15h0l.3-.22.3.35-.15.35-.46-.19v-.29Zm2.26-4.08h0l.27-.29.66.48.41.63.19.74.63,1.39-.86-1.3-.29-.6-.83-.71-.18-.34Zm-.35,1h0l.14.62.67,1,.82.74.15-.19-.08-.63-.46-.71-.91-1-.33.23Zm-.43,1.24h0l.34.72.71.48L43.69,32l-.27-.59-.31.16Zm-.82.94h0l.8-.3.12.67-.09.85L42.44,33l-.15-.49Zm5.26,1h0l1.09.11-.52-.7-.63-1.54-.43-.9-.65-.85-.94-1-.67-.41-.67.33,1.42.54-.49.2.89.54L45.5,30l1.29.65-.45.11.88.65-.37.09,0,.43.85.94.11.47-.31.18Zm-1.26-.38h0l.32.41.4-.1-.09-1L45.79,31l.71,1.82-.21.32Zm-.85.55h0l.58,0v-.55l-.54-1.22.14.87-.12.37-.31.12,0,.33.29.11Zm-1.24-.22h0l.55,0v-.77L44,31.66l.33,1,0,.48-.13.35ZM43.12,34h0l.29-.34v-.58l-.17-.86.63,1.11L43.8,34l-.68,0ZM42,34.49h0l.5.09.19-.45-.36-1,.08.67-.41.64Zm-.11.27h.48l0,.19,1,1-1.06-.59-.46-.57Zm.75-.11h0l.31-.17.32.52.53.48L43,35.17l-.39-.52Zm4.72-.95h0l.53.16v.9l-.07.18-.23-.12-.11-.46-.12-.66Zm.85.18h0l.35.15s.17,1.37.17,1.41,0,1.47,0,1.47l-.59-1.74.1-1.29Zm-1.34-.14h0l.19,1,.79.95-.55-1.09-.15-.75-.28-.07Zm-3.41.45h0l.21.79L44.88,36l-.48-.8-.33-1-.62,0Zm1-.35h0l.4,0L45.2,35l.64,1-.26.23-.65-.88-.48-1.56ZM45.8,34h0l0,.87.46.91.5,1L46.69,36l-.52-1.09.1-.89Zm-4.45,0h0l0,.95h.25l.08-.62L41.35,34Zm-.56-.08h0l.19-.24v-.47l-.2-.29.12-.22.37.31.15.49-.4.68-.22-.26ZM40,31.41h0s.21-.74.21-.74l-.46-.92.42.25.16-.09-.11-.46-.81-.54.41,0,.49.35-.48-.84-.56-.27.48,0L39,27.62h-.57l.22-.23-.34-.23-.58.07.64-.29-.28-.16-.35-.07.39-.13L38,26.44l-.39,0-.26.22-.15.31.14.31.42.19.64.3.37.25.2.34.1.56v.36l.53,1.15s.37.91.36.94Zm0,.25h0l.42-.31.25-.61.06-.92-.19-1-.34-.57-.61-.78-.54-.21.57.52.6.83.27.81,0,1.1-.16.65s-.35.5-.35.51Zm.49.16H40l0,1.12.73-.23L41,32.2l-.51-.38Zm.34-.8h0l.68.26-.12.54h-.27l-.62-.34.33-.46ZM41,30h0l.57.25v.65l-.44,0-.31-.25L41,30Zm-.14-1.25h0l.68.27,0,.67-.14.25-.5-.17v-1Zm-1-1.3h0l.55,1,.54.18.51.14-.13-1-.57-.26-.9,0Zm-5.8,11.65h0l.42-.18.08.16-.05.2-.29,0-.16-.16Zm.71-.51h0l-.28.17.1.08.17.19.43-.25-.18-.2Zm.66-.48h0l.06.31-.13.21L35,38.45l.34-.51.06.16Zm-.5.95h0l.38-.23.27.28-.65-.05Zm1.9.19h0l-.3-.63-.4-.12-.78.27.41.35.81.32.26-.19ZM35,39.46h0l.05-.17.17-.13,1.26.32-.28.29L35,39.46Zm2.28-.4h0l.29.73-.86.23-.55,0,.34-.42.6-.39.18-.17Zm1.06.1h0l.38.41.22.36h-.19l-.43-.6,0-.18Zm-.86-.88h0l.34,0,.26.6-.62-.42,0-.2Zm-.05.34h0l0,.34.16.52.35.66.12-.7v-.21l-.67-.61Zm4.43,1.07h0l2.23,2-.33-.06L41.78,39.8v-.16l0,0Zm.2-.87h0l-.05.29,2.68,2.43.42-.06-3-2.66Zm.14-.7h0l-.07-.06v.28l3.38,2.86.31.07.29-.08-3.92-3.07Zm0-.5h0l0,.22,4.42,3.22-.09-.29L42.2,37.62Zm-1.05,1.75h0l0,.42.13.14.06.44.23.5.09-.84.06-.72-.12-.18-.19.52-.24-.28Zm-.57.71h0l0-.28.52.26.1.34,0,.69L41,40.77l-.39-.69Zm-.73-.44h0l.08.61.27.57.49.62.23-.36-.27-.55-.8-.89Zm-.7.45h0l.54.15.28.48,0,.48s-.74-1.1-.77-1.11Zm-3.28-2.52h0l.56.27-.09.51L36,38.07l-.21-.36.1-.14Zm.66-.07h0l.44.57.28.17-.07.57-.26.34-.26-.49-.16-.17,0-1Zm4.9-2h0l-.17,1.17.27.63.15,1.1,0,.41.16.24.14-.78,0-.81,0-.28,0-.55-.4-1.13Zm-.89.89h0l.56.35.32.71.11,1-.1.83L41.16,39l-.64-2,0-.63Zm-.88.25h0l.72.46.29.81.38,1.28-.1.56-.27-.21-1-1.9,0-1Zm-.9.69h0l0,.61.8,1,.84,1,.09-.27-.51-1-.46-.88-.79-.44Zm-.79.32h0l-.07.63.24.56.62.65,1,.55-.27-1-.67-.89L38,37.66Zm-2.24-1.23h0l-.08.25.22.46.39.49.05-.3-.3-.69-.28-.21Zm-.14-1h0l-.07.28.14.33.43.27.33.7.78.92.56.21-.15-.87-.87-1-.36-.23-.79-.61ZM40,33.23h0l.12.69-.14.65.37.94.19.66.58.35.16-.92-.07-.83-.41-.59-.21-.32v-.3L40,33.23Zm-.6,1.46h0l-.14.63.32,1,.75.63-.13-1.18-.27-.9-.53-.15Zm-1,.45h0l.69.28.45,1.12.06,1.08-.86-.54-.14-.67-.41-.48.21-.79Zm-1.46.1h0l0,.84.66,1,1,.72s-.15-1.14-.17-1.18l-.56-.6-.48-.22-.45-.52Zm2.24-2.13h0l.5,0,.24.83-.06.74-.4-.34-.13-.47-.12-.56,0-.22Zm-.62-.26h0l-.17.26-.13.58.09.66,0,.56.56.3.3-.73V34.1L39,33.28l-.52-.43Zm-2.93,0h0l-.22,1.24.07,1-.06.55-.25.15-.28-1-.17-.88.12-.47.25-.42.13-.17.43-.06,0,.08Zm.07.53h0l.74-.21.29-.23,0,1.28.07.66-.16,1.14s-.87-.58-.89-.73l-.22-1.09.19-.82Zm1.22-.1h0l.4.5.36,0,.46-.33.08,1-.09.88-.16.54-.69-.58-.38-1,0-.93ZM34.5,29.55h0l.54.37.63.06.4.2-.24.36-.28-.14-.09-.28h-.69L33.83,30l.67-.44Zm.24-.21h0l-.15.06.49.42.4-.06L36,30l.32-.09L36,29.48l-.3-.06-.63.1-.35-.18Zm1,2.41h0l.11.1-.24.86-.56,0,.69-1Zm.84-.39h0l-.58.29-.37,1.62.83-.27.43-.86,0-.45-.28-.33Zm-.34-1.17h0l-.13.44-.3.85.5-.14.27-.38,0-.53-.31-.24Zm.84-.12h0l.15.31h.18l0,.66-.28.59-.39-.49v-.81l.37-.27Zm.43,1.21h0l.77.39.06.68-.16.72-.55.57-.23,0-.46-.6-.06-.39.2-.62.24-.58.19-.21Zm.86-.5h0l.5.49.33-.59.28-.21.19,1.23.14.44v.37l-.22.37-.22.13-.65-.24-.28-1.08-.15-.27.07-.64Zm-3.62-1.6h0l.65-.63.38-.19,1.09,0,.56.16h.52l.51.28.45.49.25.63,0,.53-.26.56-.57-.62-.22-.78-.33-.52H37.1l.56.27.28.62.19.49v.91l-.52-.35-.14-.86L37.24,30l0-.28-.39-.6-.66-.35H36l.16-.15-.19.06-.15.24h-.21l-.35.36.46-.16L36,29l.58.17.3.34v.66L36.45,30l-.32-.55.23-.15h-.93l-.31.12-.38-.24Zm1.6-1h-.05v-.32l.29,0,.27.05.32.14.66.27L37,28.26l-.68-.06Zm-.4-.77h0l-.28.41-.19.46.65-.1.06-.27,0-.33-.19-.17Zm-.61.15h0l-.25.74-.15.38.16,0,.16-.2.2-.39-.12-.49Zm-1.09.63h0l0,.22.06.25,0,.19.18.21.16,0,.19-.39.09-.49-.21-.49-.08.33-.22.24-.18-.05Z" transform="translate(0 0)"/><path class="cls-29" d="M32.32,34.63c0,.32-.38,1.21.37,1.45s.85,0,1.32.05a1.68,1.68,0,0,1,1.24.92A1.67,1.67,0,0,1,35,38.36l-.58.35s-.17-.31-.32-.36a1.33,1.33,0,0,0-.53.12,1,1,0,0,1,0-.49,3.12,3.12,0,0,0,0-.5s.23-.13.3-.17-.48,0-.8,0-1.2-.4-1.27-.69-.3-.82-.2-1.05a6.82,6.82,0,0,1,.72-.91Z" transform="translate(0 0)"/><polygon class="cls-12" points="31.4 37.49 31.25 37.84 31.5 37.58 31.4 37.49 31.4 37.49"/><path class="cls-12" d="M31.77,38.42s0-.19,0-.19l-.51,0-.12.38.21-.23.44.06Z" transform="translate(0 0)"/><polygon class="cls-12" points="32.04 38.69 31.54 38.65 32.06 38.86 32.04 38.69 32.04 38.69"/><polygon class="cls-12" points="31.52 34.53 31.75 34.89 31.98 34.86 31.72 34.63 32.33 34.52 31.52 34.53 31.52 34.53"/><polygon class="cls-12" points="31.41 35.12 31.37 34.86 31.87 35.03 31.5 35 31.41 35.12 31.41 35.12"/><polygon class="cls-12" points="31.24 35.22 31.42 35.56 31.46 35.23 31.24 35.22 31.24 35.22"/><polygon class="cls-12" points="31.27 35.85 31.65 36.03 31.83 36.21 32.1 36.2 31.77 35.85 31.27 35.85 31.27 35.85"/><polygon class="cls-13" points="31.52 35.57 32.03 35.86 31.79 35.46 31.52 35.57 31.52 35.57"/><polygon class="cls-12" points="31.31 36.23 31.48 36.57 31.51 36.27 31.31 36.23 31.31 36.23"/><polygon class="cls-13" points="31.69 36.58 32.12 36.53 31.91 36.63 31.69 36.58 31.69 36.58"/><path class="cls-13" d="M34.29,36.34l.09.42s-.14.59-.13.58l.37-.56-.33-.44Z" transform="translate(0 0)"/><path class="cls-13" d="M33.34,36.35l.41.61v-.39l-.4-.22Z" transform="translate(0 0)"/><polygon class="cls-13" points="32.67 36.24 32.8 36.81 32.76 37.09 33.05 36.81 32.67 36.24 32.67 36.24"/><polygon class="cls-13" points="32.31 36.06 32.14 36.37 32.44 36.31 32.31 36.06 32.31 36.06"/><path class="cls-13" d="M35,37.68l-.43.08L34,37.63l.55.37.45-.32Z" transform="translate(0 0)"/><polygon class="cls-13" points="33.85 37.89 33.68 38.2 33.98 38.13 33.85 37.89 33.85 37.89"/><polygon class="cls-13" points="33.91 42.39 34.27 42.62 34.24 42.4 33.91 42.39 33.91 42.39"/><path class="cls-23" d="M25.74,36.82l-.42,1,0,1.38L25,38.91l-.36-.49L25,38.3l-.13-.85s.34,0,.34,0,.13-.65.13-.65Z" transform="translate(0 0)"/><polygon class="cls-23" points="26.11 41.93 27.09 44.13 26.04 43.67 26.34 43.37 25.51 42.84 26.1 42.62 26.11 41.93 26.11 41.93"/><path class="cls-23" d="M28.56,46l.68.82.7.69-.81.08s0-.48-.09-.48S28.3,47,28.3,47l.47-.36L28.56,46Z" transform="translate(0 0)"/><polygon class="cls-23" points="32.48 48.81 33.85 49.55 35.8 49.54 34.68 50.2 34.29 49.84 33.43 50.22 33.56 49.77 32.64 49.28 32.48 48.81 32.48 48.81"/></g></g></g></svg>