<svg id="Capa_1" data-name="Capa 1" xmlns="http://www.w3.org/2000/svg" xmlns:xlink="http://www.w3.org/1999/xlink" viewBox="0 0 1916.12 660.86"><defs><style>.cls-1,.cls-9{fill:none;}.cls-2{opacity:0.3;}.cls-3{clip-path:url(#clip-path);}.cls-4{opacity:0.4;}.cls-5{opacity:0.1;}.cls-6{clip-path:url(#clip-path-2);}.cls-7{clip-path:url(#clip-path-3);}.cls-8{fill:#00c8f0;}.cls-9{stroke:#999;stroke-miterlimit:10;stroke-width:0.84px;}.cls-10{fill:gray;}.cls-11{clip-path:url(#clip-path-4);}.cls-12{clip-path:url(#clip-path-5);}.cls-13{fill:#011a31;}.cls-14{clip-path:url(#clip-path-6);}.cls-15{clip-path:url(#clip-path-7);}</style><clipPath id="clip-path"><polygon class="cls-1" points="1929.16 1629.65 6.01 1629.65 3.81 956.41 1929.16 956.41 1929.16 1629.65"/></clipPath><clipPath id="clip-path-2"><rect class="cls-1" x="3.81" y="956.41" width="1925.35" height="673.24"/></clipPath><clipPath id="clip-path-3"><polygon class="cls-1" points="4580.63 1629.65 2657.48 1629.65 2655.28 956.41 4580.63 956.41 4580.63 1629.65"/></clipPath><clipPath id="clip-path-4"><rect class="cls-1" x="-2848.72" y="956.41" width="1925.35" height="673.24"/></clipPath><clipPath id="clip-path-5"><polygon class="cls-1" points="4580.63 723.65 2657.48 723.65 2655.28 50.41 4580.63 50.41 4580.63 723.65"/></clipPath><clipPath id="clip-path-6"><polygon class="cls-1" points="1921.73 667.05 -1.42 667.05 -3.62 -6.19 1921.73 -6.19 1921.73 667.05"/></clipPath><clipPath id="clip-path-7"><rect class="cls-1" x="-3.62" y="-6.19" width="1925.35" height="673.24"/></clipPath></defs><title>patron 1 contacto</title><g class="cls-2"><g class="cls-7"><g class="cls-4"><g class="cls-5"><polygon class="cls-8" points="1997.23 627.6 1889.66 767.79 2006.59 696.04 1997.23 627.6"/><polygon class="cls-8" points="1868.43 623.33 1951.25 532.54 2139.61 547.65 1868.43 623.33"/></g><polyline class="cls-9" points="2245.55 741.97 2214.53 659.87 2139.61 547.65 1868.43 623.33 1723.32 796.05 1889.66 767.79 1997.23 627.6 1868.43 623.33 1889.66 767.79"/><polyline class="cls-9" points="2214.53 659.87 2119.61 637.82 2178.27 783.95 2212.79 921.07 2146.56 947.39 2264.18 1041.4 2325.15 954.5 2239.03 876.6 2146.56 947.39 2178.27 783.95 2139.61 547.65 2065.62 478.38 1910.02 447.23 1868.43 623.33 1951.25 532.54 2065.62 478.38"/><polyline class="cls-9" points="1910.02 447.23 1951.25 532.54 2139.61 547.65 2119.61 637.82 1997.23 627.6 2178.27 783.95 2239.03 876.6"/><polyline class="cls-9" points="1889.66 767.79 2006.59 696.04 1997.23 627.6"/><path class="cls-10" d="M1866.54,627.47a4.55,4.55,0,1,1,6-2.24A4.55,4.55,0,0,1,1866.54,627.47Z"/><path class="cls-10" d="M1907.58,452.54a5.85,5.85,0,1,1,7.75-2.88A5.83,5.83,0,0,1,1907.58,452.54Z"/></g></g></g><g class="cls-2"><g class="cls-11"><g class="cls-4"><polyline class="cls-9" points="-517.45 741.97 -486.43 659.87 -411.51 547.65 -140.33 623.33 4.78 796.05 -161.56 767.79 -269.13 627.6 -140.33 623.33 -161.56 767.79"/></g></g></g><g class="cls-2"><g class="cls-12"><g class="cls-4"><polyline class="cls-9" points="2214.53 -246.13 2119.61 -268.18 2178.27 -122.05 2212.79 15.07 2146.56 41.39 2264.18 135.4 2325.15 48.5 2239.03 -29.4 2146.56 41.39 2178.27 -122.05 2139.61 -358.35 2065.62 -427.62 1910.02 -458.77 1868.43 -282.67 1951.25 -373.46 2065.62 -427.62"/></g></g></g><rect class="cls-13" width="1918.12" height="660.86"/><g class="cls-2"><g class="cls-14"><g class="cls-4"><g class="cls-5"><polygon class="cls-8" points="74.5 187.96 136.47 186.78 124.53 265.65 74.5 187.96"/><polygon class="cls-8" points="285.88 311.67 186.07 402.25 334.6 369.38 285.88 311.67"/><polygon class="cls-8" points="316.64 481.95 191.88 518.23 374.41 519.74 316.64 481.95"/><polygon class="cls-8" points="-47.81 446.94 70.62 386.93 136.07 415.14 -47.81 446.94"/><polygon class="cls-8" points="348.38 99.35 410.76 151.16 322 231.68 348.38 99.35"/><polygon class="cls-8" points="191.16 55.21 270.47 148.97 208.62 293.78 191.16 55.21"/><polygon class="cls-8" points="-26.79 8.05 15.96 78.28 -136.24 95.96 -26.79 8.05"/><polygon class="cls-8" points="-122.69 332.92 29.2 311.8 -33.47 359.08 -122.69 332.92"/><polygon class="cls-8" points="32 691.78 123.03 674.98 87.32 536.57 32 691.78"/></g><line class="cls-9" x1="103.11" y1="-38.88" x2="99.97" y2="99.9"/><polyline class="cls-9" points="-136.24 95.96 -26.79 8.05 15.96 78.28"/><polyline class="cls-9" points="32 691.78 87.32 536.57 123.03 674.98 213.43 599.24 87.32 536.57 186.07 402.25 334.6 369.38 208.62 293.78 322 231.68 334.6 369.38 413.03 214.89"/><polyline class="cls-9" points="123.03 674.98 191.88 518.23 374.41 519.74 213.43 599.24 191.88 518.23 316.64 481.95 374.41 519.74"/><polyline class="cls-9" points="96.66 807.31 34.27 755.5 99.99 908.61 253.88 851.45 96.66 807.31 -24.17 852.19 34.27 755.5 32 691.78 123.03 674.98 34.27 755.5 -67.72 691.67 87.32 536.57 -124.07 543.22 32 691.78"/><polyline class="cls-9" points="257.96 731.47 213.43 599.24 96.66 807.31 257.96 731.47 253.88 851.45 353.75 865.32 257.96 731.47"/><polyline class="cls-9" points="208.62 293.78 70.62 386.93 186.07 402.25 191.88 518.23 87.32 536.57 70.62 386.93 136.07 415.14 208.62 293.78 270.47 148.97 322 231.68"/><polyline class="cls-9" points="348.38 99.35 191.16 55.21 345.04 -1.95 410.76 151.16 348.38 99.35"/><polyline class="cls-9" points="186.07 402.25 285.88 311.67 334.6 369.38 441.66 350.49 413.03 214.89 519.24 189.19 410.76 151.16 322 231.68 413.03 214.89 410.76 151.16"/><polyline class="cls-9" points="208.62 293.78 191.16 55.21 270.47 148.97 348.38 99.35"/><line class="cls-9" x1="243.71" y1="427.33" x2="334.6" y2="369.38"/><polyline class="cls-9" points="-196.68 263.64 -197.7 158.57 -136.24 95.96 15.96 78.28 103.11 -38.88 191.16 55.21 15.96 78.28 -121.63 -19.36 103.11 -38.88 348.38 99.35 322 231.68 285.88 311.67"/><polyline class="cls-9" points="74.5 187.96 15.96 78.28 -54.29 183.69 29.2 311.8 208.62 293.78 74.5 187.96 -54.29 183.69 -136.24 95.96 -196.68 263.64 -261.24 33.94 -136.24 95.96"/><polyline class="cls-9" points="29.2 311.8 124.52 265.65 208.62 293.78"/><polyline class="cls-9" points="-122.69 332.92 -47.81 446.94 70.62 386.93 29.2 311.8 -122.69 332.92 74.5 187.96 191.16 55.21 99.97 99.9 15.96 78.28"/><polyline class="cls-9" points="29.2 311.8 -47.81 446.94 136.07 415.14 191.88 518.23 334.6 369.38 316.64 481.95 243.71 427.33 191.88 518.23"/><polyline class="cls-9" points="270.47 148.97 124.52 265.65 74.5 187.96 136.47 186.78 124.52 265.65"/><line class="cls-9" x1="136.47" y1="186.78" x2="191.16" y2="55.21"/><line class="cls-9" x1="-64.64" y1="146.92" x2="74.5" y2="187.96"/><polyline class="cls-9" points="-122.69 332.92 -33.47 359.08 29.2 311.8"/><line class="cls-9" x1="345.04" y1="-1.95" x2="348.38" y2="99.35"/><path class="cls-10" d="M217.18,597.84a4,4,0,1,1-5.15-2.36A4,4,0,0,1,217.18,597.84Z"/><path class="cls-10" d="M195.64,516.84a4,4,0,1,1-5.15-2.36A4,4,0,0,1,195.64,516.84Z"/><path class="cls-10" d="M320.15,480.65a3.74,3.74,0,1,1-4.82-2.21A3.73,3.73,0,0,1,320.15,480.65Z"/><path class="cls-10" d="M90.72,535.31a3.63,3.63,0,1,1-4.66-2.14A3.63,3.63,0,0,1,90.72,535.31Z"/><path class="cls-10" d="M377.32,518.66a3.1,3.1,0,1,1-4-1.83A3.08,3.08,0,0,1,377.32,518.66Z"/><path class="cls-10" d="M525,187.06a6.11,6.11,0,1,1-7.85-3.6A6.11,6.11,0,0,1,525,187.06Z"/><path class="cls-10" d="M407.85,152.24a3.1,3.1,0,1,1,4,1.83A3.12,3.12,0,0,1,407.85,152.24Z"/><path class="cls-10" d="M319.09,232.76a3.1,3.1,0,1,1,4,1.83A3.1,3.1,0,0,1,319.09,232.76Z"/><path class="cls-10" d="M203.24,295.78a5.74,5.74,0,1,1,7.38,3.38A5.74,5.74,0,0,1,203.24,295.78Z"/><path class="cls-10" d="M182.56,403.56a3.74,3.74,0,1,1,4.82,2.21A3.74,3.74,0,0,1,182.56,403.56Z"/><path class="cls-10" d="M132.77,416.37a3.52,3.52,0,1,1,4.53,2.07A3.53,3.53,0,0,1,132.77,416.37Z"/><path class="cls-10" d="M331.69,370.46a3.1,3.1,0,1,1,4,1.82A3.11,3.11,0,0,1,331.69,370.46Z"/><path class="cls-10" d="M283,312.75a3.1,3.1,0,1,1,4,1.83A3.1,3.1,0,0,1,283,312.75Z"/><path class="cls-10" d="M240.8,428.41a3.1,3.1,0,1,1,4,1.83A3.11,3.11,0,0,1,240.8,428.41Z"/><path class="cls-10" d="M67.71,388a3.1,3.1,0,1,1,4,1.82A3.11,3.11,0,0,1,67.71,388Z"/><path class="cls-10" d="M342.13-.87a3.12,3.12,0,0,1,1.83-4A3.12,3.12,0,0,1,348-3a3.11,3.11,0,0,1-1.83,4A3.11,3.11,0,0,1,342.13-.87Z"/><path class="cls-10" d="M13.06,79.36a3.1,3.1,0,1,1,4,1.82A3.1,3.1,0,0,1,13.06,79.36Z"/><path class="cls-10" d="M344.11,100.94a4.55,4.55,0,1,1,5.85,2.68A4.54,4.54,0,0,1,344.11,100.94Z"/><path class="cls-10" d="M266.2,150.55a4.55,4.55,0,1,1,5.85,2.69A4.55,4.55,0,0,1,266.2,150.55Z"/><path class="cls-10" d="M187.13,56.71a4.29,4.29,0,1,1,5.52,2.53A4.3,4.3,0,0,1,187.13,56.71Z"/><path class="cls-10" d="M94.48,101.94a5.85,5.85,0,1,1,7.52,3.44A5.85,5.85,0,0,1,94.48,101.94Z"/><path class="cls-10" d="M23.72,313.83a5.85,5.85,0,1,1,7.51,3.45A5.85,5.85,0,0,1,23.72,313.83Z"/><path class="cls-10" d="M409,216.38a4.29,4.29,0,1,1,5.52,2.53A4.29,4.29,0,0,1,409,216.38Z"/><path class="cls-10" d="M437.64,352a4.29,4.29,0,1,1,5.52,2.53A4.28,4.28,0,0,1,437.64,352Z"/><path class="cls-10" d="M76.4,183.82a4.56,4.56,0,1,1-6,2.24A4.55,4.55,0,0,1,76.4,183.82Z"/><path class="cls-10" d="M126.42,261.51a4.55,4.55,0,1,1-6,2.24A4.55,4.55,0,0,1,126.42,261.51Z"/><path class="cls-10" d="M138.1,183.23a3.91,3.91,0,1,1-5.18,1.92A3.9,3.9,0,0,1,138.1,183.23Z"/></g></g></g><g class="cls-2"><g class="cls-15"><g class="cls-4"><g class="cls-5"><polygon class="cls-8" points="1839.8 187.96 1777.83 186.78 1789.78 265.65 1839.8 187.96"/><polygon class="cls-8" points="1628.43 311.67 1728.23 402.25 1579.71 369.38 1628.43 311.67"/><polygon class="cls-8" points="1597.66 481.95 1722.42 518.23 1539.89 519.74 1597.66 481.95"/><polygon class="cls-8" points="1962.12 446.94 1843.68 386.93 1778.23 415.14 1962.12 446.94"/><polygon class="cls-8" points="1565.92 99.35 1503.54 151.16 1592.3 231.68 1565.92 99.35"/><polygon class="cls-8" points="1723.15 55.21 1643.84 148.97 1705.68 293.78 1723.15 55.21"/><polygon class="cls-8" points="1941.1 8.05 1898.34 78.28 2050.54 95.96 1941.1 8.05"/><polygon class="cls-8" points="2036.99 332.92 1885.1 311.8 1947.77 359.08 2036.99 332.92"/><polygon class="cls-8" points="1882.3 691.78 1791.27 674.98 1826.98 536.57 1882.3 691.78"/></g><line class="cls-9" x1="1811.2" y1="-38.88" x2="1814.34" y2="99.9"/><polyline class="cls-9" points="2050.54 95.96 1941.1 8.05 1898.34 78.28"/><polyline class="cls-9" points="1882.3 691.78 1826.98 536.57 1791.27 674.98 1700.88 599.24 1826.98 536.57 1728.23 402.25 1579.7 369.38 1705.68 293.78 1592.3 231.68 1579.7 369.38 1501.27 214.89"/><polyline class="cls-9" points="1791.27 674.98 1722.42 518.23 1539.89 519.74 1700.88 599.24 1722.42 518.23 1597.66 481.95 1539.89 519.74"/><polyline class="cls-9" points="1817.65 807.31 1880.03 755.5 1814.31 908.61 1660.42 851.45 1817.65 807.31 1938.47 852.19 1880.03 755.5 1882.3 691.78 1791.27 674.98 1880.03 755.5 1982.02 691.67 1826.98 536.57 2038.37 543.22 1882.3 691.78"/><polyline class="cls-9" points="1656.34 731.47 1700.88 599.24 1817.65 807.31 1656.34 731.47 1660.42 851.45 1560.55 865.32 1656.34 731.47"/><polyline class="cls-9" points="1705.68 293.78 1843.68 386.93 1728.23 402.25 1722.42 518.23 1826.98 536.57 1843.68 386.93 1778.23 415.14 1705.68 293.78 1643.84 148.97 1592.3 231.68"/><polyline class="cls-9" points="1565.92 99.35 1723.15 55.21 1569.26 -1.95 1503.54 151.16 1565.92 99.35"/><polyline class="cls-9" points="1728.23 402.25 1628.43 311.67 1579.7 369.38 1472.64 350.49 1501.27 214.89 1395.06 189.19 1503.54 151.16 1592.3 231.68 1501.27 214.89 1503.54 151.16"/><polyline class="cls-9" points="1705.68 293.78 1723.15 55.21 1643.84 148.97 1565.92 99.35"/><line class="cls-9" x1="1670.6" y1="427.33" x2="1579.7" y2="369.38"/><polyline class="cls-9" points="2110.98 263.64 2112 158.57 2050.54 95.96 1898.34 78.28 1811.2 -38.88 1723.15 55.21 1898.34 78.28 2035.94 -19.36 1811.2 -38.88 1565.92 99.35 1592.3 231.68 1628.43 311.67"/><polyline class="cls-9" points="1839.8 187.96 1898.34 78.28 1968.6 183.69 1885.1 311.8 1705.68 293.78 1839.8 187.96 1968.6 183.69 2050.54 95.96 2110.98 263.64 2175.55 33.94 2050.54 95.96"/><polyline class="cls-9" points="1885.1 311.8 1789.78 265.65 1705.68 293.78"/><polyline class="cls-9" points="2036.99 332.92 1962.12 446.94 1843.68 386.93 1885.1 311.8 2036.99 332.92 1839.8 187.96 1723.15 55.21 1814.34 99.9 1898.34 78.28"/><polyline class="cls-9" points="1885.1 311.8 1962.12 446.94 1778.23 415.14 1722.42 518.23 1579.7 369.38 1597.66 481.95 1670.6 427.33 1722.42 518.23"/><polyline class="cls-9" points="1643.84 148.97 1789.78 265.65 1839.8 187.96 1777.83 186.78 1789.78 265.65"/><line class="cls-9" x1="1777.83" y1="186.78" x2="1723.15" y2="55.21"/><line class="cls-9" x1="1978.94" y1="146.92" x2="1839.8" y2="187.96"/><polyline class="cls-9" points="2036.99 332.92 1947.77 359.08 1885.1 311.8"/><line class="cls-9" x1="1569.26" y1="-1.95" x2="1565.92" y2="99.35"/><path class="cls-10" d="M1697.12,597.84a4,4,0,1,0,5.15-2.36A4,4,0,0,0,1697.12,597.84Z"/><path class="cls-10" d="M1718.66,516.84a4,4,0,1,0,5.16-2.36A4,4,0,0,0,1718.66,516.84Z"/><path class="cls-10" d="M1594.15,480.65a3.75,3.75,0,1,0,4.82-2.21A3.74,3.74,0,0,0,1594.15,480.65Z"/><path class="cls-10" d="M1823.58,535.31a3.63,3.63,0,1,0,4.66-2.14A3.63,3.63,0,0,0,1823.58,535.31Z"/><path class="cls-10" d="M1537,518.66a3.1,3.1,0,1,0,4-1.83A3.09,3.09,0,0,0,1537,518.66Z"/><path class="cls-10" d="M1389.34,187.06a6.1,6.1,0,1,0,7.85-3.6A6.11,6.11,0,0,0,1389.34,187.06Z"/><path class="cls-10" d="M1506.45,152.24a3.1,3.1,0,1,0-4,1.83A3.11,3.11,0,0,0,1506.45,152.24Z"/><path class="cls-10" d="M1595.21,232.76a3.1,3.1,0,1,0-4,1.83A3.08,3.08,0,0,0,1595.21,232.76Z"/><path class="cls-10" d="M1711.06,295.78a5.74,5.74,0,1,0-7.38,3.38A5.74,5.74,0,0,0,1711.06,295.78Z"/><path class="cls-10" d="M1731.75,403.56a3.75,3.75,0,1,0-4.82,2.21A3.75,3.75,0,0,0,1731.75,403.56Z"/><path class="cls-10" d="M1781.53,416.37a3.52,3.52,0,1,0-4.52,2.07A3.52,3.52,0,0,0,1781.53,416.37Z"/><path class="cls-10" d="M1582.61,370.46a3.1,3.1,0,1,0-4,1.82A3.1,3.1,0,0,0,1582.61,370.46Z"/><path class="cls-10" d="M1631.33,312.75a3.1,3.1,0,1,0-4,1.83A3.1,3.1,0,0,0,1631.33,312.75Z"/><path class="cls-10" d="M1673.5,428.41a3.1,3.1,0,1,0-4,1.83A3.11,3.11,0,0,0,1673.5,428.41Z"/><path class="cls-10" d="M1846.59,388a3.1,3.1,0,1,0-4,1.82A3.1,3.1,0,0,0,1846.59,388Z"/><path class="cls-10" d="M1572.17-.87a3.1,3.1,0,0,0-1.83-4,3.1,3.1,0,0,0-4,1.83,3.1,3.1,0,0,0,1.82,4A3.11,3.11,0,0,0,1572.17-.87Z"/><path class="cls-10" d="M1901.25,79.36a3.1,3.1,0,1,0-4,1.82A3.11,3.11,0,0,0,1901.25,79.36Z"/><path class="cls-10" d="M1570.19,100.94a4.55,4.55,0,1,0-5.85,2.68A4.54,4.54,0,0,0,1570.19,100.94Z"/><path class="cls-10" d="M1648.11,150.55a4.55,4.55,0,1,0-5.86,2.69A4.56,4.56,0,0,0,1648.11,150.55Z"/><path class="cls-10" d="M1727.17,56.71a4.29,4.29,0,1,0-5.52,2.53A4.29,4.29,0,0,0,1727.17,56.71Z"/><path class="cls-10" d="M1819.82,101.94a5.85,5.85,0,1,0-7.52,3.44A5.85,5.85,0,0,0,1819.82,101.94Z"/><path class="cls-10" d="M1890.58,313.83a5.85,5.85,0,1,0-7.51,3.45A5.83,5.83,0,0,0,1890.58,313.83Z"/><path class="cls-10" d="M1505.3,216.38a4.3,4.3,0,1,0-5.52,2.53A4.3,4.3,0,0,0,1505.3,216.38Z"/><path class="cls-10" d="M1476.67,352a4.3,4.3,0,1,0-5.53,2.53A4.3,4.3,0,0,0,1476.67,352Z"/><path class="cls-10" d="M1837.9,183.82a4.56,4.56,0,1,0,6,2.24A4.56,4.56,0,0,0,1837.9,183.82Z"/><path class="cls-10" d="M1787.88,261.51a4.56,4.56,0,1,0,6,2.24A4.55,4.55,0,0,0,1787.88,261.51Z"/><path class="cls-10" d="M1776.2,183.23a3.91,3.91,0,1,0,5.18,1.92A3.9,3.9,0,0,0,1776.2,183.23Z"/></g></g></g></svg>