<svg xmlns="http://www.w3.org/2000/svg" width="34" height="34" viewBox="0 0 34 34">
  <g id="twitter_gray" transform="translate(-615 -1130)">
    <g id="Elipse_3" data-name="Elipse 3" transform="translate(615 1130)" fill="#fff" stroke="#707070" stroke-width="1">
      <circle cx="17" cy="17" r="17" stroke="none"/>
      <circle cx="17" cy="17" r="16.5" fill="none"/>
    </g>
    <g id="Grupo_8" data-name="Grupo 8" transform="translate(-347.834 -4163.449)">
      <g id="Grupo_7" data-name="Grupo 7" transform="translate(970.834 5303.449)">
        <path id="Trazado_9" data-name="Trazado 9" d="M989.734,5305.267a8.083,8.083,0,0,1-2.233.612,3.857,3.857,0,0,0,1.7-2.142,7.778,7.778,0,0,1-2.457.938,3.875,3.875,0,0,0-6.7,2.65,4,4,0,0,0,.089.882,10.965,10.965,0,0,1-7.986-4.052,3.877,3.877,0,0,0,1.191,5.178,3.822,3.822,0,0,1-1.75-.477v.042a3.892,3.892,0,0,0,3.1,3.808,3.851,3.851,0,0,1-1.015.128,3.376,3.376,0,0,1-.734-.067,3.912,3.912,0,0,0,3.62,2.7,7.786,7.786,0,0,1-4.8,1.652,7.161,7.161,0,0,1-.927-.054,11.027,11.027,0,0,0,16.972-9.286c0-.172-.006-.337-.014-.5A7.736,7.736,0,0,0,989.734,5305.267Z" transform="translate(-970.834 -5303.449)" fill="#707070"/>
      </g>
    </g>
  </g>
</svg>
