<svg xmlns="http://www.w3.org/2000/svg" width="23.904" height="19.422" viewBox="0 0 23.904 19.422">
  <g id="twitter2" transform="translate(-974.144 -5488.7)">
    <g id="Grupo_22" data-name="Grupo 22">
      <path id="Trazado_26" data-name="Trazado 26" d="M998.048,5491a10.194,10.194,0,0,1-2.823.774,4.877,4.877,0,0,0,2.156-2.709,9.808,9.808,0,0,1-3.108,1.187,4.9,4.9,0,0,0-8.477,3.351,5.025,5.025,0,0,0,.114,1.117,13.869,13.869,0,0,1-10.1-5.126,4.9,4.9,0,0,0,1.506,6.55,4.841,4.841,0,0,1-2.214-.6v.054a4.921,4.921,0,0,0,3.926,4.815,4.9,4.9,0,0,1-1.285.162,4.325,4.325,0,0,1-.928-.084,4.947,4.947,0,0,0,4.579,3.414,9.846,9.846,0,0,1-6.076,2.09,9.184,9.184,0,0,1-1.173-.067,13.948,13.948,0,0,0,21.466-11.746c0-.217-.007-.426-.018-.634A9.754,9.754,0,0,0,998.048,5491Z" fill="#fff"/>
    </g>
  </g>
</svg>
