<svg xmlns="http://www.w3.org/2000/svg" viewBox="0 0 46.182 48.332">
  <defs>
    <style>
      .cls-1 {
        fill: #fff;
      }
    </style>
  </defs>
  <g id="twitter" transform="translate(0)">
    <path id="Path_54" data-name="Path 54" class="cls-1" d="M39.6,9.85A7.472,7.472,0,0,1,36.449,14a13.8,13.8,0,0,0,4.124-1.182A14.978,14.978,0,0,1,37,16.706c.014.323.02.646.02.971,0,9.918-7.213,21.353-20.4,21.353A19.637,19.637,0,0,1,5.62,35.658a13.951,13.951,0,0,0,10.616-3.107,7.229,7.229,0,0,1-6.708-5.212,6.9,6.9,0,0,0,3.238-.129,7.432,7.432,0,0,1-5.752-7.358v-.1a6.893,6.893,0,0,0,3.247.939,7.6,7.6,0,0,1-3.184-6.246,7.734,7.734,0,0,1,.971-3.773,20.08,20.08,0,0,0,14.78,7.842,7.874,7.874,0,0,1-.185-1.707,7.342,7.342,0,0,1,7.17-7.5,7.02,7.02,0,0,1,5.235,2.369A13.937,13.937,0,0,0,39.6,9.854m6.58,14.317C46.182,10.82,35.837,0,23.091,0S0,10.82,0,24.166,10.337,48.332,23.091,48.332s23.091-10.82,23.091-24.166"/>
  </g>
</svg>
