<svg xmlns="http://www.w3.org/2000/svg" width="602.245" height="459.623" viewBox="0 0 602.245 459.623">
  <path id="ugruesa" d="M45.563-107.585V43.941A111.955,111.955,0,0,0,54.52,88.67,114.177,114.177,0,0,0,115.547,149.7a111.96,111.96,0,0,0,44.729,8.956,112.211,112.211,0,0,0,44.781-8.956,114.1,114.1,0,0,0,36.45-24.526,115.318,115.318,0,0,0,24.577-36.5,112.864,112.864,0,0,0,8.956-44.729V-107.585H454.424V43.941q0,61.158-22.963,114.712a295.8,295.8,0,0,1-62.9,93.52,296.154,296.154,0,0,1-93.572,62.954q-53.5,22.964-114.712,22.911-61.156,0-114.712-22.911a295.91,295.91,0,0,1-93.519-62.954,295.911,295.911,0,0,1-62.954-93.52q-22.885-53.581-22.912-114.712V-107.585Z" transform="translate(140.821 114.585)" fill="none" stroke="#707070" stroke-width="14"/>
</svg>
