<svg xmlns="http://www.w3.org/2000/svg" width="356.163" height="269.144" viewBox="0 0 356.163 269.144">
  <g id="up_azul" transform="translate(-220.673 -601.526)">
    <path id="Trazado_4479" data-name="Trazado 4479" d="M-340.1-1016.67v37.177a27.587,27.587,0,0,0,2.2,10.983,28.273,28.273,0,0,0,6.026,8.954,28.244,28.244,0,0,0,8.955,6.026,27.561,27.561,0,0,0,10.982,2.2,27.572,27.572,0,0,0,10.982-2.2,28.278,28.278,0,0,0,8.955-6.026,28.272,28.272,0,0,0,6.026-8.954,27.586,27.586,0,0,0,2.2-10.983v-37.177h44.025v37.177a70.7,70.7,0,0,1-5.629,28.152,72.554,72.554,0,0,1-15.448,22.955,72.513,72.513,0,0,1-22.956,15.447,70.707,70.707,0,0,1-28.151,5.63,70.676,70.676,0,0,1-28.15-5.63,72.4,72.4,0,0,1-22.955-15.447A72.454,72.454,0,0,1-378.5-951.341a70.706,70.706,0,0,1-5.631-28.152v-37.177Z" transform="translate(604.801 1673.461)" fill="#1790f2"/>
    <path id="Trazado_4480" data-name="Trazado 4480" d="M2522.324,1079.951a99.062,99.062,0,0,0-99.062,99.062c0,.977.045,1.943.074,2.913V1349.1h50.411V1265.34a99.059,99.059,0,1,0,48.578-185.388Zm0,146.795a47.732,47.732,0,1,1,47.732-47.732A47.786,47.786,0,0,1,2522.324,1226.746Z" transform="translate(-2044.551 -478.426)" fill="#1790f2"/>
  </g>
</svg>
