<svg xmlns="http://www.w3.org/2000/svg" width="867.22" height="655.336" viewBox="0 0 867.22 655.336">
  <g id="UPblanco" transform="translate(-220.673 -601.526)">
    <path id="Trazado_4479" data-name="Trazado 4479" d="M-276.934-1016.67v90.523a67.168,67.168,0,0,0,5.349,26.742,68.836,68.836,0,0,0,14.673,21.8,68.771,68.771,0,0,0,21.8,14.673,67.112,67.112,0,0,0,26.74,5.349,67.14,67.14,0,0,0,26.739-5.349,68.856,68.856,0,0,0,21.8-14.673,68.836,68.836,0,0,0,14.673-21.8,67.171,67.171,0,0,0,5.347-26.742v-90.523h107.2v90.523A172.156,172.156,0,0,1-46.315-857.6a176.662,176.662,0,0,1-37.613,55.892A176.564,176.564,0,0,1-139.822-764.1a172.168,172.168,0,0,1-68.545,13.709A172.093,172.093,0,0,1-276.911-764.1,176.293,176.293,0,0,1-332.8-801.708,176.416,176.416,0,0,1-370.418-857.6a172.159,172.159,0,0,1-13.71-68.548v-90.523Z" transform="translate(604.801 1752.761)" fill="#fff"/>
    <path id="Trazado_4480" data-name="Trazado 4480" d="M2664.469,1079.951c-133.218,0-241.207,107.993-241.207,241.206,0,2.38.109,4.732.18,7.094v407.037h122.746V1531.352a240.038,240.038,0,0,0,118.282,31.013c133.213,0,241.205-107.991,241.205-241.208S2797.682,1079.951,2664.469,1079.951Zm0,357.429a116.223,116.223,0,1,1,116.222-116.223A116.353,116.353,0,0,1,2664.469,1437.38Z" transform="translate(-1817.782 -478.426)" fill="#fff"/>
  </g>
</svg>
