<svg xmlns="http://www.w3.org/2000/svg" width="64.382" height="133.543" viewBox="0 0 64.382 133.543">
  <g id="YardManagement_icon" transform="translate(-1023.568 -4165.824)">
    <path id="Trazado_4621" data-name="Trazado 4621" d="M329.142,577.823a14.368,14.368,0,0,1,20.292,0,1.2,1.2,0,1,0,1.691-1.691,16.759,16.759,0,0,0-23.673,0,1.195,1.195,0,0,0,1.691,1.688Z" transform="translate(716.471 3594.586)" fill="#c8c8c8"/>
    <path id="Trazado_4622" data-name="Trazado 4622" d="M345.656,578.253a1.2,1.2,0,0,0,0-1.691,11.976,11.976,0,0,0-16.91,0,1.2,1.2,0,1,0,1.691,1.691,9.578,9.578,0,0,1,13.529,0A1.194,1.194,0,0,0,345.656,578.253Z" transform="translate(718.559 3597.537)" fill="#c8c8c8"/>
    <path id="Trazado_4623" data-name="Trazado 4623" d="M330.038,577a1.2,1.2,0,1,0,1.691,1.691,4.781,4.781,0,0,1,6.763,0,1.194,1.194,0,0,0,1.691,0,1.2,1.2,0,0,0,0-1.691,7.173,7.173,0,0,0-10.145,0Z" transform="translate(720.647 3600.486)" fill="#c8c8c8"/>
    <path id="Trazado_4625" data-name="Trazado 4625" d="M325.613,632.015a16.075,16.075,0,1,0,16.074-16.074V604.056" transform="translate(714.071 3647.528)" fill="none" stroke="#0090f2" stroke-linecap="round" stroke-linejoin="round" stroke-width="7.5"/>
    <path id="Trazado_4628" data-name="Trazado 4628" d="M351.636,580.676a32.191,32.191,0,1,0,32.192,32.19A32.19,32.19,0,0,0,351.636,580.676Zm0,51.112a18.922,18.922,0,1,1,18.925-18.922A18.923,18.923,0,0,1,351.636,631.788Z" transform="translate(704.122 3609.811)" fill="#fff"/>
    <path id="Trazado_4758" data-name="Trazado 4758" d="M14.223,0A14.223,14.223,0,1,1,0,14.223,14.223,14.223,0,0,1,14.223,0Z" transform="translate(1041.536 4208.455)" fill="#fff"/>
  </g>
</svg>
